<?xml version="1.0" encoding="UTF-8" standalone="no"?><!DOCTYPE svg PUBLIC "-//W3C//DTD SVG 1.1//EN" "http://www.w3.org/Graphics/SVG/1.1/DTD/svg11.dtd"><svg width="100%" height="100%" viewBox="0 0 4167 2235" version="1.1" xmlns="http://www.w3.org/2000/svg" xmlns:xlink="http://www.w3.org/1999/xlink" xml:space="preserve" xmlns:serif="http://www.serif.com/" style="fill-rule:evenodd;clip-rule:evenodd;stroke-linejoin:round;stroke-miterlimit:2;"><rect id="Artboard1" x="0" y="0" width="4166.67" height="2235" style="fill:none;"/><clipPath id="_clip1"><rect x="0" y="0" width="4166.67" height="2235"/></clipPath><g clip-path="url(#_clip1)"><g><g><path d="M913.483,401.924c-46.465,74.114 -128.893,123.438 -222.75,123.438c-144.999,0 -262.719,-117.72 -262.719,-262.718c-0,-144.998 117.72,-262.719 262.719,-262.719c144.998,0 262.718,117.721 262.718,262.719c0,22.402 -2.81,44.153 -8.094,64.911l102.899,96.936l-134.773,-22.567Z"/><path d="M771.358,299.015c6.008,-7.694 8.93,-18.328 8.93,-31.875c-0,-13.556 -2.922,-24.18 -8.775,-31.728c-5.697,-7.547 -13.858,-11.238 -24.18,-11.238c-11.083,-0 -19.253,4.158 -24.795,12.621l-0.925,0c-1.227,-5.853 -2.152,-9.544 -2.464,-11.082l-14.325,-0l0,120.124l17.714,0l0,-34.036c0,-1.539 -0.311,-5.697 -1.08,-12.786l1.08,-0c5.853,7.547 14.014,11.403 24.492,11.403c10.314,-0 18.475,-3.856 24.328,-11.403Zm95.467,8.939c1.997,1.997 4.772,3.078 8.317,3.078c3.545,-0 6.311,-1.081 8.161,-3.078c2.006,-2.162 2.931,-4.928 2.931,-8.472c-0,-3.545 -0.925,-6.32 -2.931,-8.317c-1.85,-2.006 -4.616,-3.077 -8.161,-3.077c-3.545,-0 -6.32,0.916 -8.317,2.921c-2.006,1.851 -2.931,4.772 -2.931,8.473c0,3.691 0.925,6.466 2.931,8.472Zm-281.961,-95.953c-8.939,-9.855 -21.561,-14.783 -37.892,-14.783c-16.633,-0 -29.41,4.928 -38.35,14.627c-8.93,9.709 -13.391,23.567 -13.391,41.739c0,18.172 4.461,32.186 13.391,42.042c8.94,9.864 21.561,14.792 38.195,14.792c16.331,-0 29.108,-4.928 38.047,-14.939c8.931,-9.855 13.391,-23.878 13.391,-41.739c0,-17.87 -4.46,-31.884 -13.391,-41.739Zm264.897,62.842c-1.392,-2.931 -3.7,-5.395 -6.933,-7.547c-3.078,-2.318 -8.005,-4.781 -14.939,-7.392c-8.161,-3.086 -13.4,-5.706 -15.864,-7.401c-2.464,-1.84 -3.7,-4.002 -3.7,-6.622c-0,-5.385 4.625,-8.005 14.023,-8.005c6.155,0 13.702,1.85 22.632,5.541l5.697,-13.244c-8.619,-4.003 -18.016,-5.999 -27.716,-5.999c-9.855,-0 -17.714,1.996 -23.411,5.852c-5.697,4.003 -8.628,9.545 -8.628,16.625c-0,6.008 1.694,10.78 5.083,14.48c3.389,3.701 9.856,7.392 19.409,11.093c4.928,1.996 8.775,3.691 11.55,5.083c2.775,1.539 4.772,3.078 5.853,4.461c1.227,1.383 1.85,3.077 1.85,5.239c-0,6.622 -5.395,9.855 -16.331,9.855c-8.463,0 -17.549,-2.308 -27.258,-6.778l-0,15.251c6.622,3.388 15.552,5.083 26.644,5.083c11.092,-0 19.564,-2.162 25.408,-6.476c6.009,-4.305 8.94,-10.625 8.94,-18.785c-0,-4.003 -0.77,-7.392 -2.309,-10.314Zm-171.087,-39.119c-7.089,-7.703 -16.633,-11.55 -28.65,-11.55c-12.631,-0 -22.331,3.847 -29.264,11.394c-6.925,7.547 -10.314,18.016 -10.314,31.572c0,8.619 1.539,16.322 4.772,22.944c3.234,6.467 7.859,11.55 13.703,15.095c6.008,3.544 12.942,5.239 20.645,5.239c12.475,-0 22.175,-3.856 29.108,-11.403c7.08,-7.694 10.469,-18.328 10.469,-31.875c0,-13.089 -3.544,-23.567 -10.469,-31.416Zm-45.128,10.313c3.389,-4.928 8.775,-7.392 16.166,-7.392c14.17,0 21.259,9.554 21.259,28.495c0,19.253 -7.089,28.797 -21.103,28.797c-14.169,0 -21.249,-9.544 -21.249,-28.797c-0,-9.242 1.694,-16.175 4.927,-21.103Zm123.642,-0.156c3.233,4.782 4.928,11.862 4.928,21.103c-0,9.242 -1.695,16.478 -4.928,21.406c-3.389,5.083 -8.005,7.547 -14.169,7.547c-7.236,0 -12.475,-2.308 -15.709,-6.778c-3.233,-4.616 -4.772,-11.852 -4.772,-22.019l0,-2.619c0,-9.086 1.539,-15.553 4.772,-19.711c3.234,-4.159 8.473,-6.165 15.406,-6.165c6.311,0 11.239,2.464 14.472,7.236Zm-234.543,-22.788c5.386,-6.934 13.547,-10.478 24.327,-10.478c10.625,-0 18.639,3.544 24.025,10.478c5.395,6.933 8.161,17.091 8.161,30.647c0,13.702 -2.766,24.025 -8.161,30.959c-5.386,6.924 -13.546,10.313 -24.18,10.313c-10.781,-0 -18.786,-3.545 -24.328,-10.469c-5.394,-6.934 -8.161,-17.247 -8.161,-30.803c0,-13.556 2.767,-23.714 8.317,-30.647Zm362.966,-24.181l-20.792,0l3.857,76.545l13.088,-0l3.847,-76.545Z" style="fill:#fff;fill-rule:nonzero;"/></g><path d="M3918.01,2042.99c-24.739,-47.198 -125.263,-85.108 -170.254,-93.7c-240.13,-45.833 -491.645,-39.431 -734.899,-38.661c-264.915,0.833 -517.676,43.232 -780.402,62.869c-136.621,10.176 -281.008,-8.152 -417.95,-12.905c-225.502,-7.813 -450.959,-16.982 -676.361,-27.506c-194.343,-9.067 -396.05,11.266 -567.476,118.412c-19.481,12.191 -39.165,26.892 -48.031,48.755c-55.689,137.28 638.341,120.033 728.762,122.387c456.107,11.871 912.517,18.007 1368.68,5.661c339.17,-9.187 692.646,-8.628 1029.01,-56.486c74.383,-10.588 175.612,-14.38 239.873,-58.162c35.557,-24.217 40.686,-48.462 29.045,-70.664Z" style="fill:#eee;fill-rule:nonzero;"/><path d="M2553.45,1331.16c-12.255,0.028 -24.511,0.037 -36.766,0.046l0,9.16c12.265,-0 24.52,-0.019 36.784,-0.046l-0.018,-9.16Zm-73.531,0.037c-12.256,-0.009 -24.511,-0.027 -36.775,-0.064l-0.018,9.159c12.264,0.037 24.519,0.055 36.783,0.064l0.01,-9.159Zm147.062,-0.275c-12.255,0.055 -24.511,0.11 -36.766,0.147l0.028,9.159c12.264,-0.036 24.519,-0.091 36.783,-0.146l-0.045,-9.16Zm-220.603,0.11c-12.255,-0.046 -24.51,-0.101 -36.765,-0.156l-0.046,9.151c12.264,0.064 24.52,0.119 36.784,0.165l0.027,-9.16Zm294.134,-0.586c-12.255,0.101 -24.51,0.183 -36.766,0.266l0.055,9.159c12.265,-0.082 24.52,-0.165 36.784,-0.266l-0.073,-9.159Zm-367.665,0.229c-12.255,-0.082 -24.51,-0.165 -36.765,-0.247l-0.064,9.159c12.255,0.082 24.519,0.165 36.774,0.247l0.055,-9.159Zm-73.531,-0.54c-12.255,-0.101 -24.51,-0.211 -36.765,-0.33l-0.092,9.159c12.264,0.119 24.52,0.229 36.784,0.33l0.073,-9.159Zm514.718,-0.394c-12.255,0.137 -24.51,0.265 -36.766,0.384l0.092,9.16c12.264,-0.119 24.52,-0.248 36.775,-0.394l-0.101,-9.15Zm-588.249,-0.303c-12.255,-0.128 -24.51,-0.265 -36.766,-0.403l-0.109,9.16c12.255,0.137 24.519,0.275 36.774,0.403l0.101,-9.16Zm661.771,-0.659c-12.255,0.183 -24.501,0.348 -36.756,0.513l0.119,9.159c12.255,-0.165 24.519,-0.339 36.774,-0.513l-0.137,-9.159Zm-735.302,-0.192c-12.255,-0.156 -24.51,-0.312 -36.766,-0.477l-0.128,9.16c12.264,0.165 24.52,0.32 36.775,0.476l0.119,-9.159Zm808.824,-1.035c-12.255,0.229 -24.511,0.439 -36.757,0.65l0.147,9.15c12.264,-0.201 24.52,-0.412 36.775,-0.641l-0.165,-9.159Zm-882.355,0.046c-12.255,-0.175 -24.51,-0.358 -36.766,-0.541l-0.137,9.159c12.255,0.184 24.51,0.367 36.765,0.541l0.138,-9.159Zm955.867,-1.548c-12.255,0.274 -24.501,0.54 -36.756,0.787l0.183,9.16c12.265,-0.248 24.52,-0.513 36.775,-0.788l-0.202,-9.159Zm-1029.4,0.43c-12.255,-0.192 -24.511,-0.394 -36.766,-0.604l-0.155,9.159c12.255,0.21 24.519,0.412 36.774,0.604l0.147,-9.159Zm-73.531,-1.227c-12.256,-0.22 -24.511,-0.44 -36.766,-0.66l-0.165,9.16c12.255,0.219 24.51,0.439 36.775,0.659l0.156,-9.159Zm1176.48,-0.925c-5.203,0.091 -10.13,0.201 -14.747,0.32c-7.355,0.183 -14.7,0.366 -22.046,0.55l0.22,9.159c7.355,-0.183 14.7,-0.366 22.055,-0.55c4.599,-0.119 9.499,-0.228 14.692,-0.32l-0.174,-9.159Zm-1250,-0.413c-12.255,-0.229 -24.511,-0.467 -36.766,-0.705l-0.183,9.159c12.255,0.239 24.519,0.477 36.775,0.706l0.174,-9.16Zm1323.75,-0.815c-12.997,0.248 -25.326,0.449 -36.857,0.623l0.137,9.159c11.541,-0.174 23.879,-0.375 36.894,-0.623l-0.174,-9.159Zm-1397.28,-0.604c-12.256,-0.248 -24.511,-0.486 -36.766,-0.724l-0.174,9.159c12.255,0.239 24.51,0.477 36.756,0.715l0.184,-9.15Zm1470.9,-1.365c-12.604,0.458 -24.896,0.833 -36.793,1.145l0.238,9.15c11.925,-0.311 24.253,-0.687 36.884,-1.145l-0.329,-9.15Zm-1544.42,-0.083c-12.256,-0.238 -24.511,-0.485 -36.766,-0.732l-0.183,9.159c12.255,0.247 24.51,0.486 36.765,0.733l0.184,-9.16Zm1617.92,-3.434c-12.402,0.76 -24.666,1.41 -36.729,1.987l0.431,9.151c12.099,-0.578 24.409,-1.237 36.857,-1.997l-0.559,-9.141Zm-1691.45,1.969c-12.245,-0.247 -24.501,-0.495 -36.756,-0.751l-0.192,9.159c12.255,0.257 24.51,0.504 36.765,0.751l0.183,-9.159Zm-73.521,-1.52c-12.246,-0.257 -24.502,-0.523 -36.757,-0.788l-0.201,9.159c12.255,0.266 24.51,0.532 36.765,0.788l0.193,-9.159Zm-73.513,-1.603c-12.255,-0.284 -24.511,-0.559 -36.766,-0.852l-0.21,9.159c12.255,0.284 24.51,0.568 36.765,0.843l0.211,-9.15Zm1911.81,-4.507c-12.247,1.164 -24.474,2.208 -36.629,3.133l0.696,9.132c12.21,-0.935 24.493,-1.979 36.793,-3.142l-0.86,-9.123Zm-1985.33,2.766c-12.246,-0.302 -24.501,-0.613 -36.747,-0.925l-0.238,9.16c12.255,0.311 24.51,0.622 36.765,0.925l0.22,-9.16Zm-73.504,-1.896c-12.255,-0.329 -24.501,-0.668 -36.756,-1.025l-0.257,9.159c12.256,0.348 24.511,0.687 36.766,1.026l0.247,-9.16Zm-73.503,-2.097c-12.256,-0.366 -24.502,-0.742 -36.748,-1.136l-0.293,9.16c12.255,0.384 24.511,0.769 36.766,1.135l0.275,-9.159Zm-73.495,-2.327c-12.246,-0.412 -24.492,-0.833 -36.747,-1.264l-0.321,9.151c12.256,0.43 24.511,0.851 36.766,1.264l0.302,-9.151Zm2278.8,-4.936c-12.063,1.694 -24.208,3.242 -36.39,4.653l1.053,9.095c12.255,-1.42 24.465,-2.968 36.61,-4.672l-1.273,-9.076Zm-2352.3,2.335c-12.237,-0.458 -24.483,-0.925 -36.729,-1.41l-0.357,9.15c12.246,0.485 24.492,0.953 36.756,1.41l0.33,-9.15Zm-73.458,-2.903c-12.246,-0.513 -24.492,-1.035 -36.729,-1.576l-0.403,9.15c12.246,0.541 24.501,1.063 36.747,1.576l0.385,-9.15Zm-73.458,-3.252c-12.237,-0.568 -24.483,-1.154 -36.72,-1.758l-0.449,9.15c12.246,0.604 24.492,1.19 36.739,1.758l0.43,-9.15Zm2571.55,-8.518c-11.834,2.427 -23.86,4.662 -36.051,6.732l1.53,9.031c12.282,-2.079 24.428,-4.341 36.362,-6.787l-1.841,-8.976Zm-2644.98,4.9c-12.237,-0.641 -24.474,-1.291 -36.711,-1.969l-0.504,9.15c12.246,0.669 24.492,1.328 36.738,1.969l0.477,-9.15Zm-73.412,-4.039c-12.237,-0.705 -24.465,-1.438 -36.693,-2.18l-0.568,9.141c12.246,0.742 24.483,1.475 36.729,2.18l0.532,-9.141Zm-73.385,-4.488c-0.888,-0.055 -1.786,-0.11 -2.674,-0.174c-10.836,-0.696 -22.239,-1.356 -34.091,-2.033l-0.523,9.15c11.843,0.668 23.229,1.328 34.027,2.024c0.889,0.064 1.777,0.119 2.675,0.174l0.586,-9.141Zm-73.485,-4.342c-11.953,-0.723 -24.208,-1.52 -36.665,-2.427l-0.669,9.132c12.512,0.916 24.795,1.713 36.775,2.436l0.55,-9.141l0.009,0Zm2936.25,-9.873c-11.394,3.489 -23.173,6.741 -35.254,9.754l2.216,8.885c12.228,-3.05 24.154,-6.338 35.722,-9.883l-2.684,-8.756Zm-3009.51,4.442c-12.072,-1.118 -24.253,-2.381 -36.463,-3.838l-1.081,9.095c12.301,1.466 24.556,2.739 36.702,3.856l0.842,-9.113Zm-72.78,-8.747c-12.099,-1.86 -24.144,-3.939 -36.051,-6.284l-1.767,8.986c12.044,2.372 24.217,4.479 36.435,6.347l1.383,-9.049Zm3150.18,-22.001c-10.478,5.166 -21.634,9.984 -33.358,14.481l3.279,8.546c11.953,-4.58 23.365,-9.508 34.127,-14.82l-4.048,-8.207Zm-3221.89,7.73c-11.944,-3.031 -23.649,-6.383 -35.035,-10.111l-2.848,8.701c11.596,3.801 23.503,7.218 35.63,10.286l2.253,-8.876Zm-69.089,-22.87c-11.348,-4.846 -22.22,-10.176 -32.506,-16.02l-4.525,7.959c10.616,6.036 21.799,11.514 33.422,16.487l3.609,-8.426Zm3350.3,-25.17c-8.142,7.978 -17.503,15.424 -27.936,22.376l5.074,7.621c10.845,-7.227 20.654,-15.022 29.274,-23.448l-6.412,-6.549Zm-3412.83,-10.817c-6.255,-4.882 -12.182,-10.039 -17.723,-15.498c-2.922,-2.876 -5.697,-5.871 -8.326,-8.985l-6.988,5.917c2.802,3.325 5.77,6.521 8.884,9.589c5.816,5.725 11.999,11.12 18.52,16.203l5.633,-7.226Zm3447.48,-49.25c-2.492,11.577 -6.787,22.349 -12.723,32.442l7.896,4.644c6.402,-10.881 11.083,-22.605 13.785,-35.163l-8.958,-1.923Zm-3492.71,-5.065c-5.084,-10.781 -8.702,-22.166 -10.68,-33.78l-9.031,1.539c2.125,12.457 5.999,24.629 11.421,36.143l8.29,-3.902Zm3486.59,-64.07c4.232,9.993 7.072,21.277 8.143,34.155l9.132,-0.76c-1.145,-13.775 -4.213,-26.049 -8.839,-36.967l-8.436,3.572Zm-3498.1,-4.982c1.475,-11.505 4.708,-22.871 9.893,-33.753l-8.271,-3.929c-5.615,11.779 -9.114,24.089 -10.698,36.518l9.076,1.164Zm3451.39,-46.511c10.231,6.347 19.601,13.656 27.597,22.229l6.705,-6.237c-8.665,-9.297 -18.695,-17.092 -29.475,-23.778l-4.827,7.786Zm-66.332,-28.898c11.321,3.801 22.908,7.895 34.183,12.631l3.544,-8.445c-11.595,-4.864 -23.393,-9.041 -34.814,-12.869l-2.913,8.683Zm-3355.29,12.566c7.566,-8.142 16.652,-15.735 27.396,-22.559l-4.919,-7.731c-11.357,7.218 -21.066,15.315 -29.191,24.062l6.714,6.228Zm3284.92,-32.442c12.475,2.858 24.327,5.844 35.483,8.976l2.473,-8.82c-11.32,-3.179 -23.31,-6.201 -35.914,-9.086l-2.042,8.93Zm-3225.16,-4.131c10.515,-2.912 22.495,-5.221 35.465,-7.025l-1.264,-9.077c-13.263,1.859 -25.61,4.223 -36.647,7.282l2.446,8.82Zm3153.14,-9.809c12.448,2.051 24.501,4.185 36.142,6.429l1.723,-9.003c-11.715,-2.253 -23.861,-4.406 -36.39,-6.467l-1.475,9.041Zm-3081.38,-0.944c11.861,-0.852 24.126,-1.447 36.546,-1.859l-0.303,-9.159c-12.511,0.421 -24.895,1.016 -36.902,1.886l0.659,9.132Zm146.742,-2.601c1.557,0.009 3.096,0.009 4.625,0.009c11.513,0 22.358,-0.064 32.25,-0.275l-0.192,-9.159c-9.792,0.211 -20.572,0.275 -32.058,0.275c-1.529,-0 -3.068,-0 -4.616,-0.009l-0.009,9.159Zm-73.513,-0c8.93,-0.092 17.815,-0.119 26.571,-0.119c3.407,-0 6.796,0.009 10.158,0.018l0.027,-9.159c-3.37,-0.009 -6.769,-0.018 -10.185,-0.018c-8.775,-0 -17.687,0.027 -26.654,0.119l0.083,9.159Zm2935.42,-6.915c12.411,1.557 24.565,3.187 36.426,4.882l1.292,-9.068c-11.907,-1.704 -24.117,-3.334 -36.573,-4.9l-1.145,9.086Zm-2787.95,4.469c13.391,-1.392 25.637,-3.251 36.784,-5.514l-1.823,-8.976c-10.826,2.199 -22.779,4.012 -35.914,5.386l0.953,9.104Zm2714.88,-12.612c12.384,1.227 24.584,2.5 36.565,3.829l1.016,-9.096c-12.026,-1.337 -24.254,-2.619 -36.683,-3.846l-0.898,9.113Zm-2642.04,-2.94c13.803,-5.148 24.914,-11.184 33.514,-17.971l-5.669,-7.19c-7.648,6.045 -17.925,11.697 -31.041,16.579l3.196,8.582Zm2568.77,-3.536c12.365,0.98 24.584,1.997 36.656,3.06l0.796,-9.123c-12.09,-1.072 -24.345,-2.088 -36.728,-3.068l-0.724,9.131Zm-73.384,-5.221c12.337,0.788 24.574,1.613 36.701,2.474l0.65,-9.141c-12.145,-0.861 -24.409,-1.686 -36.765,-2.473l-0.586,9.14Zm-73.458,-4.24c12.319,0.641 24.565,1.31 36.738,2.015l0.531,-9.15c-12.191,-0.696 -24.455,-1.365 -36.793,-2.006l-0.476,9.141Zm-73.504,-3.444c12.292,0.522 24.556,1.062 36.756,1.639l0.431,-9.15c-12.219,-0.577 -24.492,-1.117 -36.802,-1.639l-0.385,9.15Zm-73.54,-2.803c12.273,0.421 24.538,0.861 36.775,1.328l0.348,-9.15c-12.256,-0.467 -24.529,-0.907 -36.812,-1.328l-0.311,9.15Zm-73.715,-2.29c12.274,0.348 24.547,0.706 36.821,1.09l0.284,-9.159c-12.283,-0.385 -24.574,-0.742 -36.848,-1.081l-0.257,9.15Zm-73.43,-1.859c12.191,0.284 24.419,0.577 36.683,0.888l0.229,-9.159c-12.264,-0.311 -24.501,-0.604 -36.71,-0.879l-0.202,9.15Zm-73.604,-1.521c12.209,0.229 24.483,0.468 36.802,0.724l0.192,-9.15c-12.328,-0.257 -24.602,-0.504 -36.82,-0.733l-0.174,9.159Zm-73.614,-1.273c12.182,0.193 24.456,0.394 36.812,0.614l0.155,-9.159c-12.356,-0.211 -24.629,-0.422 -36.82,-0.614l-0.147,9.159Zm-73.622,-1.108c12.145,0.174 24.427,0.357 36.82,0.54l0.137,-9.159c-12.401,-0.183 -24.675,-0.366 -36.829,-0.54l-0.128,9.159Zm-73.642,-1.044c12.1,0.174 24.383,0.348 36.821,0.522l0.128,-9.159c-12.438,-0.174 -24.712,-0.348 -36.82,-0.513l-0.129,9.15Zm-73.659,-1.09c12.045,0.192 24.327,0.376 36.83,0.559l0.137,-9.16c-12.502,-0.183 -24.785,-0.366 -36.82,-0.558l-0.147,9.159Zm-73.687,-1.346c11.944,0.256 24.236,0.494 36.848,0.714l0.165,-9.15c-12.603,-0.229 -24.886,-0.467 -36.82,-0.724l-0.193,9.16Zm-73.732,-1.924c11.76,0.385 24.07,0.742 36.875,1.072l0.238,-9.16c-12.795,-0.329 -25.078,-0.677 -36.811,-1.062l-0.302,9.15Zm-73.815,-3.306c11.311,0.705 23.649,1.346 36.93,1.923l0.394,-9.15c-13.235,-0.577 -25.518,-1.209 -36.747,-1.914l-0.577,9.141Zm-73.568,-7.282c9.461,1.108 18.877,2.216 28.247,3.37c2.648,0.321 5.432,0.632 8.344,0.944l0.953,-9.114c-2.858,-0.302 -5.587,-0.604 -8.188,-0.925c-9.389,-1.154 -18.832,-2.262 -28.294,-3.37l-1.071,9.095l0.009,-0Zm-73.128,-9.013c12.182,1.676 24.382,3.224 36.555,4.699l1.108,-9.095c-12.145,-1.475 -24.3,-3.005 -36.417,-4.681l-1.246,9.077Zm-1336.82,1.466c0.376,-2.299 0.559,-4.608 0.559,-6.925c-0,-10.551 -3.847,-21.075 -10.744,-30.968l-7.52,5.24c6.091,8.738 9.105,17.439 9.105,25.728c-0,1.823 -0.147,3.636 -0.44,5.432l9.04,1.493Zm1264.01,-13.804c12.026,2.528 24.153,4.782 36.326,6.815l1.511,-9.031c-12.072,-2.024 -24.061,-4.25 -35.95,-6.75l-1.887,8.966Zm-71.433,-19.463c11.641,4.048 23.475,7.639 35.437,10.872l2.381,-8.848c-11.778,-3.178 -23.392,-6.714 -34.814,-10.68l-3.004,8.656Zm-67.734,-30.455c10.808,6.192 21.882,11.77 33.185,16.817l3.737,-8.363c-11.047,-4.927 -21.845,-10.377 -32.36,-16.404l-4.562,7.95Zm-1162.59,-0.604c-9.499,-6.586 -20.563,-12.659 -33.047,-17.998l-3.609,8.408c11.98,5.138 22.514,10.936 31.426,17.128l5.23,-7.538Zm1102.57,-43.434c1.099,1.035 2.198,2.052 3.316,3.059c8.225,7.438 16.716,14.316 25.445,20.71l5.404,-7.401c-8.473,-6.201 -16.716,-12.887 -24.712,-20.105c-1.063,-0.962 -2.116,-1.933 -3.169,-2.922l-6.284,6.659Zm-1171,13.299c-11.44,-3.059 -23.649,-5.578 -36.536,-7.455l-1.319,9.058c12.548,1.841 24.4,4.287 35.492,7.255l2.363,-8.858Zm-72.587,-10.881c-6.064,-0.284 -12.247,-0.43 -18.53,-0.43l0,9.159c6.146,-0 12.182,0.147 18.108,0.421l0.422,-9.15Zm1200.72,-63.923c4.552,11.733 10.744,22.853 18.089,33.194l7.465,-5.295c-6.952,-9.8 -12.768,-20.269 -17.009,-31.215l-8.545,3.316Zm-4.937,-74.969c-2.336,9.196 -3.573,18.987 -3.573,29.383c0,2.775 0.083,5.606 0.266,8.472l9.141,-0.577c-0.165,-2.683 -0.247,-5.312 -0.247,-7.895c-0,-9.663 1.154,-18.685 3.288,-27.139l-8.875,-2.244Zm40.511,-63.163c-9.644,8.436 -18.162,17.852 -25.078,28.367l7.648,5.037c6.403,-9.727 14.344,-18.538 23.466,-26.516l-6.036,-6.888Zm64.006,-38.533c-11.523,4.919 -22.77,10.451 -33.404,16.707l4.644,7.895c10.231,-6.018 21.13,-11.385 32.359,-16.175l-3.599,-8.427Zm70.563,-23.109c-11.577,2.913 -23.594,6.265 -35.675,10.167l2.812,8.71c11.852,-3.828 23.677,-7.126 35.098,-9.992l-2.235,-8.876l0,-0.009Zm72.084,-15.69c-12.035,2.409 -24.052,4.9 -36.06,7.483l1.923,8.958c11.962,-2.574 23.943,-5.065 35.932,-7.465l-1.795,-8.976Zm72.405,-13.437c-12.09,2.08 -24.181,4.232 -36.253,6.467l1.676,9.003c12.027,-2.225 24.071,-4.378 36.125,-6.438l-1.548,-9.032Zm72.743,-11.504c-12.145,1.759 -24.281,3.6 -36.408,5.523l1.429,9.041c12.09,-1.906 24.189,-3.738 36.298,-5.505l-1.319,-9.059Zm73,-9.736c-12.191,1.484 -24.364,3.041 -36.527,4.653l1.209,9.086c12.127,-1.621 24.272,-3.16 36.417,-4.644l-1.099,-9.095Zm73.192,-8.097c-12.209,1.218 -24.419,2.51 -36.619,3.856l1.008,9.104c12.163,-1.346 24.345,-2.628 36.527,-3.846l-0.916,-9.114Zm73.339,-6.65c-12.237,0.999 -24.465,2.052 -36.683,3.151l0.824,9.123c12.191,-1.099 24.392,-2.144 36.592,-3.142l-0.733,-9.132Zm73.43,-5.33c-12.246,0.787 -24.492,1.63 -36.728,2.509l0.668,9.141c12.209,-0.888 24.428,-1.722 36.647,-2.51l-0.587,-9.14Zm73.495,-4.205c-12.255,0.614 -24.502,1.274 -36.757,1.97l0.532,9.141c12.218,-0.696 24.455,-1.347 36.683,-1.96l-0.458,-9.151Zm882.639,-1.163c-12.292,-0.027 -24.557,-0.11 -36.748,-0.229l-0.091,9.16c12.218,0.119 24.492,0.201 36.82,0.229l0.019,-9.16Zm73.513,-0.449c-12.237,0.193 -24.492,0.312 -36.748,0.394l0.055,9.15c12.283,-0.073 24.575,-0.192 36.821,-0.384l-0.128,-9.16Zm-882.612,-1.602c-12.255,0.467 -24.52,0.961 -36.775,1.492l0.403,9.151c12.237,-0.531 24.474,-1.026 36.72,-1.493l-0.348,-9.15Zm735.595,1.337c-12.365,-0.202 -24.62,-0.44 -36.747,-0.696l-0.202,9.15c12.136,0.265 24.419,0.504 36.803,0.705l0.146,-9.159Zm220.447,-1.704c-12.155,0.476 -24.41,0.87 -36.72,1.2l0.238,9.159c12.356,-0.329 24.648,-0.732 36.839,-1.209l-0.357,-9.15Zm-293.951,0.119c-12.456,-0.33 -24.721,-0.678 -36.747,-1.044l-0.275,9.16c12.036,0.356 24.309,0.705 36.784,1.034l0.238,-9.15Zm-588.532,-2.152c-12.265,0.339 -24.52,0.705 -36.784,1.108l0.302,9.15c12.246,-0.394 24.492,-0.769 36.738,-1.108l-0.256,-9.15Zm955.822,-1.988c-12.054,0.87 -24.282,1.64 -36.647,2.308l0.495,9.141c12.42,-0.668 24.703,-1.438 36.802,-2.308l-0.65,-9.141Zm-440.793,1.942c-12.613,-0.412 -24.886,-0.833 -36.756,-1.237l-0.321,9.151c11.889,0.412 24.162,0.824 36.774,1.236l0.303,-9.15Zm-441.471,-1.704c-12.255,0.248 -24.519,0.513 -36.784,0.797l0.22,9.16c12.246,-0.294 24.501,-0.55 36.747,-0.797l-0.183,-9.16Zm73.559,-1.254c-12.255,0.173 -24.52,0.366 -36.775,0.577l0.156,9.159c12.246,-0.211 24.501,-0.403 36.747,-0.577l-0.128,-9.159Zm294.381,0.467c-12.915,-0.431 -25.207,-0.834 -36.784,-1.182l-0.275,9.15c11.559,0.348 23.842,0.751 36.757,1.191l0.302,-9.159Zm-220.832,-1.383c-12.255,0.137 -24.51,0.274 -36.774,0.43l0.109,9.15c12.256,-0.146 24.511,-0.284 36.766,-0.421l-0.101,-9.159Zm73.531,-0.742c-12.246,0.119 -24.501,0.238 -36.765,0.357l0.091,9.159c12.265,-0.119 24.511,-0.238 36.766,-0.357l-0.092,-9.159Zm73.687,-0.019c-11.211,-0.229 -21.369,-0.357 -30.336,-0.357c-2.271,0 -4.46,0 -6.576,0.019l0.073,9.159c2.089,-0.019 4.259,-0.028 6.503,-0.028c8.885,0 18.979,0.138 30.153,0.367l0.183,-9.16Zm660.983,-4.185c-11.879,1.419 -24.052,2.711 -36.472,3.874l0.852,9.113c12.493,-1.163 24.748,-2.463 36.71,-3.892l-1.09,-9.095Zm72.359,-11.23c-11.541,2.29 -23.585,4.378 -36.051,6.293l1.392,9.058c12.585,-1.932 24.748,-4.048 36.436,-6.365l-1.777,-8.986Zm70.353,-18.795c-10.698,3.866 -22.322,7.419 -34.76,10.68l2.327,8.857c12.649,-3.316 24.537,-6.943 35.547,-10.918l-3.114,-8.619Zm61.523,-35.199c-7.355,7.474 -16.945,14.371 -28.541,20.673l4.379,8.051c12.191,-6.632 22.523,-14.005 30.683,-22.294l-6.521,-6.43Zm16.817,-63.676c1.071,5.331 1.621,10.854 1.621,16.579c-0,4.964 -0.413,10.093 -1.292,15.387c-0.146,0.88 -0.311,1.759 -0.504,2.629l8.949,1.96c0.22,-1.026 0.421,-2.061 0.595,-3.105c0.953,-5.761 1.411,-11.385 1.411,-16.871c0,-6.32 -0.614,-12.448 -1.804,-18.374l-8.976,1.795Zm-37.581,-57.822c9.59,7.977 17.696,16.633 23.988,25.957l7.593,-5.129c-6.869,-10.158 -15.58,-19.427 -25.71,-27.863l-5.871,7.035Zm-62.32,-35.841c11.54,4.735 22.495,9.956 32.635,15.662l4.497,-7.977c-10.524,-5.926 -21.818,-11.303 -33.652,-16.157l-3.48,8.472Zm-69.492,-21.579c11.925,2.729 23.732,5.862 35.227,9.388l2.693,-8.747c-11.733,-3.609 -23.751,-6.787 -35.868,-9.572l-2.052,8.931Zm-72.029,-11.779c11.87,1.209 23.997,2.793 36.207,4.781l1.474,-9.031c-12.392,-2.025 -24.711,-3.637 -36.756,-4.864l-0.925,9.114Zm-54.544,-2.885c5.88,-0 11.935,0.119 18.145,0.348l0.338,-9.16c-6.32,-0.229 -12.492,-0.348 -18.483,-0.348l-0,9.16Z" style="fill:#ccc;fill-rule:nonzero;"/><path d="M3635.12,327.946l-55.543,-293.565c-3.315,-17.55 -24.382,-24.923 -37.919,-13.272l-226.474,194.883c-13.537,11.65 -9.388,33.578 7.475,39.476l282.006,98.683c16.853,5.899 33.77,-8.656 30.455,-26.205Z" style="fill:#f5f5f5;fill-rule:nonzero;"/><path d="M3592.33,323.486c-1.593,-0 -3.196,-0.266 -4.744,-0.807l-231.951,-81.17c-4.845,-1.694 -8.454,-5.889 -9.398,-10.927c-0.961,-5.046 0.871,-10.249 4.754,-13.601l186.283,-160.298c3.883,-3.343 9.287,-4.378 14.151,-2.683c4.845,1.694 8.445,5.88 9.397,10.927l45.687,241.476c0.952,5.038 -0.87,10.25 -4.763,13.602c-2.647,2.281 -6.008,3.481 -9.416,3.481Zm-224.247,-97.034l219.164,76.7l-43.159,-228.159l-176.005,151.459Zm125.226,20.453c-1.612,4.616 -6.668,7.052 -11.294,5.44c-4.607,-1.621 -7.043,-6.677 -5.44,-11.293c1.621,-4.617 6.677,-7.053 11.303,-5.432c4.607,1.612 7.043,6.668 5.431,11.285Zm-1.685,-22.001c-4.397,-1.53 -6.797,-6.256 -5.459,-10.708l22.999,-80.693c2.235,-7.447 10.24,-11.523 17.576,-8.958c7.346,2.574 11.056,10.744 8.161,17.961l-32.332,77.433c-1.731,4.314 -6.558,6.503 -10.945,4.965Z" style="fill:#ccc;fill-rule:nonzero;"/><path d="M531.007,690.949l-182.591,-90.897c-10.909,-5.432 -23.613,2.985 -22.861,15.158l12.584,203.575c0.751,12.164 14.399,18.951 24.557,12.228l170.006,-112.696c10.158,-6.732 9.223,-21.946 -1.695,-27.368Z" style="fill:#f5f5f5;fill-rule:nonzero;"/><path d="M510.93,712.372c-0.659,0.871 -1.456,1.631 -2.39,2.254l-139.836,92.683c-2.922,1.932 -6.686,2.171 -9.819,0.614c-3.141,-1.567 -5.22,-4.699 -5.431,-8.207l-10.35,-167.442c-0.22,-3.499 1.447,-6.86 4.378,-8.811c2.913,-1.942 6.677,-2.162 9.819,-0.605l150.185,74.759c3.142,1.557 5.221,4.698 5.441,8.197c0.137,2.382 -0.586,4.708 -1.997,6.558Zm-145.285,81.958l132.132,-87.572l-141.905,-70.646l9.773,158.218Zm62.787,-59.682c1.841,2.784 1.081,6.54 -1.704,8.381c-2.784,1.85 -6.53,1.08 -8.38,-1.695c-1.841,-2.784 -1.081,-6.54 1.703,-8.381c2.785,-1.85 6.531,-1.09 8.381,1.695Zm-12.658,-8.152c-2.647,1.75 -6.21,1.108 -8.079,-1.456l-34.411,-45.797c-3.124,-4.287 -2.043,-10.313 2.381,-13.254c4.433,-2.93 10.405,-1.575 13.144,2.977l28.769,49.525c1.64,2.72 0.843,6.247 -1.804,8.005Z" style="fill:#ccc;fill-rule:nonzero;"/><g><path d="M677.282,1086.27l-9.159,0c-0.01,5.862 -4.763,10.616 -10.634,10.625c-5.871,-0.009 -10.625,-4.763 -10.634,-10.625c0.009,-5.871 4.763,-10.624 10.634,-10.634c5.871,0.01 10.624,4.763 10.634,10.634l9.159,0c-0.009,-10.936 -8.857,-19.793 -19.793,-19.793c-10.927,0 -19.784,8.857 -19.794,19.793c0.01,10.928 8.867,19.785 19.794,19.785c10.936,-0 19.784,-8.857 19.793,-19.785Z" style="fill:#eee;fill-rule:nonzero;"/><path d="M2934.35,804.9l-9.16,-0c-0.009,5.871 -4.763,10.634 -10.634,10.634c-5.871,-0 -10.615,-4.763 -10.624,-10.634c0.009,-5.862 4.753,-10.625 10.624,-10.634c5.871,0.009 10.625,4.772 10.634,10.634l9.16,-0c-0,-10.936 -8.857,-19.784 -19.794,-19.793c-10.927,0.009 -19.784,8.857 -19.784,19.793c0,10.927 8.857,19.793 19.784,19.793c10.937,0 19.794,-8.866 19.794,-19.793Z" style="fill:#eee;fill-rule:nonzero;"/><path d="M1736.82,378.799l-9.159,-0c-0.009,5.862 -4.754,10.615 -10.625,10.625c-5.871,-0.01 -10.625,-4.763 -10.634,-10.625c0.009,-5.872 4.763,-10.625 10.634,-10.634c5.871,0.009 10.616,4.762 10.625,10.634l9.159,-0c0,-10.936 -8.857,-19.794 -19.784,-19.794c-10.936,0 -19.793,8.858 -19.793,19.794c-0,10.927 8.857,19.784 19.793,19.784c10.927,-0 19.784,-8.857 19.784,-19.784Z" style="fill:#eee;fill-rule:nonzero;"/><path d="M1718.58,1535.19l-9.16,-0c-0.009,5.871 -4.762,10.615 -10.634,10.625c-5.871,-0.01 -10.615,-4.754 -10.625,-10.625c0.01,-5.872 4.754,-10.625 10.625,-10.634c5.872,0.009 10.625,4.762 10.634,10.634l9.16,-0c-0,-10.937 -8.857,-19.794 -19.794,-19.794c-10.927,0 -19.784,8.857 -19.784,19.794c0,10.927 8.857,19.784 19.784,19.784c10.937,-0 19.794,-8.857 19.794,-19.784Z" style="fill:#eee;fill-rule:nonzero;"/><path d="M2048.59,652.452l-12.621,-0c-2.528,-0 -4.58,2.052 -4.58,4.58c0,2.537 2.052,4.579 4.58,4.579l12.621,0l0,12.631c0,2.528 2.052,4.58 4.58,4.58c2.528,-0 4.58,-2.052 4.58,-4.58l-0,-12.631l12.621,0c2.528,0 4.58,-2.042 4.58,-4.579c-0,-2.528 -2.052,-4.58 -4.58,-4.58l-12.621,-0l-0,-12.612c-0,-2.537 -2.052,-4.58 -4.58,-4.58c-2.528,0 -4.58,2.043 -4.58,4.58l0,12.612Z" style="fill:#eee;fill-rule:nonzero;"/><path d="M2666.01,212.932l-12.622,0c-2.528,0 -4.579,2.052 -4.579,4.58c-0,2.537 2.051,4.58 4.579,4.58l12.622,-0l-0,12.621c-0,2.537 2.051,4.58 4.579,4.58c2.528,-0 4.58,-2.043 4.58,-4.58l0,-12.621l12.622,-0c2.527,-0 4.579,-2.043 4.579,-4.58c0,-2.528 -2.052,-4.58 -4.579,-4.58l-12.622,0l0,-12.621c0,-2.528 -2.052,-4.58 -4.58,-4.58c-2.528,0 -4.579,2.052 -4.579,4.58l-0,12.621Z" style="fill:#eee;fill-rule:nonzero;"/><path d="M3621.23,1140.88l-12.622,0c-2.528,0 -4.579,2.052 -4.579,4.58c-0,2.528 2.051,4.58 4.579,4.58l12.622,-0l0,12.621c0,2.528 2.052,4.58 4.58,4.58c2.528,0 4.58,-2.052 4.58,-4.58l-0,-12.621l12.621,-0c2.528,-0 4.58,-2.052 4.58,-4.58c-0,-2.528 -2.052,-4.58 -4.58,-4.58l-12.621,0l-0,-12.621c-0,-2.528 -2.052,-4.58 -4.58,-4.58c-2.528,0 -4.58,2.052 -4.58,4.58l0,12.621Z" style="fill:#eee;fill-rule:nonzero;"/></g><path d="M2361.99,2111.68c0,-0 -64.033,27.313 -63.987,40.979c0.037,7.84 88.049,-3.38 93.352,-8.683c8.491,-8.491 -3.435,-31.115 -3.435,-31.115l-25.93,-1.181Z" style="fill-rule:nonzero;"/><path d="M2357.88,2073.49l4.103,39.366c0,0 2.125,6.366 11.083,7.072c8.958,0.705 14.847,-7.072 14.847,-7.072l-3.16,-49.268" style="fill:#fab188;fill-rule:nonzero;"/><path d="M2469.7,1170.61c23.292,93.837 14.646,141.502 -19.473,212.295c-20.673,238.023 -35.117,475.112 -62.924,707.192l-29.42,1.685c-66.827,-225.961 -128.313,-563.757 -120.473,-872.527l232.29,-48.645Z" style="fill:#ccc;fill-rule:nonzero;"/><path d="M2453.06,1203.69c7.346,18.822 9.883,39.852 9.883,60.305c0,2.775 -0.046,5.551 -0.137,8.298c-1.09,35.026 -15.434,67.092 -24.895,101.083c-12.594,45.393 -13.538,90.421 -16.954,136.501c-5.349,72.231 -10.836,144.461 -16.331,216.683c-8.976,117.789 -18.044,235.578 -27.167,353.348c-0.275,3.499 -0.54,6.998 -0.815,10.497l4.571,0.357c0.265,-3.499 0.54,-6.998 0.815,-10.497c9.122,-117.779 18.181,-235.559 27.157,-353.357c5.505,-72.222 10.982,-144.452 16.331,-216.692c3.417,-46.254 4.397,-90.943 16.808,-135.613c9.287,-33.55 23.878,-65.965 25.059,-102.163c0.092,-2.794 0.138,-5.615 0.138,-8.445c-0,-20.828 -2.574,-42.408 -10.194,-61.972l-4.269,1.667Z" style="fill:#aaa;fill-rule:nonzero;"/><path d="M2617.3,2120.84c0,0 -64.032,27.313 -63.987,40.979c0.037,7.841 88.049,-3.38 93.352,-8.683c8.491,-8.491 -3.435,-31.114 -3.435,-31.114l-25.93,-1.182Z" style="fill-rule:nonzero;"/><path d="M2613.2,2082.65l4.103,39.367c0,-0 2.125,6.366 11.083,7.071c8.958,0.705 14.847,-7.071 14.847,-7.071l-3.16,-49.268" style="fill:#fab188;fill-rule:nonzero;"/><path d="M2682.63,1162.66c29.447,92.097 23.979,140.23 -5.377,213.12c-4.882,238.875 -21.314,488.302 -33.706,721.718l-30.244,0c-81.628,-221.042 -169.072,-562.309 -181.676,-870.924l251.003,-63.914Z" style="fill:#ccc;fill-rule:nonzero;"/><path d="M2665.93,1201.71l0.403,0.998c1.841,4.836 9.444,26.828 9.444,60.928c-0.01,32.928 -7.081,77.158 -33.34,128.221l-0.22,0.422l-0.037,0.476c-6.668,106.102 -10.084,704.691 -10.084,704.728l4.579,0.027c0,-0.027 0.055,-9.351 0.156,-25.93c0.742,-116.003 4.103,-586.078 9.92,-678.532l-2.281,-0.147l2.033,1.045c26.608,-51.723 33.853,-96.723 33.853,-130.31c0,-39.752 -10.121,-63.511 -10.213,-63.722l-4.213,1.796Z" style="fill:#aaa;fill-rule:nonzero;"/><path d="M2581.66,1227.36c6.191,9.58 15.854,16.23 26.113,20.352c10.249,4.121 21.112,5.889 31.783,7.217c10.102,1.264 20.306,2.162 30.546,2.162c2.638,-0 5.276,-0.064 7.914,-0.192l-0.22,-4.571c-2.565,0.128 -5.13,0.183 -7.694,0.183c-9.975,0 -19.986,-0.879 -29.978,-2.125c-10.552,-1.31 -21.021,-3.05 -30.648,-6.924c-9.617,-3.856 -18.465,-10.039 -23.97,-18.584l-3.846,2.482Z" style="fill:#aaa;fill-rule:nonzero;"/><path d="M2586.22,1242.77c11.302,10.249 25.582,16.45 40.145,19.812c14.573,3.361 29.484,4.03 44.194,4.195l0.055,-4.58c-14.609,-0.165 -29.191,-0.834 -43.214,-4.076c-14.014,-3.233 -27.56,-9.178 -38.103,-18.74l-3.077,3.389Z" style="fill:#aaa;fill-rule:nonzero;"/><path d="M2333.13,717.557c-101.833,177.196 -211.452,337.677 -276.447,531.451l-19.363,-10.295c4.946,-179.916 63.255,-441.498 139.827,-604.387" style="fill:#fab188;fill-rule:nonzero;"/><path d="M2283.37,532.511c-0,-0 -31.527,8.838 -68.558,33.477c-34.86,23.191 -61.248,57.685 -79.173,95.532c-17.916,37.837 -27.78,79.036 -34.091,120.427c-0,-0 42.636,21.313 91.483,27.414c48.847,6.109 100.826,-0 100.826,-0" style="fill:#333;fill-rule:nonzero;"/><path d="M2207.44,637.247c-10.836,191.641 -2.574,388.787 2.289,575.216c0,-0 66.827,17.778 229.194,17.778c161.754,-0 267.682,-49.305 267.682,-49.305c-31.343,-191.595 -56.266,-426.678 -133.021,-584.393c-0,0 -86.601,-93.415 -172.049,-97.253c-17.183,-0.77 -34.329,5.514 -50.706,13.125c-12.054,5.605 -67.458,19.152 -67.458,19.152l-75.931,105.68Z" style="fill:#333;fill-rule:nonzero;"/><path d="M2204.25,654.064c-4.268,37.178 -4.25,150.772 -4.259,150.836l4.58,-0c-0,-0.018 -0,-7.089 0.073,-18.337c0.192,-33.661 0.998,-104.627 4.158,-131.977l-4.552,-0.522Z" style="fill:#aaa;fill-rule:nonzero;"/><path d="M2370.54,1295.54c10.46,-1.163 20.618,-1.722 30.501,-1.722c56.87,0.073 104.91,18.154 147.639,48.022c63.969,44.716 114.72,117.038 154.325,190.679c19.84,36.784 36.958,73.806 51.906,107.705c14.966,33.908 27.725,64.637 39.129,89.276c31.783,68.713 81.866,121.846 142.345,162.129c90.824,60.461 204.83,93.05 321.941,111.121c117.13,18.007 237.612,21.295 341.432,21.305c61.725,-0.01 117.57,-1.173 162.973,-1.173c117.807,-0.036 211.095,14.573 273.149,35.035c30.995,10.148 54.123,21.9 68.017,32.708c6.961,5.367 11.541,10.432 14.005,14.343c2.5,3.975 2.949,6.421 2.968,8.17c-0.019,1.347 -0.238,2.638 -1.274,4.726c-1.502,3.06 -5.321,7.859 -12.804,13.181c-7.42,5.321 -18.282,11.055 -32.552,16.45c-11.825,4.479 -17.779,17.696 -13.3,29.52c4.479,11.825 17.696,17.788 29.521,13.309c22.66,-8.637 40.456,-18.484 53.829,-30.849c6.659,-6.191 12.219,-13.116 16.184,-20.956c3.976,-7.804 6.22,-16.579 6.192,-25.381c0.018,-11.843 -3.956,-23.136 -10.139,-32.781c-5.432,-8.5 -12.521,-16.029 -20.92,-23.008c-14.747,-12.164 -33.642,-22.761 -56.706,-32.342c-34.585,-14.307 -78.614,-26.168 -131.573,-34.595c-52.941,-8.417 -114.776,-13.326 -184.597,-13.326c-46.154,-0 -101.806,1.172 -162.973,1.172c-137.041,0.037 -301.863,-5.99 -445.262,-43.241c-71.699,-18.585 -137.903,-44.927 -192.703,-81.491c-54.846,-36.628 -98.289,-83.093 -126.197,-143.27c-14.408,-31.087 -32.324,-75.409 -54.8,-124.063c-33.817,-73.037 -77.873,-156.194 -138.792,-222.434c-30.482,-33.093 -65.315,-61.991 -105.396,-82.7c-40.045,-20.718 -85.411,-33.065 -135.567,-33.038c-11.605,0 -23.448,0.66 -35.548,1.997c-12.567,1.392 -21.625,12.713 -20.233,25.28c1.392,12.575 12.713,21.634 25.28,20.242Z" style="fill:#666;fill-rule:nonzero;"/><path d="M2461.5,1288.3c0,139.542 -105.616,223.753 -195.881,223.753l-148.061,0l0,-447.515l148.061,-0c90.265,-0 195.881,84.21 195.881,223.762Z" style="fill:#fbad2a;fill-rule:nonzero;"/><path d="M2385.2,1288.3c0,136.355 -80.739,246.89 -180.338,246.89l-163.366,-0l0,-493.78l163.366,0c99.599,0 180.338,110.535 180.338,246.89Z" style="fill:#ef8421;fill-rule:nonzero;"/><path d="M2385.2,1286.44c-0.128,-24.941 -2.968,-49.003 -8.124,-71.663c14.609,-20.572 29.392,-41.025 44.321,-61.368c14.381,21.012 25.738,45.403 32.635,72.909c-20.709,19.976 -43.708,43.525 -68.832,60.122Z" style="fill:#f79221;fill-rule:nonzero;"/><path d="M2332.78,1306.29c-0.889,-0 -1.768,-0.165 -2.638,-0.559c-5.221,-2.39 0.678,-8.811 0.687,-12.521c-3.453,3.362 -7.895,5.697 -12.631,6.613c19.262,-28.595 38.909,-56.934 58.877,-85.044c5.156,22.66 7.996,46.722 8.124,71.663c-8.894,5.871 -18.053,10.872 -27.478,14.535c0.256,-2.06 0.613,-4.808 2.29,-8.637c-3.746,3.701 -8.528,10.121 -13.648,11.321c-0.677,-0.211 -1.355,-0.293 -2.024,-0.293c-1.942,0 -3.893,0.724 -5.825,1.456c-1.933,0.733 -3.847,1.466 -5.734,1.466Z" style="fill:#ee7122;fill-rule:nonzero;"/><path d="M2233.51,1288.3c0,136.355 -80.739,246.89 -180.338,246.89c-99.598,-0 -180.338,-110.535 -180.338,-246.89c0,-136.355 80.74,-246.89 180.338,-246.89c99.599,0 180.338,110.535 180.338,246.89Z" style="fill:#ffc840;fill-rule:nonzero;"/><path d="M2068.24,1375.79c0,20.26 -13.84,36.692 -30.913,36.692c-17.072,0 -30.912,-16.432 -30.912,-36.692c-0,-20.261 13.84,-36.692 30.912,-36.692c17.073,-0 30.913,16.431 30.913,36.692Z" style="fill:#ef8421;fill-rule:nonzero;"/><path d="M2068.24,1200.81c0,20.26 -13.84,36.692 -30.913,36.692c-17.072,0 -30.912,-16.432 -30.912,-36.692c-0,-20.26 13.84,-36.692 30.912,-36.692c17.073,-0 30.913,16.432 30.913,36.692Z" style="fill:#ef8421;fill-rule:nonzero;"/><path d="M2622.93,778.686c0,-0 11.45,116.617 -40.694,213.595c-44.597,82.929 -133.177,190.267 -204.748,249.409l-17.192,-4.186c24.904,-95.586 103.528,-265.309 108.419,-328.939c4.891,-63.639 3.718,-137.362 4.891,-172.818" style="fill:#fab188;fill-rule:nonzero;"/><path d="M2401.53,499.29c0,-0 95.981,6.567 151.66,53.609c79.494,67.175 91.273,198.639 91.273,229.167c-24.025,25.966 -76.554,27.295 -114.831,27.295c-38.267,-0 -66.24,-18.319 -66.24,-18.319l-7.813,-145.02" style="fill:#333;fill-rule:nonzero;"/><path d="M2367.28,1223.3c-10.918,1.09 -21.497,6.384 -30.693,13.565c-8.408,6.577 -18.749,17.568 -17.668,22.596c1.136,5.294 14.921,-4.882 16.597,-2.83c1.676,2.052 -23.595,40.209 -18.832,43.067c4.754,2.867 26.251,-31.71 26.251,-31.71c-0,0 -20.874,36.931 -12.796,37.746c6.751,0.678 25.28,-34.283 25.28,-34.283c-0,-0 -15.672,31.251 -10.304,32.433c5.358,1.172 19.894,-29.951 19.894,-29.951c-0,-0 -11.825,26.599 -7.291,27.047c2.29,0.229 13.959,-12.997 18.831,-29.026c4.8,-15.763 10.405,-29.447 6.082,-41.748" style="fill:#fab188;fill-rule:nonzero;"/><path d="M2465.12,661.263l0,132.124l4.58,-0l-0,-132.124" style="fill:#aaa;fill-rule:nonzero;"/><path d="M2202.62,377.407c-0.504,5.724 -0.733,11.476 -0.687,17.219c0.092,12.457 1.694,25.509 8.866,35.685c4.928,6.998 12.347,12.2 20.599,14.453c5.844,1.594 13.492,0.916 16.011,-4.589c0.888,-1.951 0.934,-4.158 0.925,-6.301c-0.073,-21.305 -4.222,-42.582 -12.163,-62.348" style="fill-rule:nonzero;"/><path d="M2347.45,389.414c-8.225,-32.094 -34.128,-77.048 -76.27,-68.026c-26.461,5.67 -50.834,23.695 -58.619,48.938c-9.297,30.144 5.779,65.206 23.842,89.798c6.668,9.087 14.554,17.724 24.849,23.055c24.4,12.612 57.328,2.271 73.888,-18.74c16.56,-21.012 18.813,-49.617 12.31,-75.025Z" style="fill:#fab188;fill-rule:nonzero;"/><path d="M2288.34,473.341l13.776,50.322l-18.749,8.848c-0,-0 14.306,19.005 42.581,14.929c57.503,-8.298 75.583,-48.15 75.583,-48.15l-32.461,-3.389l-35.941,-61.258" style="fill:#fab188;fill-rule:nonzero;"/><path d="M2375.5,354.398c-4.03,-22.064 -19.747,-40.786 -38.909,-52.419c-34.036,-20.672 -82.479,-22.33 -112.778,6.146c-17.257,16.212 -48.307,73.696 -11.202,85.1c11.586,3.553 23.512,-3.49 33.596,-10.231c10.25,-6.851 20.508,-13.712 30.766,-20.572c3.682,-2.455 7.612,-5.001 12.026,-5.175c7.255,-0.293 13.272,5.999 15.874,12.768c2.592,6.778 2.784,14.215 4.469,21.268c1.191,4.992 3.389,10.112 7.703,12.878c4.324,2.766 11.147,1.951 13.336,-2.684c1.512,-3.224 0.44,-6.997 0.376,-10.56c-0.064,-3.563 1.942,-7.923 5.505,-7.767c1.264,0.054 2.427,0.714 3.434,1.492c8.958,6.971 6.046,20.948 9.022,31.902c0.394,1.438 -2.61,23.604 -1.612,24.721c28.596,-6.622 31.289,-71.058 28.394,-86.867Z" style="fill-rule:nonzero;"/><path d="M2333.21,385.961c-0.642,-4.048 3.224,-7.794 7.309,-8.234c4.085,-0.44 8.051,1.631 11.201,4.259c5.368,4.479 9.251,11.065 9.371,18.053c0.082,5.478 -2.098,10.79 -5.102,15.379c-2.043,3.123 -4.672,6.127 -8.225,7.245c-4.553,1.438 -9.654,-0.641 -12.915,-4.113" style="fill:#fab188;fill-rule:nonzero;"/><path d="M1313.26,2110.29c-0,-0 61.771,10.295 63.474,23.86c0.971,7.776 -86.574,17.045 -92.518,12.466c-9.508,-7.328 2.152,-34.742 2.152,-34.742l26.892,-1.584Z" style="fill-rule:nonzero;"/><path d="M1308.35,2072.41l5.065,39.037c-0,-0 -1.292,6.586 -10.085,8.436c-8.793,1.859 -15.635,-5.102 -15.635,-5.102l-7.263,-48.737" style="fill:#fab188;fill-rule:nonzero;"/><path d="M1077.46,1182.67c-11.037,96.054 -11.641,142.217 31.288,208.036c20.343,92.949 51.577,188.087 75.189,283.243c-10.166,113.631 61.075,294.638 99.397,423.912l27.698,-4.735c37.242,-232.665 50.999,-589.485 17.577,-901.828" style="fill:#ccc;fill-rule:nonzero;"/><path d="M1093.3,1313.5c-0,0.019 1.658,5.276 4.561,14.536c10.167,32.406 35.593,113.686 58.473,188.856c11.44,37.581 22.239,73.641 30.18,101.293c3.966,13.822 7.227,25.546 9.48,34.293c1.127,4.369 2.006,7.996 2.592,10.744c0.596,2.72 0.889,4.698 0.87,5.285c0,18.474 2.904,81.389 7.63,122.387c4.36,37.736 23.475,111.515 41.501,176.042c18.035,64.509 34.98,119.639 34.989,119.658l4.378,-1.347c-0.018,-0.037 -4.232,-13.766 -10.726,-35.602c-19.454,-65.444 -59.196,-203.63 -65.599,-259.283c-4.69,-40.667 -7.593,-103.701 -7.593,-121.855c-0.018,-1.612 -0.467,-3.957 -1.246,-7.52c-5.898,-26.296 -32.14,-113.374 -56.962,-194.068c-24.812,-80.657 -48.159,-154.793 -48.159,-154.793l-4.369,1.374Z" style="fill:#aaa;fill-rule:nonzero;"/><path d="M1282.47,2103.05l-4.295,-16.853l35.721,-1.328l0.476,15.561l-31.902,2.62Z" style="fill:#aaa;fill-rule:nonzero;"/><path d="M832.926,2112.2c0,0 48.325,34.915 44.048,47.207c-2.464,7.044 -81.07,-22.083 -84.202,-28.504c-5.01,-10.267 16.542,-28.732 16.542,-28.732l23.612,10.029Z" style="fill-rule:nonzero;"/><path d="M844.76,2077.82l-12.2,35.446c0,0 -3.884,5.075 -12.173,2.931c-8.28,-2.134 -11.174,-10.963 -11.174,-10.963l14.417,-44.652" style="fill:#fab188;fill-rule:nonzero;"/><path d="M869.875,1162.66c-29.447,92.097 -23.979,140.23 5.386,213.12c1.777,87.251 2.656,175.538 3.664,263.834c-62.165,155.59 -72.011,295.205 -64.143,443.367l29.978,11.11c0,0 178.488,-311.097 211.315,-434.079c37.654,-141.072 59.023,-291.908 64.812,-433.438" style="fill:#ccc;fill-rule:nonzero;"/><path d="M875.069,1181.92c-0.046,0.156 -11.963,35.035 -11.972,83.057c0,31.481 5.13,68.631 22.175,105.278l2.079,-0.962l-2.29,-0c0,21.579 10.204,173.129 10.204,241.641c-0,13.51 -0.422,23.842 -1.328,28.925c-1.273,7.392 -9.297,30.318 -19.363,60.168c-10.084,29.905 -22.257,67.019 -32.03,103.675c-10.863,40.814 -17.366,108.748 -21.213,166.635c-3.838,57.869 -4.974,105.589 -4.974,105.607l4.58,0.11c-0,-0.027 0.284,-11.898 1.044,-31.041c2.281,-57.365 8.93,-179.926 24.987,-240.13c9.727,-36.491 21.872,-73.513 31.947,-103.399c10.076,-29.942 18.035,-52.465 19.537,-60.828c1.008,-5.761 1.383,-16.083 1.393,-29.722c-0,-68.74 -10.213,-220.538 -10.204,-241.641l0,-0.504l-0.22,-0.458c-16.688,-35.895 -21.744,-72.368 -21.744,-103.354c-0,-23.631 2.94,-44.065 5.88,-58.565c1.466,-7.254 2.94,-13.024 4.04,-16.972c1.09,-3.947 1.813,-6.027 1.804,-6.036l-4.332,-1.484Z" style="fill:#aaa;fill-rule:nonzero;"/><path d="M809.213,2082.96l4.745,-20.013l38.368,17.833l-7.566,17.147l-35.547,-14.967Z" style="fill:#aaa;fill-rule:nonzero;"/><path d="M1369.11,451.386l-24.044,-20.526l0,-42.526c0,-6.595 -8.939,-46.182 -17.009,-46.182c-8.06,0 -9.892,-9.901 -13.931,-5.871c-4.03,4.039 3.307,48.755 0,52.053c-3.297,3.297 -7.566,-21.241 -10.625,-18.191c-3.05,3.05 -3.306,21.048 -3.306,30.254c-0,9.195 7.373,26.177 14.664,33.468c7.3,7.29 39.596,42.197 39.596,42.197l14.655,-24.676Z" style="fill:#f09467;fill-rule:nonzero;"/><path d="M1357.07,437.766l-20.105,22.881c0,-0 79.403,105.103 104.563,140.293c-22.944,-8.033 -55.872,-28.165 -74.914,-40.649c-37.352,-24.492 -74.804,-37.48 -100.707,-37.48c-55.001,-0 -26.214,181.3 37.59,207.834c121.041,18.2 256.709,6.687 277.482,-35.859c30.794,-63.052 -146.622,-211.589 -223.909,-257.02Z" style="fill:#333;fill-rule:nonzero;"/><path d="M1439.37,601.718c0.036,0.083 3.856,10.763 11.119,23.247c7.273,12.475 17.925,26.828 32.058,34.109l2.097,-4.076c-12.786,-6.521 -23.173,-20.214 -30.198,-32.332c-3.517,-6.054 -6.219,-11.706 -8.033,-15.818c-0.906,-2.061 -1.594,-3.747 -2.051,-4.901c-0.459,-1.154 -0.678,-1.776 -0.678,-1.776l-4.314,1.547Z" style="fill:#aaa;fill-rule:nonzero;"/><path d="M987.994,570.797c-144.287,162.046 -142.098,440.664 -142.098,630.042c0,0 105.928,72.313 267.681,72.313c162.368,0 229.194,-39.87 229.194,-39.87c4.864,-191.87 -29.355,-274.624 2.29,-592.004c0,-0 -51.631,-118.467 -79.155,-118.467c-27.523,-0 -135.191,-10.616 -135.191,-10.616l-142.721,58.602Z" style="fill:#333;fill-rule:nonzero;"/><path d="M1339.36,735.033c0,-0.01 0.202,-3.417 0.724,-8.784c0.769,-8.06 2.244,-20.471 4.753,-32.04c2.464,-11.55 6.22,-22.321 10.598,-26.58l-3.243,-3.233c-3.846,3.892 -6.585,10.121 -8.857,17.375c-6.723,21.708 -8.527,52.904 -8.545,52.996l4.57,0.266Z" style="fill:#aaa;fill-rule:nonzero;"/><path d="M1178.42,390.697c5.368,-32.699 28.66,-79.402 71.434,-74.118c26.864,3.316 47.665,21.873 62.695,43.59c12.897,18.63 8.033,36.454 -10.322,83.624c-5.844,9.636 -18.456,26.865 -28.247,33.075c-23.192,14.71 -56.907,7.309 -75.244,-12.164c-18.346,-19.473 -24.556,-48.123 -20.316,-74.007Z" style="fill:#fab188;fill-rule:nonzero;"/><path d="M1184.13,386.712c6.164,-0.925 0.046,-4.927 2.766,0.669c1.74,3.59 2.253,4.635 5.743,5.798c3.416,1.145 3.489,4.277 6.347,6.402c4.452,3.316 8.225,-1.191 10.103,-5.01c3.481,-7.089 3.371,-15.626 2.555,-23.292c-0.641,-6.027 -2.656,-15.562 3.252,-19.748c4.827,-3.425 15.498,1.539 20.471,2.977c7.676,2.226 15.269,4.708 22.908,7.035c18.428,5.605 37.883,10.533 57.273,7.922c16.935,-2.28 34.439,-11.101 42.554,-26.8c9.727,-18.822 -9.718,-43.415 -29.539,-43.443c-5.184,0 -10.112,2.098 -15.186,3.142c-1.878,0.385 -3.847,0.632 -5.688,0.083c-4.323,-1.274 -6.228,-6.128 -8.665,-9.92c-7.345,-11.422 -19.894,-14.93 -32.836,-13.51c-14.673,1.612 -27.203,8.656 -41.171,12.466c-7.401,2.024 -13.812,0.11 -21.204,0.348c-7.639,0.247 -15.452,5.248 -18.822,12.292c-5.99,-6.274 -19.354,9.095 -22.679,13.143c-14.618,17.797 -19.244,43.434 -19.647,65.92c-0.348,19.674 2.931,48.297 24.502,56.211c9.123,3.343 14.865,5.129 15.25,-3.233c-4.003,-8.674 -4.928,-25.876 -5.761,-33.102c-0.825,-7.227 1.31,-15.855 8.014,-18.676" style="fill-rule:nonzero;"/><path d="M1254.37,468.798l-4.699,49.415l16.239,4.598c0,-0 -8.582,22.184 -36.903,25.957c-57.594,7.676 -98.288,-36.573 -98.288,-36.573l19.225,-3.718l29.099,-91.749" style="fill:#fab188;fill-rule:nonzero;"/><path d="M1193.75,386.364c0.284,-4.103 -3.893,-7.492 -8.005,-7.565c-4.104,-0.073 -7.877,2.335 -10.781,5.23c-16.111,16.038 4.131,55.121 20.023,34.933" style="fill:#fab188;fill-rule:nonzero;"/><path d="M1302.32,442.932c-2.583,6.055 -12.796,8.473 -18.392,9.086c-27.094,2.995 -49.571,-14.517 -75.51,-17.723c-5.138,-0.632 -10.991,-1.053 -14.829,2.427c-3.627,3.298 -3.966,8.784 -4.057,13.694c-0.11,6.054 -0.22,12.136 0.32,18.172c0.467,5.22 1.475,10.524 4.177,15.021c11.705,19.5 50.788,22.788 70.6,21.579c8.005,-0.485 16.313,-2.024 22.596,-6.768c8.921,-6.723 10.854,-18.484 14.188,-28.825c4.103,-12.75 0.907,-26.663 0.907,-26.663Z" style="fill-rule:nonzero;"/><path d="M1283.09,464.219c-0.852,-0.568 -1.85,-1.044 -2.876,-1.044c-12.649,-0 -19.665,-3.032 -29.539,-3.802c-1.685,-0.128 -3.416,-0.238 -5.019,0.248c-3.517,1.071 -5.532,4.717 -6.247,8.234c-0.723,3.554 1.063,6.301 4.296,7.904c5.862,2.913 12.484,3.957 18.969,4.14c5.688,0.165 13.089,0.651 17.769,-3.178c2.684,-2.198 6.622,-9.645 2.647,-12.502Z" style="fill:#fab188;fill-rule:nonzero;"/><path d="M1165.15,1156.58c-14.967,-0.779 -29.667,-1.173 -44.112,-1.173c-74.41,-0.009 -141.951,10.378 -203.3,30.748c-92.07,30.51 -169.878,83.597 -235.88,155.764c-66.057,72.184 -120.592,163.256 -167.9,270.786c-80.822,183.59 -175.832,282.611 -262.671,336.486c-86.913,53.802 -166.554,62.989 -219.073,63.044c-3.05,0 -6.009,-0.027 -8.876,-0.092c-12.649,-0.247 -23.09,9.81 -23.338,22.45c-0.247,12.649 9.801,23.1 22.441,23.347c3.141,0.055 6.402,0.092 9.773,0.092c57.923,0.055 147.456,-10.524 243.189,-69.913c95.807,-59.316 196.935,-166.893 280.477,-356.976c61.23,-139.259 133.736,-246.78 224.55,-319.084c45.44,-36.197 95.505,-63.767 151.734,-82.443c56.22,-18.657 118.696,-28.403 188.874,-28.412c13.611,-0 27.515,0.366 41.721,1.108c12.631,0.66 23.402,-9.04 24.062,-21.671c0.659,-12.631 -9.041,-23.402 -21.671,-24.061Z" style="fill:#666;fill-rule:nonzero;"/><path d="M1043.01,1205.12c11.605,139.066 123.852,214.2 213.806,206.698l147.548,-12.31l-37.205,-445.958l-147.539,12.301c-89.953,7.51 -188.206,100.203 -176.61,239.269Z" style="fill:#fbad2a;fill-rule:nonzero;"/><path d="M1119.06,1198.78c11.33,135.878 100.981,239.315 200.232,231.035l162.798,-13.575l-41.043,-492.066l-162.798,13.574c-99.251,8.28 -170.528,125.144 -159.189,261.032Z" style="fill:#ef8421;fill-rule:nonzero;"/><path d="M1270.23,1186.17c11.331,135.879 100.982,239.315 200.233,231.044c99.25,-8.28 170.519,-125.144 159.189,-261.022c-11.339,-135.888 -100.982,-239.324 -200.232,-231.044c-99.251,8.27 -170.529,125.144 -159.19,261.022Z" style="fill:#ffc840;fill-rule:nonzero;"/><path d="M1442.19,1259.62c1.685,20.187 16.844,35.41 33.862,33.99c17.018,-1.42 29.447,-18.941 27.762,-39.128c-1.685,-20.197 -16.844,-35.41 -33.862,-33.991c-17.018,1.411 -29.438,18.933 -27.762,39.129Z" style="fill:#fbad2a;fill-rule:nonzero;"/><path d="M1427.64,1085.24c1.685,20.196 16.853,35.41 33.862,33.99c17.018,-1.42 29.447,-18.942 27.762,-39.129c-1.686,-20.196 -16.844,-35.41 -33.862,-33.99c-17.018,1.42 -29.438,18.932 -27.762,39.129Z" style="fill:#fbad2a;fill-rule:nonzero;"/><path d="M1463.57,1108.09c18.529,-1.539 230.11,-19.189 230.11,-19.189c14.032,-1.172 24.455,-13.61 23.273,-27.798c-1.181,-14.179 -13.519,-24.721 -27.551,-23.549c0,0 -212.505,17.723 -230.119,19.189c-17.604,1.475 -14.243,52.895 4.287,51.347Z" style="fill:#e2e9ef;fill-rule:nonzero;"/><path d="M1478.11,1282.47c18.529,-1.548 230.109,-19.188 230.109,-19.188c14.033,-1.173 24.456,-13.62 23.274,-27.799c-1.181,-14.179 -13.519,-24.721 -27.551,-23.549c0,0 -212.506,17.724 -230.11,19.189c-17.613,1.475 -14.252,52.895 4.278,51.347Z" style="fill:#e2e9ef;fill-rule:nonzero;"/><path d="M911.138,778.686c0,-0 -11.449,116.617 40.695,213.595c44.587,82.929 133.177,190.267 204.748,249.409l17.192,-4.186c-24.905,-95.586 -103.537,-265.309 -108.429,-328.939c-4.891,-63.639 -3.709,-137.362 -4.891,-172.818" style="fill:#fab188;fill-rule:nonzero;"/><path d="M1130.71,512.195c-0,0 -101.138,5.835 -159.3,49.772c-100.551,75.968 -80.821,279.955 -51.548,379.7c29.273,99.745 170.089,249.39 215.583,281.631c7.456,0 29.356,-1.85 28.577,-19.005c-25.161,-77.763 -96.878,-282.318 -96.878,-282.318l11.33,-275.953" style="fill:#333;fill-rule:nonzero;"/><path d="M1166.79,1223.3c10.909,1.09 21.497,6.384 30.693,13.565c8.408,6.577 18.749,17.568 17.668,22.596c-1.145,5.294 -14.92,-4.882 -16.596,-2.83c-1.676,2.052 23.585,40.209 18.831,43.067c-4.763,2.867 -26.25,-31.71 -26.25,-31.71c-0,0 20.874,36.931 12.795,37.746c-6.759,0.678 -25.279,-34.283 -25.279,-34.283c-0,-0 15.662,31.251 10.304,32.433c-5.368,1.172 -19.894,-29.951 -19.894,-29.951c-0,-0 11.824,26.599 7.281,27.047c-2.28,0.229 -13.949,-12.997 -18.831,-29.026c-4.8,-15.763 -10.405,-29.447 -6.073,-41.748" style="fill:#fab188;fill-rule:nonzero;"/><path d="M1097.65,1002.49c-16.112,-46.41 -28.349,-81.28 -28.349,-81.28l-2.152,0.761l2.271,0.201l21.259,-231.603l-4.561,-0.421l-21.286,232.106l0.164,0.468c0,0.027 3.051,8.719 8.125,23.237c5.065,14.517 12.154,34.833 20.214,58.033l4.315,-1.502Z" style="fill:#aaa;fill-rule:nonzero;"/><path d="M894.486,746.601c-0.018,2.244 -0.027,4.515 -0.027,6.796c0.009,61.725 7.593,135.668 23.21,188.92c14.288,48.591 54.351,108.236 97.153,160.847l3.553,-2.885c-42.618,-52.336 -82.424,-111.835 -96.319,-159.253c-15.424,-52.556 -23.027,-126.28 -23.017,-187.629c-0,-2.262 0.009,-4.525 0.027,-6.76l-4.58,-0.036Z" style="fill:#aaa;fill-rule:nonzero;"/><path d="M3059.79,405.498l16.248,-11.119c0,-0 7.538,-35.374 11.697,-41.721c4.406,-6.732 12.777,-20.627 22.257,-27.038c3.966,-2.675 22.065,-12.915 26.635,-8.345c2.244,2.244 -5.385,22.734 -8.893,26.233c-3.499,3.508 -13.803,19.198 -12.201,24.107c1.612,4.91 10.176,-5.834 12.201,-7.868c2.033,-2.024 4.762,-4.543 5.715,-1.923c1.585,4.369 -7.556,29.017 -14.719,36.17c-7.154,7.154 -18.74,13.913 -26.819,13.913l-25.243,22.303" style="fill:#fab188;fill-rule:nonzero;"/><path d="M3255.65,289.01c26.892,15.846 43.534,45.687 49.982,75.564c1.154,5.377 2.134,11.138 5.844,15.186c2.949,3.225 7.19,4.864 11.147,6.705c22.284,10.323 39.358,30.547 47.189,53.674c3.352,9.883 0.733,23.841 4.625,32.268c4.772,10.341 22.33,12.686 31.774,15.818c28.265,9.361 49.039,37.828 49.35,67.596c0.303,29.768 -19.894,58.647 -47.949,68.594c7.538,10.57 8.619,24.831 5.121,37.343c-3.499,12.512 -11.102,23.503 -19.712,33.239c-35.583,40.255 -90.448,61.771 -144.131,59.453c-15.461,-0.659 -30.977,-3.215 -45.311,-9.067c-16.23,-6.632 -30.482,-17.275 -44.166,-28.239c-16.496,-13.216 -32.965,-27.688 -41.858,-46.859c-8.894,-19.179 -8.308,-44.276 6.768,-59.105c-17.412,3.627 -35.996,-5.825 -45.796,-20.673c-9.792,-14.838 -11.569,-33.999 -7.639,-51.347c3.92,-17.338 13.079,-33.092 23.722,-47.335c7.484,-10.002 16.075,-20.132 17.66,-32.525c2.647,-20.673 -8.894,-39.138 -11.898,-59.7c-4.662,-31.994 -3.215,-59.49 24.18,-76.499c8.784,-22.788 19.427,-40.365 44.652,-47.079c29.914,-7.951 59.673,-2.794 86.446,12.988Z" style="fill-rule:nonzero;"/><path d="M3189.77,532.107c-91.365,-23.924 -195.955,13.859 -219.256,13.749c31.92,-31.911 90.512,-102.97 110.754,-127.526c0,-16.871 -10.24,-21.579 -10.24,-21.579c0,0 -250.608,129.586 -225.429,214.209c26.296,88.333 271.821,44.982 291.44,70.353" style="fill:#333;fill-rule:nonzero;"/><path d="M3207.68,1354.56c-0.275,7.474 -32.992,168.366 -35.401,185.632c-7.007,50.275 19.555,100.716 16.973,178.662c-3.142,94.762 -43.452,349.456 -48.572,360.749c-5.12,11.303 -29.695,0.943 -29.695,0.943c0,0 -70.838,-341.67 -74.831,-481.487c-3.298,-115.161 13.436,-364.395 13.436,-364.395" style="fill:#fab188;fill-rule:nonzero;"/><path d="M3143.18,2083.97c0,-0 4.122,8.656 3.92,12.557c-0.521,10.616 -0.86,17.861 -0.86,17.861l-4.608,0.302l-1.603,-8.655c0,-0 -12.255,2.143 -24.72,10.341c-6.046,3.975 -36.409,3.618 -41.089,1.145c-5.239,-2.767 -3.737,-7.749 -1.988,-9.783c1.75,-2.033 34.604,-16.386 34.604,-16.386" style="fill-rule:nonzero;"/><path d="M3110.98,2080.55c-2.656,6.421 -28.614,20.563 -26.214,22.459c2.382,1.905 17.476,1.988 34.22,-3.581c15.25,-5.074 23.878,-10.762 24.372,-14.756l-2.921,-10.735" style="fill:#fab188;fill-rule:nonzero;"/><path d="M3435.05,1361.25c-0.045,7.483 -27.853,169.292 -29.74,186.63c-5.459,50.459 22.624,100.066 22.422,178.058c-0.265,94.808 -32.781,350.619 -37.553,362.068c-4.772,11.44 -29.649,1.841 -29.649,1.841c-0,0 -81.216,-339.353 -89.477,-478.978c-6.806,-115.005 2.326,-364.633 2.326,-364.633" style="fill:#fab188;fill-rule:nonzero;"/><path d="M3392.82,2092.29c0,-0 4.369,8.518 4.296,12.429c-0.211,10.634 -0.33,17.879 -0.33,17.879l-4.589,0.449l-1.859,-8.61c-0,-0 -12.182,2.519 -24.401,11.092c-5.917,4.158 -36.28,4.726 -41.033,2.4c-5.322,-2.611 -3.967,-7.63 -2.281,-9.718c1.694,-2.089 34.091,-17.431 34.091,-17.431" style="fill:#26387a;fill-rule:nonzero;"/><path d="M3360.53,2089.84c-2.464,6.503 -27.972,21.424 -25.527,23.246c2.446,1.832 17.531,1.457 34.091,-4.616c15.095,-5.541 23.549,-11.486 23.906,-15.497l-3.243,-10.644" style="fill-rule:nonzero;"/><path d="M3352.42,947.447c0,-0 72.606,47.555 100.277,161.643c37.305,153.85 -17.651,455.091 -17.651,455.091c0,-0 -113.722,33.239 -237.41,32.195c-123.687,-1.053 -196.971,-42.838 -197.209,-50.331c-0.238,-7.483 -18.447,-235.541 6.686,-390.279c28.211,-173.66 100.075,-220.474 100.075,-220.474" style="fill:#ccc;fill-rule:nonzero;"/><path d="M3253.99,529.195c11.257,-4.186 40.456,6.045 95.129,26.993c24.015,25.984 34.54,82.928 39.724,133.332c-14.179,122.68 -30.015,189.662 -22.386,231.062c1.814,9.81 10.799,17.238 9.37,30.913c-2.967,28.293 -49.295,32.589 -137.234,42.573c-87.948,9.983 -167.112,-29.961 -162.358,-42.436c4.753,-12.484 19.747,-23.411 22.119,-31.673c2.382,-8.27 9.563,-113.365 0.055,-125.849c-9.507,-12.484 -34.026,-48.37 -34.026,-83.313c-0,-49.204 27.084,-71.278 44.816,-98.316c29.539,-45.055 51.97,-73.303 80.575,-80.374c45.778,-11.302 64.216,-2.912 64.216,-2.912Z" style="fill:#333;fill-rule:nonzero;"/><path d="M3103.73,591.726c-0,-0 0.092,0.641 0.201,1.887c0.11,1.254 0.211,3.068 0.211,5.294c0.009,7.483 -1.246,19.509 -7.685,30.005c-0.641,1.072 -2.518,3.399 -4.9,6.238c-7.19,8.674 -19.253,22.413 -22.541,33.019l4.378,1.328c1.731,-5.834 7.584,-14.151 13.437,-21.432c2.922,-3.655 5.834,-7.099 8.243,-9.975c2.418,-2.903 4.278,-5.156 5.294,-6.787c7.09,-11.614 8.345,-24.428 8.354,-32.396c-0,-4.745 -0.458,-7.786 -0.467,-7.868l-4.525,0.687Z" style="fill:#aaa;fill-rule:nonzero;"/><path d="M3232.95,469.32c24.006,-23.841 27.798,-69.088 16.89,-99.662c-12.292,-34.421 -61.331,-60.214 -95.102,-38.653c-66.295,42.326 0.971,215.025 78.212,138.315Z" style="fill:#fab188;fill-rule:nonzero;"/><path d="M3187.25,465.107l1.246,73.623c-0,-0 -2.757,16.367 26.031,17.393c39.458,1.402 39.458,-26.928 39.458,-26.928l-22.825,-75.858" style="fill:#fab188;fill-rule:nonzero;"/><path d="M3217.1,298.499c-8.115,-5.358 -16.807,-5.587 -25.179,-0.614c-5.138,3.05 -8.729,8.088 -14.188,10.515c-3.874,1.731 -8.481,2.015 -12.557,3.124c-19.134,5.184 -37.269,19.793 -45.339,38.029c-8.106,18.337 -5.514,48.16 9.663,61.258c-0.659,-14.188 3.6,-34.577 11.165,-46.585c3.967,-6.292 10.231,-12.502 17.623,-11.669c8.308,0.935 12.823,9.819 18.813,15.654c9.077,8.829 22.111,10.624 34.101,12.411c13.564,2.024 24.034,4.414 30.72,17.732c2.903,5.789 4.488,12.145 6.045,18.429c1.85,7.464 3.701,14.984 4.14,22.669c0.275,4.781 0.009,9.681 1.511,14.233c2.986,9.077 12.228,14.564 21.287,17.623c6.952,2.345 18.676,4.525 23.044,-3.361c3.646,-6.595 6.797,-15.865 8.043,-23.265c4.167,-24.73 -3.673,-50.349 -17.009,-71.59c-14.637,-23.301 -35.484,-38.908 -54.288,-58.299c-5.761,-5.935 -11.44,-12.227 -17.595,-16.294Z" style="fill-rule:nonzero;"/><path d="M3235.58,411.818c1.456,-5.624 5.605,-11.348 11.394,-12.228c18.74,-2.839 15.901,25.152 8.655,34.989c-4.213,5.734 -15.122,13.226 -20.049,-2.684" style="fill:#fab188;fill-rule:nonzero;"/><path d="M3434.45,985.036l-8.811,18.86c0,-0 -33.276,7.913 -36.802,13.775c-5.578,9.269 -13.941,22.074 -13.941,29.356c-0,7.282 0.696,39.238 9.819,39.238c5.725,0 19.134,-26.067 21.891,-29.712c6.521,-8.61 32.845,-14.857 32.845,-37.535l16.111,-33.982" style="fill:#fab188;fill-rule:nonzero;"/><path d="M3253.99,528.224c-0,0 77.662,-19.766 138.342,18.53c47.162,29.758 168.504,177.819 168.523,262.625c0.018,57.163 -113.493,198.776 -113.493,198.776l-18.85,-13.474c-0,0 10.982,-111.286 43.964,-172.626c-24.327,-24.327 -119.19,-99.901 -143.022,-123.724" style="fill:#333;fill-rule:nonzero;"/><path d="M3315.59,692.213c17.063,15.149 61.724,51.09 61.743,51.109l2.866,-3.572c-0.027,-0.019 -11.165,-8.986 -24.446,-19.858c-13.281,-10.863 -28.696,-23.622 -37.123,-31.105l-3.04,3.426Z" style="fill:#aaa;fill-rule:nonzero;"/></g></g></svg>