<svg width="50" height="50" viewBox="0 0 50 50" fill="none" xmlns="http://www.w3.org/2000/svg">
<rect x="1" y="1" width="48" height="48" rx="24" stroke="#333333" stroke-width="2"/>
<path d="M17.5 24C16.9477 24 16.5 24.4477 16.5 25C16.5 25.5523 16.9477 26 17.5 26V25V24ZM33.2071 25.7071C33.5976 25.3166 33.5976 24.6834 33.2071 24.2929L26.8431 17.9289C26.4526 17.5384 25.8195 17.5384 25.4289 17.9289C25.0384 18.3195 25.0384 18.9526 25.4289 19.3431L31.0858 25L25.4289 30.6569C25.0384 31.0474 25.0384 31.6805 25.4289 32.0711C25.8195 32.4616 26.4526 32.4616 26.8431 32.0711L33.2071 25.7071ZM17.5 25V26H32.5V25V24H17.5V25Z" fill="#333333"/>
</svg>
