<?xml version="1.0" encoding="UTF-8"?>
<svg xmlns="http://www.w3.org/2000/svg" width="70" height="43" viewBox="0 0 70 43" fill="none">
  <path d="M66.9105 17.4357C66.945 17.3632 66.899 17.3225 66.7727 17.3144L65.877 16.4822C65.862 16.4679 65.8418 16.4599 65.8212 16.4599C65.7926 16.4599 65.7663 16.475 65.7515 16.4996C65.7269 16.5392 65.7104 16.5615 65.7023 16.5664C65.6883 16.5751 65.6723 16.5796 65.6561 16.5796C65.6073 16.5796 65.5675 16.5394 65.5675 16.4904C65.5675 16.481 65.5689 16.4713 65.5719 16.4624C65.6179 16.3022 65.5726 16.1585 65.4365 16.0315C65.4255 16.022 65.4112 16.0169 65.3967 16.0169C65.363 16.0169 65.3352 16.0446 65.3352 16.0788C65.3352 16.081 65.3354 16.0835 65.3357 16.086L65.3726 16.3212C65.3381 16.3361 65.3061 16.3591 65.2766 16.3906L64.5531 15.4247C64.547 15.4165 64.5376 15.4118 64.5275 15.4118C64.5101 15.4118 64.4956 15.4264 64.4956 15.444C64.4956 15.4467 64.4958 15.4494 64.4965 15.4519L64.5285 15.6104C64.529 15.6131 64.5293 15.6159 64.5293 15.6186C64.5293 15.6404 64.5116 15.6582 64.4899 15.6582C64.4847 15.6582 64.4793 15.6572 64.4744 15.655L64.1151 15.4891C64.0908 15.4777 64.0681 15.4616 64.0487 15.442C63.6993 15.102 63.2728 14.8345 62.7691 14.6396C62.7465 14.6311 62.7219 14.6398 62.7125 14.6594V14.6619C62.7 14.6847 62.7066 14.7131 62.7273 14.7263C64.0905 15.6451 65.0478 17.1955 65.8623 18.6245C66.0658 18.9812 66.1691 19.3675 66.1723 19.7836C66.1804 20.7428 66.2346 21.7385 66.3347 22.7705C66.335 22.7725 66.335 22.7745 66.335 22.7764C66.335 22.8104 66.3072 22.8384 66.2734 22.8384C66.2611 22.8384 66.2491 22.8344 66.2387 22.8275C65.8598 22.5476 65.5768 22.0746 65.0699 21.4678C64.0438 20.2468 63.3179 18.8004 62.8626 17.3392C62.8614 17.3265 62.8505 17.3169 62.838 17.3169C62.8245 17.3169 62.8134 17.328 62.8134 17.3416C62.8134 17.3424 62.8134 17.3434 62.8134 17.3441C62.6493 18.3694 62.6781 19.2999 62.8995 20.1353C62.9049 20.1591 62.8948 20.1829 62.8749 20.1923C62.8454 20.2089 62.8299 20.2361 62.8282 20.274C62.8282 20.2807 62.8289 20.2881 62.8306 20.2963C63.1094 21.2771 63.0774 22.2338 62.7347 23.1668C62.7233 23.1977 62.7192 23.2307 62.7224 23.2634L62.8503 24.5339C62.8503 24.5346 62.8503 24.5356 62.8503 24.5364C62.8503 24.5505 62.8397 24.5624 62.8257 24.5636L62.7568 24.5711C62.7167 24.5755 62.6793 24.5475 62.6707 24.5067C62.5853 24.0262 62.5065 23.7381 62.4344 23.6423C62.4219 23.6264 62.4027 23.6173 62.3825 23.6173C62.3478 23.6173 62.3188 23.6445 62.3163 23.6794C62.29 24.4224 62.2802 24.8385 62.2868 24.9277C62.2949 25.0235 62.2418 25.0894 62.1268 25.1258C62.0538 25.1499 62.0014 25.214 61.994 25.2893C61.9726 25.4973 61.9342 25.6442 61.8783 25.7301C61.866 25.7482 61.8453 25.7589 61.8237 25.7589C61.7902 25.7589 61.7619 25.7336 61.7577 25.7004L61.7307 25.4354C61.7262 25.4025 61.6979 25.3775 61.6647 25.3775C61.6374 25.3775 61.6126 25.3945 61.6027 25.4206L61.0933 26.7976C61.0901 26.8028 61.0845 26.806 61.0786 26.806C61.0697 26.806 61.0621 26.7991 61.0614 26.7901L61.1081 26.228C61.1084 26.2247 61.1086 26.2213 61.1086 26.218C61.1086 26.1571 61.0601 26.1066 60.9998 26.1041C60.9622 26.1024 60.9359 26.0925 60.9211 26.0744C60.8773 26.0268 60.863 25.9582 60.8842 25.8961C61.0842 25.3215 61.1352 24.8517 61.0367 24.4868C60.9186 24.0527 60.8849 23.7537 60.9359 23.5903C61.0392 23.2485 60.8226 22.716 60.8202 22.3841C60.8121 21.3853 60.757 20.4548 60.6553 19.5929C60.5749 18.9274 60.4001 18.3273 60.1312 17.7924C60.1231 17.7753 60.1058 17.7644 60.0869 17.7644C60.0598 17.7644 60.0377 17.7867 60.0377 17.8139C60.0377 17.8142 60.0377 17.8144 60.0377 17.8147V27.4168C60.0374 27.5099 60.1041 27.5906 60.1952 27.6074L64.9247 28.5015C64.9542 28.509 64.9754 28.5357 64.9754 28.5664C64.9754 28.5999 64.9503 28.6286 64.9173 28.6328L60.2247 29.1157C60.1455 29.1239 60.0827 29.1878 60.0771 29.2668L59.1838 40.2286C59.1836 40.2306 59.1835 40.2323 59.1835 40.2343C59.1799 40.3197 59.2456 40.3933 59.3292 40.3968C59.3314 40.397 59.3339 40.397 59.3364 40.397H67.9465C68.0289 40.397 68.0966 40.4651 68.0966 40.5481V42.8613C68.0966 42.9373 68.0343 43 67.9588 43H1.94694C1.88616 43 1.83621 42.9497 1.83621 42.8885V40.5134C1.83621 40.4495 1.88838 40.397 1.95186 40.397H8.73367C8.8006 40.3963 8.85547 40.3405 8.85547 40.2732C8.85547 40.2675 8.85499 40.2615 8.85425 40.2558C8.26121 35.6591 7.78628 31.159 7.70262 26.6267C7.67973 25.3636 7.64528 24.0633 7.59927 22.7259C7.59755 22.7358 7.59509 22.744 7.59189 22.7507C7.27519 23.6225 7.1145 24.5109 7.10958 25.4156C7.10786 25.4944 7.11696 25.5736 7.13665 25.6509C7.31874 26.3988 7.38026 27.1673 7.3212 27.9567C7.28675 28.395 7.48607 28.9399 7.31136 29.3981C7.30348 29.4179 7.28454 29.431 7.26338 29.431C7.23926 29.431 7.21834 29.4142 7.21293 29.3907C7.17848 29.247 7.03994 29.0662 6.79706 28.8483C6.73505 28.7923 6.70306 28.7096 6.71094 28.6254C6.71586 28.5791 6.70356 28.5295 6.67403 28.4768C6.65852 28.4478 6.62851 28.4297 6.59602 28.4297C6.55764 28.4297 6.52343 28.455 6.51162 28.4916C6.5035 28.5196 6.50006 28.5461 6.50178 28.5709C6.50227 28.5743 6.50202 28.5778 6.50153 28.581C6.49784 28.6011 6.47742 28.6145 6.45601 28.6105C6.4533 28.61 6.45035 28.6093 6.44764 28.608C6.41491 28.5932 6.3935 28.579 6.38366 28.5659C6.36225 28.5345 6.35167 28.5171 6.35167 28.5139C6.36643 28.3274 6.36225 28.1332 6.33937 27.9319C6.32977 27.8566 6.29606 27.7875 6.2434 27.7362C6.03177 27.5282 5.98502 27.2756 6.10313 26.9784C6.10436 26.9747 6.10486 26.9709 6.10486 26.967C6.10486 26.9467 6.08813 26.9298 6.06795 26.9298C6.06229 26.9298 6.05663 26.9313 6.05146 26.9338C6.04974 26.9355 6.03497 26.961 6.00717 27.0106C5.99314 27.0361 5.97272 27.0564 5.94811 27.0698C5.86937 27.1119 5.76503 27.0713 5.7168 26.9801C5.70155 26.9509 5.69293 26.9187 5.69219 26.8867C5.68899 26.7679 5.70868 26.6571 5.75125 26.5549C5.75715 26.5398 5.76011 26.5239 5.76011 26.5078C5.76011 26.437 5.70228 26.379 5.63215 26.379C5.63092 26.379 5.62944 26.379 5.62821 26.379C5.62649 26.3808 5.61419 26.3857 5.5913 26.3939C5.58613 26.3956 5.58047 26.3966 5.57506 26.3966C5.54676 26.3966 5.52339 26.3731 5.52339 26.3446C5.52339 26.3377 5.52461 26.331 5.52732 26.3245C5.59794 26.1529 5.58711 26.0216 5.49533 25.9307C5.48303 25.9181 5.47614 25.9013 5.47614 25.8837C5.47614 25.847 5.50616 25.8168 5.54258 25.8168C5.54307 25.8168 5.54381 25.8168 5.54455 25.8168C5.64962 25.82 5.7702 25.7418 5.90628 25.5815C5.91021 25.5768 5.91341 25.5714 5.91538 25.5652C5.9235 25.5409 5.9112 25.5144 5.88807 25.5065C5.88216 25.5045 5.87576 25.504 5.86937 25.5048C5.79062 25.5114 5.73723 25.527 5.70942 25.5518C5.69096 25.5686 5.66684 25.5778 5.64199 25.5778C5.58662 25.5778 5.5411 25.532 5.5411 25.4763C5.5411 25.4604 5.54479 25.4446 5.55193 25.4305C5.79308 24.9121 5.82335 24.6273 5.64298 24.576C5.61025 24.5671 5.58613 24.5389 5.58146 24.5042L5.41166 23.3748C5.50345 23.2906 5.56596 23.1982 5.59868 23.0974C5.59991 23.0937 5.6004 23.0898 5.6004 23.0858C5.6004 23.0655 5.58392 23.0486 5.56349 23.0486C5.55242 23.0486 5.54159 23.0538 5.5347 23.0627C5.46408 23.147 5.42323 23.251 5.41166 23.3748C5.13926 23.5068 5.08611 23.7191 5.25172 24.0113C5.29134 24.0809 5.28346 24.1691 5.23204 24.2317C5.04994 24.4472 4.82601 24.581 4.77926 24.8658C4.75637 25.0062 4.70125 25.1068 4.61439 25.1679C4.52555 25.2271 4.46084 25.3168 4.43229 25.4206C4.43229 25.4238 4.42983 25.4379 4.42491 25.4627C4.41802 25.51 4.37742 25.5454 4.32992 25.5454C4.32131 25.5454 4.3127 25.5441 4.30433 25.5419C4.19606 25.5122 4.12052 25.5461 4.07795 25.6434C3.87297 26.1157 3.6547 26.4929 3.42339 26.7753C3.39165 26.8139 3.3444 26.8362 3.29469 26.8362C3.2029 26.8362 3.12736 26.7602 3.12736 26.6678C3.12736 26.6624 3.1276 26.6569 3.1281 26.6515L3.29543 24.784C3.29543 24.7727 3.29199 24.7615 3.28559 24.7518C3.27894 24.7419 3.26418 24.7239 3.2413 24.6974C3.19799 24.652 3.17805 24.5879 3.18716 24.524C3.34219 23.4516 4.58486 21.9061 5.38952 21.178C5.39542 21.1726 5.39961 21.1651 5.40108 21.1569C5.40502 21.1369 5.39297 21.1173 5.37427 21.1138C5.36615 21.1121 5.35753 21.1139 5.35015 21.1186C4.53146 21.5247 3.83606 22.0887 3.26344 22.8101C3.244 22.8337 3.21004 22.8379 3.18716 22.82L3.1847 22.8176C3.16157 22.7997 3.15738 22.7656 3.17485 22.7408C3.26172 22.6286 3.30454 22.4832 3.30281 22.3049C3.30281 22.3044 3.30281 22.3039 3.30281 22.3032C3.30281 22.2719 3.27722 22.2462 3.24621 22.2462C3.22579 22.2462 3.20709 22.2573 3.197 22.2752C3.13966 22.3693 3.11407 22.4741 3.12071 22.5897C3.12514 22.6591 3.07371 22.7207 3.00506 22.7284C2.91647 22.7383 2.85176 22.7836 2.81067 22.8646C2.67533 23.1296 2.43417 23.2881 2.24223 23.511C2.2282 23.5279 2.20754 23.5378 2.18564 23.5378C2.14626 23.5378 2.11353 23.5061 2.11181 23.4664C2.11009 23.4236 2.1347 23.3656 2.18564 23.2931C2.19499 23.2775 2.20015 23.2577 2.20015 23.2376C2.20064 23.1886 2.17235 23.148 2.13716 23.1477C2.12264 23.1475 2.10861 23.1541 2.09705 23.1668C2.05275 23.2245 2.02569 23.274 2.01584 23.3154C1.92406 23.7166 1.69521 23.9883 1.32929 24.1302C1.22742 24.1703 1.16886 24.2788 1.19149 24.3853L1.21857 24.5116C1.22472 24.5438 1.21241 24.577 1.18658 24.5983C1.08002 24.6825 1.0003 24.6032 0.947883 24.3605C0.933364 24.2912 0.939272 24.2196 0.96511 24.155L1.34652 23.2039C1.34923 23.198 1.3507 23.1915 1.3507 23.1851C1.3507 23.1608 1.33053 23.1405 1.30641 23.1405C1.29189 23.1405 1.27861 23.1477 1.27024 23.1593L0.999556 23.4689C0.983315 23.4917 0.957231 23.5051 0.929424 23.5051C0.881932 23.5051 0.843056 23.466 0.843056 23.4182C0.843056 23.3998 0.848711 23.3822 0.859292 23.3674L1.31207 22.5823C1.3165 22.5746 1.31871 22.5662 1.31871 22.5575C1.31871 22.5315 1.29854 22.5097 1.2727 22.508C1.23825 22.5048 1.21364 22.484 1.19888 22.4461C1.18559 22.4116 1.19322 22.3727 1.21857 22.347C2.29145 21.2176 3.62837 20.5885 5.22957 20.4598C5.26181 20.4578 5.2874 20.4305 5.2874 20.3978C5.2874 20.3768 5.27682 20.3572 5.2591 20.3458C4.97119 20.1477 4.88015 20.0883 4.44706 20.1576C4.23543 20.1923 4.07868 20.1915 3.97706 20.1551C3.96918 20.1527 3.96229 20.1479 3.95663 20.142C3.93842 20.1219 3.94063 20.0895 3.96155 20.0702C3.96745 20.065 3.97435 20.0608 3.98197 20.0585C4.01815 20.0486 4.06244 20.0486 4.11486 20.0585C4.17564 20.0667 4.21649 20.0511 4.23789 20.0115C4.25094 19.9867 4.25192 19.9545 4.24036 19.9149C4.23371 19.8933 4.21083 19.877 4.17146 19.8654C3.90397 19.7794 3.69407 19.7893 3.54151 19.8951C3.54126 19.8951 3.54126 19.8953 3.54101 19.8953C3.51714 19.9107 3.48565 19.9045 3.47113 19.8817C3.47063 19.8812 3.47039 19.8807 3.47014 19.8802C3.45366 19.8537 3.45612 19.8176 3.47753 19.7713C3.47974 19.7665 3.48072 19.7613 3.48072 19.7561C3.48072 19.741 3.47162 19.7274 3.45784 19.7217C3.27574 19.6326 3.12392 19.6541 3.0026 19.7861C2.9935 19.7953 2.98094 19.8005 2.9679 19.8005C2.94083 19.8005 2.91869 19.7782 2.91869 19.7509C2.91869 19.7494 2.91869 19.748 2.91893 19.7465C2.93542 19.6259 2.82124 19.5137 2.57689 19.4097C2.56902 19.4062 2.56065 19.4045 2.55204 19.4045C2.51685 19.4045 2.48806 19.4337 2.48806 19.4688C2.48806 19.4812 2.4915 19.4934 2.49815 19.5038C2.51956 19.5384 2.55474 19.5508 2.60396 19.5409C2.60494 19.5409 2.60568 19.5407 2.60667 19.5407C2.61996 19.5407 2.63128 19.5521 2.63128 19.5654C2.63128 19.5664 2.63103 19.5672 2.63103 19.5682C2.62291 19.6474 2.57443 19.6937 2.48585 19.7069C2.44943 19.7133 2.41178 19.7061 2.38004 19.687C2.36355 19.6754 2.34386 19.6566 2.32097 19.6301C2.26856 19.5726 2.18194 19.5602 2.11427 19.6004L1.28254 20.0932C1.27663 20.0972 1.2695 20.0992 1.26236 20.0992C1.24218 20.0992 1.22545 20.0826 1.22545 20.062C1.22545 20.06 1.2257 20.058 1.22595 20.0561C1.23899 19.9785 1.2572 19.9248 1.28008 19.8951C1.28944 19.8834 1.2946 19.8691 1.2946 19.8542C1.2946 19.8312 1.28254 19.8099 1.26286 19.7985C1.24637 19.7886 1.22275 19.7878 1.19149 19.796C1.16516 19.801 1.14893 19.8067 1.14228 19.8134C0.907775 20.033 0.69516 20.2287 0.504945 20.4003C0.499039 20.4055 0.491657 20.4085 0.483783 20.4085C0.466311 20.4085 0.451799 20.3939 0.451799 20.3763C0.451799 20.3709 0.453028 20.3654 0.455734 20.3607L0.957728 19.4864C0.964618 19.4735 0.968309 19.4592 0.968309 19.4443C0.968309 19.3955 0.928195 19.3552 0.879718 19.3552C0.863723 19.3552 0.848225 19.3594 0.834691 19.3676L0.128452 19.7861C0.11541 19.7935 0.100892 19.7973 0.0861275 19.7973C0.0388812 19.7973 0 19.7581 0 19.7106C0 19.6903 0.00713633 19.6704 0.0201783 19.6548C0.692699 18.8408 1.50893 18.4296 2.46862 18.4215C3.7236 18.4116 4.88753 18.7873 5.96041 19.5483C5.96484 19.5516 5.97075 19.5516 5.97518 19.5483L6.04408 19.5038C6.04531 19.5033 6.04654 19.5025 6.04752 19.5015C6.05343 19.4958 6.05294 19.4857 6.04654 19.4787C6.0458 19.478 6.04482 19.4773 6.04408 19.4765L5.10162 18.6444C5.10014 18.6431 5.0989 18.6416 5.09767 18.6402C5.07331 18.6129 5.07479 18.571 5.10087 18.5475C5.1026 18.5458 5.10457 18.5443 5.10654 18.5428C5.13287 18.523 5.15157 18.5074 5.16314 18.4958C5.16338 18.4955 5.16362 18.4953 5.16387 18.495C5.20054 18.4534 5.19758 18.3895 5.15723 18.3533C5.15673 18.3528 5.15625 18.3526 5.15575 18.3521L3.12564 16.5615C3.05945 16.5013 2.97898 16.4587 2.89187 16.4376C2.67852 16.3849 2.43171 16.1974 2.15118 15.8754C2.14306 15.8668 2.13839 15.8551 2.13839 15.8432C2.13839 15.8172 2.15955 15.7962 2.18514 15.7962C2.19031 15.7962 2.19548 15.7969 2.2004 15.7987C3.34711 16.1355 4.38972 16.6234 5.328 17.2624C5.43135 17.3335 5.71188 17.6636 6.16958 18.253C6.17942 18.2649 6.19394 18.2719 6.20944 18.2719C6.23774 18.2719 6.26111 18.2483 6.26111 18.2199C6.26111 18.2176 6.26087 18.2156 6.26062 18.2134C6.24758 18.1342 6.20083 18.0319 6.12036 17.9063C6.04826 17.7924 6.02759 17.6884 6.05884 17.5942C6.11298 17.434 6.0645 17.2666 5.91366 17.0915C5.82507 16.9892 5.80219 16.8406 5.84476 16.6457C5.9235 16.2767 5.61345 15.9943 5.29355 15.7045C5.20964 15.6292 5.19586 15.5005 5.26156 15.4073C5.35999 15.2719 5.34203 15.1307 5.20743 14.9838C5.19783 14.9749 5.19241 14.9623 5.19241 14.9492C5.19241 14.9231 5.21358 14.9019 5.23942 14.9019C5.25123 14.9019 5.2628 14.9063 5.27141 14.9145C5.46999 15.0663 5.5133 15.2184 5.40183 15.3702C5.39002 15.386 5.38386 15.4051 5.38386 15.4249C5.38386 15.4727 5.42102 15.5129 5.46826 15.5163C5.49459 15.5181 5.57088 15.4849 5.69711 15.4172C5.69859 15.4165 5.69982 15.4158 5.70129 15.415C5.75814 15.3843 5.7793 15.3105 5.74805 15.2518C5.74756 15.2508 5.74682 15.2498 5.74633 15.2488L5.3969 14.6544C5.39075 14.643 5.38755 14.6302 5.38755 14.617C5.38755 14.5737 5.42323 14.5378 5.4663 14.5378C5.48303 14.5378 5.49902 14.543 5.51256 14.5529C6.00643 14.9558 6.42475 15.4965 6.76754 16.1751C6.83152 16.2989 6.9233 16.4054 7.04314 16.4946C7.09875 16.5355 7.1273 16.6036 7.11696 16.6704C7.09556 16.8322 7.14329 16.9149 7.25968 16.9181C7.31382 16.9194 7.35934 16.9629 7.36549 17.0197C7.37534 17.0972 7.37214 17.1608 7.35566 17.2104C7.32293 17.3112 7.35098 17.4219 7.42701 17.4927C7.62215 17.671 7.73781 17.964 7.77398 18.3719C7.77669 18.412 7.81015 18.4435 7.85001 18.4435C7.87954 18.4435 7.90661 18.4262 7.91916 18.3992C8.29492 17.5918 8.87074 16.9966 9.64661 16.6135C9.65522 16.6098 9.66432 16.6078 9.67367 16.6078C9.71009 16.6078 9.74011 16.638 9.74011 16.6747C9.74011 16.6853 9.73765 16.6957 9.73273 16.7051C9.54079 17.0387 9.46377 17.3622 9.50142 17.676C9.51077 17.7597 9.48494 17.8434 9.43006 17.9063L9.24551 18.1168C9.23049 18.1337 9.22213 18.1555 9.22213 18.1783C9.22213 18.2285 9.26322 18.2699 9.31317 18.2699C9.31933 18.2699 9.32548 18.2691 9.33163 18.2679C9.49084 18.2382 9.61634 18.2488 9.70813 18.3001C9.73519 18.3155 9.75192 18.3444 9.75192 18.3756C9.75192 18.4138 9.72707 18.4475 9.6909 18.4586C9.371 18.5594 9.04791 18.8309 8.72137 19.2734C8.70906 19.2895 8.70242 19.3091 8.70242 19.3292C8.70242 19.3737 8.73441 19.4119 8.77797 19.4196C9.31441 19.5236 9.69828 19.1868 10.2003 19.2115C10.7933 19.2412 10.9902 19.3626 11.6054 19.2809C11.6964 19.268 11.7902 19.2846 11.8736 19.3279C12.3281 19.5657 12.7644 19.6491 13.1827 19.5781C13.1881 19.5771 13.1935 19.5766 13.1989 19.5766C13.2474 19.5766 13.2875 19.6167 13.2875 19.6657C13.2875 19.6791 13.2843 19.6922 13.2787 19.7044C13.2705 19.721 13.1943 19.7688 13.0498 19.848C12.9563 19.8976 12.9292 20.0561 13.008 20.1254C13.0786 20.1881 13.1391 20.199 13.1901 20.1576C13.2836 20.0816 13.3458 20.0826 13.3771 20.1601C13.3867 20.1873 13.3749 20.2175 13.35 20.2294L12.5847 20.6108C12.5185 20.6438 12.4381 20.6262 12.3928 20.5687C12.3861 20.562 12.3689 20.5447 12.3411 20.5167C12.3266 20.5036 12.3079 20.4964 12.2885 20.4964C12.2621 20.4964 12.2375 20.5096 12.223 20.5316C12.1179 20.6918 11.9294 20.6572 11.657 20.4276C11.641 20.4142 11.6211 20.407 11.6004 20.407C11.5517 20.407 11.5118 20.4471 11.5118 20.4962C11.5118 20.512 11.516 20.5279 11.5241 20.5415L11.6275 20.7149C11.6341 20.726 11.6376 20.7386 11.6376 20.7518C11.6376 20.7911 11.6054 20.8236 11.5662 20.8236C11.5522 20.8236 11.5384 20.8194 11.5266 20.8114C11.484 20.7835 11.4004 20.728 11.2756 20.6455C11.1445 20.5596 11.0509 20.5185 10.9951 20.5217C10.7753 20.5333 10.6284 20.671 10.5546 20.9353C10.5428 20.9811 10.5015 21.0133 10.4545 21.0133C10.4424 21.0133 10.4306 21.0113 10.4193 21.0071C10.298 20.9625 10.1257 20.9675 9.90252 21.022C9.82771 21.0405 9.74873 21.019 9.69336 20.965C9.56368 20.8362 9.40964 20.7817 9.23074 20.8015C9.19235 20.8058 9.16282 20.8389 9.16282 20.8778C9.16282 20.9103 9.18325 20.9392 9.21351 20.9501C10.6973 21.4925 11.8736 22.0052 12.9514 23.2262C12.962 23.2356 12.9679 23.2492 12.9679 23.2634C12.9679 23.2909 12.9455 23.3134 12.9182 23.3134C12.9059 23.3134 12.894 23.3087 12.8849 23.3005L12.4026 22.9439C12.3957 22.9392 12.3861 22.9402 12.3805 22.9464L12.3313 23.0058C12.3108 23.0293 12.3118 23.066 12.3337 23.09C12.442 23.2057 12.5053 23.2914 12.5232 23.3476C12.5254 23.3548 12.5262 23.3624 12.5254 23.3701C12.5222 23.4013 12.4954 23.4243 12.4659 23.4216C12.4585 23.4209 12.4511 23.4184 12.4445 23.4144L10.4119 22.2331C10.3223 22.1806 10.2054 22.2078 10.1461 22.295C10.1215 22.3314 10.1085 22.3502 10.1068 22.3519C10.0952 22.3606 10.0812 22.3653 10.0667 22.3653C10.044 22.3653 10.0231 22.3537 10.0108 22.3346C9.86635 22.11 9.65891 21.945 9.38822 21.8393C9.38133 21.8363 9.3742 21.8348 9.36681 21.8348C9.33704 21.8348 9.31268 21.8593 9.31268 21.8893C9.31268 21.9029 9.3176 21.916 9.32671 21.9259L9.96404 22.6442C9.96724 22.6477 9.96994 22.6511 9.97265 22.6551C10.0103 22.7081 9.99898 22.7821 9.94731 22.8195C9.94337 22.8225 9.93894 22.825 9.93451 22.8275C9.93131 22.8292 9.92393 22.8307 9.91236 22.8324C9.90917 22.8327 9.90597 22.8334 9.90301 22.8346C9.88013 22.8428 9.86832 22.8696 9.87669 22.8938C9.87767 22.8966 9.8789 22.8993 9.88037 22.9018L10.2446 23.4986C10.2923 23.5744 10.2997 23.67 10.2642 23.7537C10.2625 23.757 10.2586 23.7644 10.2519 23.776C10.2259 23.8164 10.231 23.8694 10.2642 23.9023C10.4151 24.0527 10.4537 24.1854 10.3799 24.3011C10.3403 24.3645 10.3528 24.4487 10.4094 24.4992L10.9951 25.0169C11.0133 25.0337 11.0236 25.0575 11.0236 25.0822C11.0236 25.1313 10.9835 25.1714 10.9351 25.1714C10.9304 25.1714 10.9257 25.1711 10.9213 25.1704C10.8721 25.1622 10.7817 25.1332 10.6506 25.0837C10.6425 25.0805 10.6339 25.0788 10.6252 25.0788C10.5873 25.0788 10.5563 25.1102 10.5563 25.1481C10.5563 25.1612 10.56 25.1741 10.5669 25.1853C10.626 25.2794 10.736 25.3693 10.8967 25.4552C10.9633 25.4904 11.0155 25.5474 11.0443 25.6162C11.238 26.0702 11.2995 26.4838 11.2289 26.857C11.2274 26.8649 11.2266 26.8731 11.2266 26.8815C11.2276 26.9479 11.2815 27.0022 11.3462 27.0014C11.3548 27.0012 11.3632 27.0002 11.3716 26.9982L32.844 22.3916C32.8782 22.3851 32.9132 22.3851 32.9474 22.3916L59.2773 27.3623C59.283 27.3635 59.2886 27.3642 59.2945 27.3642C59.3376 27.3642 59.373 27.3288 59.3733 27.2855C59.4717 25.1258 59.5037 22.3973 59.4692 19.1001C59.4643 18.6493 59.4257 18.2365 59.3536 17.8617C59.3497 17.8449 59.3346 17.833 59.3177 17.833C59.3054 17.833 59.294 17.8392 59.2872 17.8493L57.5819 20.8214C57.5713 20.8422 57.5501 20.855 57.527 20.855C57.4933 20.855 57.4655 20.8271 57.4655 20.7931C57.4655 20.7902 57.4657 20.7872 57.4662 20.7842C57.5039 20.4308 57.5088 20.2237 57.481 20.1626C57.4714 20.1432 57.4517 20.1311 57.4303 20.1311C57.4071 20.1311 57.386 20.1457 57.3776 20.1675C57.0774 21.0326 56.6844 21.7848 56.1989 22.4238C55.8913 22.8275 55.8839 23.3278 55.5001 23.6646C55.4964 23.668 55.4925 23.671 55.488 23.6737C55.4437 23.7022 55.3834 23.6881 55.3542 23.6423C55.3517 23.6383 55.3495 23.6341 55.3475 23.6299C55.1588 23.2022 55.1278 22.7482 55.254 22.2677C55.3738 21.812 55.4181 21.5668 55.3869 21.5322C55.3578 21.4732 55.3596 21.4036 55.3918 21.3464L55.9553 20.3434C55.9563 20.3409 55.9568 20.3379 55.9568 20.3352C55.9568 20.323 55.9469 20.3129 55.9346 20.3129C55.9307 20.3129 55.9268 20.3141 55.9233 20.3161L55.5468 20.5613C55.535 20.5692 55.521 20.5737 55.507 20.5737C55.4676 20.5737 55.4356 20.5412 55.4356 20.5019C55.4356 20.4858 55.441 20.4699 55.4509 20.4573C55.4755 20.4226 55.5247 20.3763 55.5985 20.3186C55.628 20.2956 55.6526 20.2411 55.6723 20.1551C55.8069 19.5508 55.9757 19.1082 56.1792 18.8276C56.2223 18.7667 56.2439 18.6926 56.2407 18.6171C56.2326 18.3826 56.3244 18.1572 56.5164 17.941C56.5365 17.9192 56.5353 17.8845 56.5139 17.8642C56.5028 17.8531 56.4878 17.8466 56.4721 17.8466C56.4563 17.8466 56.4413 17.8531 56.4302 17.8642C56.2186 18.074 56.1209 18.3489 56.1374 18.6889C56.1374 18.6899 56.1374 18.6907 56.1374 18.6917C56.1374 18.7447 56.0941 18.7883 56.0414 18.7883C56.019 18.7883 55.9971 18.7803 55.9799 18.7657C55.9275 18.7211 55.9135 18.6426 55.9381 18.5304C56.1251 17.7015 56.5451 16.9503 57.198 16.2766C57.2095 16.2645 57.2162 16.2484 57.2162 16.2318C57.2162 16.1964 57.1872 16.1674 57.1522 16.1674C57.1414 16.1674 57.1311 16.1699 57.1217 16.1751C56.792 16.3453 56.4999 16.5607 56.2457 16.8215C56.1866 16.8824 56.1035 16.9134 56.0193 16.9057C55.9226 16.8958 55.8618 16.8976 55.8372 16.9107C54.6381 17.6272 53.5716 18.3826 52.6382 19.1768C52.634 19.1791 52.6296 19.1803 52.6249 19.1803C52.6099 19.1803 52.5979 19.1682 52.5979 19.1531C52.5979 19.1484 52.5991 19.1439 52.6013 19.1397L53.4724 18.0673C53.4739 18.0656 53.4746 18.0633 53.4746 18.0609C53.4746 18.0574 53.4729 18.0542 53.47 18.0524L53.4207 18.0079C53.4148 18.0036 53.407 18.0036 53.4011 18.0079L52.5053 18.7162C52.4967 18.7229 52.4861 18.7266 52.4753 18.7266C52.4483 18.7266 52.4261 18.704 52.4261 18.677C52.4261 18.6691 52.4278 18.6612 52.4315 18.6543C53.0295 17.5323 54.0556 17.0642 55.0694 16.1825C55.2318 16.0406 55.4959 15.9094 55.8618 15.7887C55.8982 15.7751 55.9226 15.7397 55.9226 15.7006C55.9226 15.6491 55.8803 15.6065 55.8291 15.6065C55.8234 15.6065 55.818 15.607 55.8126 15.608L55.2589 15.7268C55.2242 15.733 55.1888 15.7261 55.1605 15.707C54.752 15.4346 54.2271 15.3306 53.5856 15.395C53.5147 15.4031 53.4431 15.391 53.3789 15.3603L52.6333 15.0135C52.4362 14.9234 52.3087 14.7255 52.3085 14.5083V9.85711C52.3085 9.79494 52.2728 9.73872 52.2174 9.71345L36.4662 2.41717C36.4217 2.39686 36.3695 2.39959 36.326 2.4246L15.9436 14.5257C15.9274 14.5358 15.9087 14.541 15.8895 14.541C15.8329 14.541 15.7862 14.4942 15.7862 14.437C15.7862 14.4367 15.7862 14.4367 15.7862 14.4365V14.0303C15.7862 13.9132 15.8457 13.8037 15.9436 13.7405L36.9658 0.0370817C37.0344 -0.00749849 37.1215 -0.0122011 37.1946 0.0247013C44.9526 4.0072 51.4891 7.38539 56.8043 10.1593C56.9175 10.217 57.0388 10.2303 57.1685 10.1989C57.2248 10.1855 57.2652 10.1343 57.2652 10.0761C57.2652 10.05 57.2573 10.0245 57.2423 10.0032L56.7895 9.35929C56.7708 9.33254 56.7607 9.3006 56.7607 9.26791C56.7607 9.21367 56.7883 9.1629 56.8338 9.13392C56.8404 9.1307 56.8454 9.12822 56.8486 9.12648C56.8943 9.10419 56.9236 9.05739 56.9236 9.00613C56.9236 8.96526 56.9052 8.92637 56.8732 8.90111C56.7026 8.77059 56.5894 8.64849 56.5336 8.53457C56.5289 8.5254 56.5264 8.51524 56.5264 8.50483C56.5264 8.46966 56.5552 8.44045 56.5904 8.44045C56.5988 8.44045 56.6072 8.44218 56.6148 8.4454C57.5105 8.80526 58.3503 9.51854 59.1346 10.5852C59.1466 10.6018 59.1658 10.612 59.1865 10.612C59.2215 10.612 59.2505 10.5828 59.2505 10.5476C59.2505 10.5461 59.2502 10.5446 59.2502 10.5431C59.2224 10.1486 59.2182 9.92571 59.2379 9.87444C59.247 9.85067 59.2699 9.83482 59.2953 9.83482C59.3216 9.83482 59.3452 9.85191 59.3536 9.87692C59.4569 10.1939 59.4766 10.4416 59.4127 10.6199C59.4117 10.6231 59.4112 10.6264 59.4112 10.6296C59.4112 10.6487 59.4269 10.6643 59.4456 10.6643C59.4532 10.6643 59.4606 10.6618 59.4668 10.6571C59.5733 10.5612 59.6317 10.4547 59.6415 10.3376C59.7515 9.11906 59.8106 8.49493 59.8187 8.46521C59.8211 8.45456 59.8268 8.44465 59.8344 8.43698C59.8566 8.41493 59.892 8.41444 59.9129 8.43574C59.9201 8.44317 59.925 8.45258 59.927 8.46273L60.0549 9.26765L60.0574 9.27013L60.1213 9.26271C60.1241 9.26271 60.1263 9.25924 60.1263 9.25527L60.3059 7.91786C60.3101 7.89433 60.3305 7.87724 60.3544 7.87724C60.3704 7.87724 60.3854 7.88493 60.3945 7.89806C60.4174 7.931 60.4307 7.95007 60.4339 7.95502C60.4412 7.96096 60.4503 7.96418 60.4599 7.96418C60.4789 7.96418 60.4954 7.95105 60.5003 7.93272C60.835 6.80509 61.3985 5.83498 62.1908 5.02263C62.21 5.00281 62.2418 5.00183 62.2622 5.02016C62.2809 5.0422 62.2829 5.07391 62.2671 5.09694L61.7528 5.80774C61.7454 5.8174 61.7467 5.83077 61.755 5.83721C61.755 5.83745 61.7553 5.83746 61.7553 5.83746L61.8119 5.887C61.8131 5.88824 61.8146 5.88922 61.8158 5.89046C61.8414 5.91027 61.8781 5.90657 61.8973 5.8818C61.8985 5.88031 61.8995 5.87882 61.9005 5.87708C62.0333 5.674 62.1719 5.57246 62.3163 5.57246C62.3414 5.5732 62.3618 5.59425 62.3618 5.61951C62.3618 5.62917 62.3589 5.63883 62.3532 5.64675L61.7159 6.47891C61.7107 6.48486 61.708 6.49229 61.708 6.50021C61.708 6.51037 61.7127 6.51978 61.7208 6.52597L61.7504 6.54579C61.7513 6.54678 61.7526 6.54753 61.7541 6.54753C61.7555 6.54753 61.7567 6.54678 61.7577 6.54579L62.5279 5.90186C62.5346 5.89666 62.5427 5.89368 62.5511 5.89368C62.5713 5.89368 62.588 5.91053 62.588 5.93084C62.588 5.93356 62.5875 5.93628 62.587 5.939C62.5575 6.05788 62.4204 6.26914 62.1761 6.57303C62.1687 6.5817 62.1677 6.59458 62.1736 6.60523C62.1866 6.62826 62.2007 6.6456 62.2154 6.65724C62.2354 6.67285 62.2632 6.67285 62.2819 6.65724C62.4509 6.52846 62.6092 6.43755 62.7568 6.3848C62.763 6.38282 62.7693 6.38158 62.7757 6.38158C62.8082 6.38158 62.8348 6.40859 62.8348 6.44103C62.8348 6.45985 62.8259 6.47768 62.8109 6.48883C62.4369 6.75804 62.1423 7.06515 61.9275 7.41015C61.8909 7.4681 61.8734 7.53597 61.8783 7.60333L61.93 8.44292C61.93 8.44341 61.93 8.44366 61.93 8.44416C61.93 8.44837 61.9332 8.45159 61.9374 8.45159C61.9411 8.45159 61.9443 8.44911 61.9447 8.4454C61.9479 8.43549 61.9037 8.43723 61.8119 8.45035C61.7882 8.45333 61.7693 8.4714 61.7651 8.49493C61.7619 8.51301 61.7757 8.53951 61.8069 8.57419C61.8512 8.6257 61.8581 8.69975 61.8242 8.75746L61.519 9.28995C61.5126 9.30134 61.5092 9.31397 61.5092 9.32709C61.5092 9.36796 61.5424 9.4014 61.583 9.4014H61.711C61.7595 9.40165 61.7991 9.44177 61.7991 9.49056C61.7991 9.50914 61.7932 9.52745 61.7823 9.54256C61.5641 9.8514 61.4371 10.1526 61.4009 10.4466C61.4 10.4508 61.3997 10.4552 61.3997 10.4594C61.3997 10.4934 61.4273 10.5214 61.4612 10.5214C61.4848 10.5214 61.5065 10.5077 61.5166 10.4862C62.085 9.52027 62.7666 8.7327 63.8248 8.12591C65.0158 7.44235 65.9878 6.84299 67.1197 6.66962C67.1524 6.66492 67.1837 6.68671 67.1911 6.71916L67.2034 6.78356C67.2038 6.78529 67.2038 6.78702 67.2038 6.789C67.2038 6.80089 67.1952 6.81105 67.1837 6.81327C66.8276 6.89426 66.4929 7.03791 66.1797 7.24421C66.1388 7.27071 66.114 7.31628 66.114 7.36507C66.114 7.44383 66.1785 7.50872 66.2567 7.50872C66.2648 7.50872 66.2727 7.50798 66.2806 7.50674C66.4135 7.48519 66.4898 7.47875 66.5094 7.48692C66.5178 7.49113 66.5252 7.49782 66.5303 7.50574C66.5471 7.53051 66.5412 7.56396 66.5178 7.58006C66.5094 7.5855 66.4998 7.58848 66.4897 7.58848C66.3618 7.59343 66.0746 7.74203 65.6285 8.03427C65.5672 8.0739 65.4858 8.06349 65.4365 8.0095C65.3578 7.92281 65.2594 7.99959 65.2446 8.08875C65.2444 8.09098 65.2441 8.09346 65.2441 8.09593C65.2441 8.12169 65.2653 8.14299 65.2909 8.14299C65.2978 8.14299 65.3046 8.14126 65.311 8.13829C65.3603 8.11526 65.393 8.1061 65.4095 8.11105C65.4294 8.11303 65.4449 8.13012 65.4449 8.15043C65.4449 8.16504 65.437 8.17841 65.4242 8.18535L64.75 8.60391C64.7192 8.62273 64.7042 8.65913 64.7131 8.69306C64.7279 8.74433 64.7025 8.81443 64.6368 8.90359C64.5925 8.9613 64.5236 8.99597 64.4301 9.00761C64.23 9.03237 64.1545 9.15621 64.2037 9.37911C64.2062 9.38877 64.2072 9.39868 64.2072 9.40859C64.2072 9.46778 64.1653 9.51879 64.1077 9.53018C63.5492 9.64163 63.682 10.1568 63.2588 10.3599C63.1424 10.4161 63.0774 10.5127 63.0644 10.6496C63.0612 10.6994 63.0422 10.748 63.0103 10.7883L61.7405 12.3833C61.724 12.4034 61.724 12.4326 61.7405 12.4527V12.4551C61.7555 12.4715 61.7816 12.4725 61.7996 12.4576C63.5836 10.9617 65.6777 10.2038 67.9465 10.7438C68.0321 10.7633 68.0993 10.8309 68.1188 10.9171C68.1205 10.9204 68.1212 10.9246 68.1212 10.9295C68.122 10.9347 68.1229 10.9397 68.1244 10.9449C68.1414 11.0036 68.2022 11.0382 68.2593 11.0216C68.2642 11.0202 68.2691 11.0184 68.2738 11.0162L68.387 10.9642C68.3904 10.9627 68.3939 10.961 68.3976 10.9597C68.4921 10.9231 68.6001 10.9721 68.637 11.0684C68.6382 11.0717 68.6395 11.0749 68.6404 11.0781C68.6436 11.088 68.6486 11.122 68.6552 11.1797C68.6584 11.2007 68.668 11.2198 68.6823 11.2341L69.9865 12.3833C69.9951 12.3898 70 12.4002 70 12.4108C70 12.4299 69.9845 12.4455 69.9655 12.4455C69.9609 12.4455 69.9562 12.4445 69.952 12.4428C69.6813 12.3405 69.3804 12.1473 69.0489 11.8632C69.0309 11.8476 69.0083 11.8392 68.9847 11.8392C68.9338 11.8392 68.8907 11.8791 68.8865 11.9301C68.8865 11.9417 68.9037 11.9853 68.9382 12.0614C68.9443 12.0737 68.9475 12.0876 68.9475 12.1015C68.9475 12.1503 68.9077 12.1906 68.8589 12.1906C68.8385 12.1906 68.8186 12.1835 68.8028 12.1703C68.6633 12.0631 68.529 11.9779 68.3993 11.9152C68.3919 11.912 68.3843 11.9103 68.3762 11.9103C68.3452 11.9103 68.3195 11.936 68.3195 11.9672C68.3195 11.9776 68.3225 11.988 68.3279 11.997L69.076 13.1585C69.0824 13.1699 69.0858 13.1825 69.0858 13.1957C69.0858 13.2365 69.0526 13.27 69.012 13.27C68.996 13.27 68.9805 13.2648 68.9677 13.2551L67.6611 12.2099C67.6515 12.2018 67.6392 12.1973 67.6266 12.1973C67.5968 12.1973 67.5725 12.2221 67.5725 12.2518C67.5725 12.2528 67.5725 12.2538 67.5725 12.2545C67.5742 12.2711 67.5774 12.2924 67.5823 12.3189C67.5833 12.3234 67.5838 12.3278 67.5838 12.3323C67.5838 12.362 67.5624 12.388 67.5331 12.3932C67.0688 12.4873 66.6539 12.3808 66.288 12.0737C66.2776 12.0648 66.2646 12.0599 66.2508 12.0599C66.2338 12.0599 66.2176 12.0678 66.2068 12.0812C66.1935 12.1129 66.2013 12.1495 66.2264 12.1728L66.7088 12.6211C66.7181 12.6307 66.7233 12.6436 66.7233 12.6572C66.7233 12.6857 66.6999 12.7092 66.6716 12.7092C66.6674 12.7092 66.6635 12.7088 66.6595 12.7078C66.5397 12.6699 66.1969 12.5698 65.631 12.4081C65.6123 12.4029 65.5926 12.4016 65.5731 12.4041C65.4995 12.4138 65.4462 12.4772 65.4548 12.5446C65.457 12.5621 65.4634 12.579 65.4735 12.5938C65.4784 12.602 65.5121 12.6087 65.5743 12.6136C65.6014 12.6169 65.6223 12.6401 65.6223 12.6679C65.6223 12.6766 65.6201 12.6852 65.6162 12.6929C65.6014 12.7209 65.58 12.7424 65.5522 12.7573C65.5227 12.7722 65.4973 12.7764 65.4759 12.7697C65.143 12.6788 64.905 12.6392 64.7623 12.6508C64.7318 12.654 64.7057 12.6728 64.6934 12.7003C64.6737 12.7417 64.6737 12.7788 64.6934 12.8118C64.7069 12.8346 64.732 12.8472 64.7574 12.844C64.8607 12.8309 64.9272 12.8348 64.9567 12.8564C64.9774 12.8682 64.9902 12.8905 64.9902 12.9146C64.9902 12.9515 64.9602 12.9817 64.9235 12.9817C64.9119 12.9817 64.9004 12.9787 64.8903 12.9728C64.6705 12.8804 64.4825 12.8464 64.3267 12.8712C64.2674 12.8794 64.2227 12.9312 64.2227 12.9913C64.2227 13.0258 64.2374 13.0587 64.2628 13.0817L64.4572 13.2551C64.4687 13.265 64.4754 13.2794 64.4754 13.2947C64.4754 13.3232 64.452 13.3467 64.4237 13.3467C64.4235 13.3467 64.423 13.3467 64.4227 13.3467C64.39 13.3467 64.0807 13.2873 63.495 13.1684C63.3917 13.1469 63.321 13.1627 63.2834 13.2155C63.274 13.2286 63.2691 13.2442 63.2691 13.2603C63.2691 13.3024 63.3036 13.3371 63.3454 13.3371C63.3469 13.3371 63.3484 13.3368 63.3498 13.3368C63.3629 13.3368 63.3794 13.3326 63.3991 13.3245C63.4399 13.3069 63.4881 13.319 63.5172 13.3542C63.5516 13.3955 63.5558 13.4458 63.5295 13.5052C63.5145 13.5392 63.4803 13.561 63.4433 13.5597C62.9775 13.5283 62.7428 13.5134 62.7396 13.5152C62.7162 13.5246 62.7009 13.5474 62.7009 13.5726C62.7009 13.5969 62.7152 13.6192 62.7371 13.6291C62.9487 13.7264 63.1185 13.7777 63.2465 13.7826C64.9068 13.8569 66.3512 14.382 67.5799 15.3578C67.8899 15.603 68.4706 16.3411 68.4829 16.829C68.4911 17.1906 68.5378 17.4102 68.6232 17.4877C68.635 17.4967 68.6419 17.5105 68.6419 17.5254C68.6419 17.5512 68.6207 17.5724 68.5952 17.5724C68.5929 17.5724 68.591 17.5722 68.5888 17.572C68.5462 17.5702 68.5068 17.5811 68.4706 17.6042C68.4625 17.6094 68.4593 17.62 68.4632 17.6289C68.7209 18.2216 68.8693 18.8234 68.9087 19.4344C68.9087 19.4349 68.9087 19.4354 68.9087 19.4362C68.9087 19.4701 68.8809 19.4981 68.8471 19.4981C68.8304 19.4981 68.8144 19.4911 68.8028 19.479L66.9105 17.4357ZM7.17356 17.037C7.19989 17.0618 7.21293 17.0997 7.21293 17.1509C7.21268 17.1522 7.21244 17.1534 7.21244 17.1546C7.21244 17.1643 7.22056 17.1725 7.23016 17.1725C7.23852 17.1725 7.24566 17.1665 7.24738 17.1583C7.26535 17.117 7.26707 17.0858 7.2523 17.0642C7.24074 17.0477 7.21785 17.0328 7.1834 17.0197C7.18193 17.0189 7.18021 17.0184 7.17848 17.0184C7.17307 17.0184 7.16864 17.0229 7.16864 17.0283C7.16864 17.0318 7.17036 17.0353 7.17356 17.037ZM10.247 20.6108C10.1995 20.6373 10.1749 20.6611 10.1732 20.6827C10.1732 20.6839 10.173 20.6849 10.173 20.6861C10.173 20.7119 10.1941 20.7332 10.2197 20.7332C10.2342 20.7332 10.248 20.7265 10.2569 20.7149C10.2586 20.7131 10.2699 20.6933 10.2913 20.6554C10.2948 20.6502 10.2965 20.644 10.2965 20.6378C10.2965 20.62 10.2822 20.6056 10.2645 20.6056C10.2583 20.6056 10.2522 20.6074 10.247 20.6108ZM3.66208 22.0399C3.61114 22.0713 3.58998 22.1134 3.5981 22.1662C3.64904 22.1347 3.6702 22.0926 3.66208 22.0399ZM9.66137 24.9698C9.60404 25.026 9.61142 25.1035 9.68352 25.2026C9.6941 25.2177 9.7 25.2358 9.7 25.2544C9.7 25.3032 9.65989 25.3435 9.61142 25.3435C9.59001 25.3435 9.56934 25.3356 9.5531 25.3215C9.13305 24.9351 8.83382 24.5488 8.65493 24.1624C8.62761 24.1007 8.56043 24.0665 8.49497 24.0807L8.40147 24.1005C8.39335 24.1022 8.38498 24.103 8.37662 24.103C8.31313 24.103 8.26022 24.0527 8.25628 23.989L8.22675 23.3872C8.22528 23.3666 8.20805 23.3505 8.18738 23.3505C8.17951 23.3505 8.17188 23.353 8.16524 23.3575L8.03482 23.4417C8.01513 23.4536 8.00381 23.4756 8.00529 23.4986L8.20461 27.5505C8.20485 27.5542 8.2051 27.5577 8.20559 27.5614C8.21519 27.6354 8.28286 27.6884 8.35496 27.679C8.35914 27.6785 8.36308 27.6778 8.36702 27.6768L10.6038 27.1988C10.6754 27.1827 10.7271 27.1181 10.7271 27.044C10.7271 27.0277 10.7244 27.0113 10.7195 26.9957C10.6604 26.8107 10.6498 26.6671 10.6875 26.5648C10.7136 26.4907 10.6897 26.4077 10.6284 26.3592C10.5283 26.2832 10.4235 26.0132 10.3135 25.5493C10.3063 25.5218 10.2815 25.503 10.2544 25.5048L10.1781 25.5097C10.1715 25.5097 10.1656 25.5154 10.1656 25.5221C10.1656 25.5228 10.1656 25.5238 10.1658 25.5246L10.2446 26.2007C10.2453 26.2049 10.2458 26.2091 10.2458 26.2133C10.2458 26.25 10.2158 26.2802 10.1794 26.2802C10.1511 26.2802 10.126 26.2621 10.1166 26.2354C9.88529 25.7103 9.78022 25.3108 9.80163 25.0367C9.80163 25.0349 9.80188 25.0334 9.80188 25.0317C9.80188 24.9854 9.76398 24.9475 9.71821 24.9475C9.69705 24.9475 9.67687 24.9554 9.66137 24.9698ZM32.3716 25.7921C32.9097 25.7888 33.4526 25.7096 34.0006 25.5543C34.0168 25.5501 34.0281 25.5352 34.0281 25.5184C34.0281 25.5015 34.0168 25.4867 34.0006 25.4825C33.5306 25.3586 32.8637 25.1927 32.3666 25.1952C31.8696 25.1976 31.2052 25.3735 30.7352 25.5023C30.715 25.5023 30.6983 25.5191 30.6983 25.5394C30.6983 25.5597 30.715 25.5766 30.7352 25.5766C31.2846 25.7252 31.8302 25.797 32.3716 25.7921ZM45.3421 25.6434C37.6516 26.6621 29.5245 27.8848 20.9611 29.3114C20.8942 29.323 20.8255 29.3255 20.7569 29.3188L8.33995 28.1102C8.337 28.11 8.33405 28.1097 8.33109 28.1097C8.26884 28.1092 8.21716 28.159 8.21667 28.2199C8.21667 28.2232 8.21667 28.2261 8.21692 28.2291C8.50409 32.3372 9.32671 36.3261 10.685 40.1964C10.7101 40.2675 10.7773 40.3153 10.8524 40.3153H17.0387C17.1007 40.3153 17.1519 40.2638 17.1519 40.2014V39.072C17.1519 38.9742 17.2318 38.8937 17.329 38.8937H17.3906C17.4607 38.8937 17.5185 38.9519 17.5185 39.0225C17.5185 39.0232 17.5185 39.0242 17.5185 39.0249L17.4939 40.0924C17.4927 40.1328 17.5242 40.1677 17.5653 40.1716L19.5216 40.3623C19.5297 40.3631 19.538 40.3636 19.5462 40.3636C19.6889 40.3636 19.8063 40.2457 19.807 40.1023L19.8095 38.9556C19.8095 38.8543 19.8919 38.7701 19.994 38.7674H20.0063C20.1062 38.7674 20.1884 38.8513 20.1884 38.9531L20.1933 40.1593C20.1933 40.2286 20.2499 40.2856 20.3188 40.2856H22.6024C22.6659 40.2856 22.7181 40.2331 22.7181 40.1692V38.8441C22.7181 38.7721 22.7769 38.7129 22.8485 38.7129H22.9322C23.0077 38.7129 23.07 38.7755 23.07 38.8516C23.07 38.8523 23.07 38.8533 23.07 38.854L23.0429 40.0552C23.0429 40.056 23.0429 40.057 23.0429 40.0577C23.0414 40.2127 23.1659 40.3413 23.3185 40.3425C23.3192 40.3425 23.3202 40.3425 23.3209 40.3425H24.6055C24.7553 40.3425 24.8786 40.2184 24.8786 40.0676V38.8119C24.8786 38.7322 24.9421 38.6661 25.0213 38.6633L32.9055 38.4999C32.9193 38.4986 32.9301 38.4877 32.9301 38.4751V38.4082C32.9301 38.4043 32.9267 38.4008 32.9228 38.4008L25.0361 38.225C24.9573 38.2237 24.8934 38.1581 24.8934 38.0788V33.1899C24.8934 33.1285 24.8498 33.0755 24.79 33.0636L23.1339 32.7515C23.129 32.7505 23.1241 32.75 23.1192 32.75C23.0751 32.75 23.0385 32.7864 23.038 32.8308V38.0764C23.038 38.0796 23.0377 38.0826 23.0375 38.0858C23.0318 38.1452 22.9796 38.1898 22.9221 38.1841C22.9189 38.1838 22.9157 38.1834 22.9125 38.1829L22.8436 38.1705C22.7911 38.1611 22.7525 38.1138 22.7525 38.059V32.8332C22.7525 32.7599 22.6996 32.6963 22.627 32.6822L20.2499 32.2339C20.2443 32.2329 20.2384 32.2322 20.2327 32.2322C20.1828 32.2322 20.1417 32.2735 20.1417 32.3238C20.1417 32.3245 20.1417 32.325 20.1417 32.3255L20.1564 38.0516C20.1564 38.1279 20.0942 38.1903 20.0186 38.1903C20.0169 38.1903 20.0154 38.1903 20.0137 38.1903H20.0039C19.9254 38.1814 19.8656 38.1138 19.8661 38.0343L19.903 32.3082C19.9032 32.2237 19.8429 32.1504 19.7603 32.1348L17.644 31.7361C17.6398 31.7353 17.6359 31.7346 17.6317 31.7343C17.5591 31.7274 17.4939 31.7806 17.487 31.8525C17.4868 31.8564 17.4865 31.8606 17.4865 31.8649V38.0095C17.4865 38.0585 17.4464 38.0987 17.3979 38.0987C17.3972 38.0987 17.3962 38.0987 17.3955 38.0987H17.3266C17.2707 38.0974 17.2257 38.0508 17.2257 37.9946V31.8599C17.2257 31.7913 17.177 31.7319 17.11 31.7187L15.9092 31.4934C15.8351 31.4792 15.781 31.4131 15.7812 31.3373V30.6389C15.7815 30.5594 15.8396 30.4915 15.9166 30.4804L45.3889 25.7623C45.3955 25.7608 45.4 25.7554 45.3987 25.7499L45.3864 25.6781C45.3842 25.6583 45.3672 25.6432 45.3473 25.6432C45.3456 25.6432 45.3439 25.6432 45.3421 25.6434ZM19.4108 27.439C18.9482 27.4539 18.4839 27.5332 18.018 27.6768C18.0011 27.6775 17.9873 27.6919 17.9873 27.709C17.9873 27.7266 18.0018 27.7412 18.0193 27.7412C18.0198 27.7412 18.02 27.7412 18.0205 27.7412C18.4241 27.8353 18.9974 27.9641 19.4231 27.9492C19.8488 27.9368 20.4124 27.7734 20.811 27.652C20.824 27.6478 20.8331 27.6354 20.8331 27.6213C20.8331 27.6067 20.8228 27.5936 20.8085 27.5901C20.3361 27.4745 19.8703 27.4242 19.4108 27.439ZM39.5077 40.3376C39.551 40.3376 39.5865 40.3019 39.5865 40.2583V28.1251C39.5867 28.0852 39.5569 28.0508 39.5176 28.0458L36.5031 27.6223C36.4999 27.6218 36.4965 27.6216 36.4933 27.6216C36.45 27.6216 36.4146 27.6575 36.4146 27.7008C36.4146 27.7011 36.4146 27.7013 36.4146 27.7016V40.2583C36.4146 40.3019 36.45 40.3376 36.4933 40.3376H39.5077ZM54.6683 28.4743L57.8525 28.4495C57.8678 28.4483 57.8796 28.4352 57.8796 28.4198V28.4074C57.8754 28.2108 57.1554 28.0545 56.2826 28.0607H56.2285C55.3537 28.0669 54.6349 28.234 54.6364 28.4309C54.6364 28.4314 54.6364 28.4317 54.6364 28.4322V28.4446C54.6364 28.4609 54.6496 28.4743 54.6659 28.4743C54.6666 28.4743 54.6676 28.4743 54.6683 28.4743ZM43.3711 40.3376C43.4171 40.3376 43.4547 40.2997 43.4547 40.2534V28.6328C43.4552 28.5909 43.4245 28.5548 43.3834 28.5486L40.0392 28.0755C40.035 28.075 40.0311 28.0746 40.0269 28.0746C39.9809 28.0746 39.9433 28.1127 39.9433 28.1588C39.9433 28.1593 39.9433 28.1595 39.9433 28.1598V40.2534C39.9433 40.2997 39.9809 40.3376 40.0269 40.3376H43.3711ZM47.7044 40.3376C47.7505 40.3376 47.7881 40.2997 47.7881 40.2534V29.2198C47.7886 29.1779 47.7578 29.1418 47.7167 29.1356L43.9174 28.6006C43.9132 28.6001 43.9092 28.5996 43.9051 28.5996C43.859 28.5996 43.8214 28.6377 43.8214 28.6838C43.8214 28.6843 43.8214 28.6846 43.8214 28.6848V40.2534C43.8214 40.2997 43.859 40.3376 43.9051 40.3376H47.7044ZM51.8532 40.3376H56.6345C56.7194 40.3376 56.7956 40.2816 56.8239 40.1989C58.0231 36.5416 58.8189 32.9075 59.2109 29.2965C59.2114 29.2931 59.2116 29.2896 59.2116 29.2859C59.2116 29.2411 59.1749 29.2042 59.1304 29.2042C59.1267 29.2042 59.1233 29.2044 59.1198 29.2049L52.1756 29.9182C52.1695 29.9189 52.1633 29.9192 52.1572 29.9192C52.0666 29.9192 51.9923 29.8444 51.9923 29.7532C51.9923 29.7463 51.9925 29.7394 51.9935 29.7324C52.023 29.488 52.01 29.3032 51.9541 29.1777C51.9325 29.1304 51.8852 29.1001 51.8336 29.1001C51.7612 29.1001 51.7017 29.1593 51.7007 29.2321V40.184C51.7007 40.2682 51.7696 40.3376 51.8532 40.3376Z" fill="#BB4D09"></path>
  <path d="M15.7812 20.9997L15.8132 19.5707C15.8147 19.5328 15.8378 19.4991 15.8723 19.484L36.3407 10.3227C36.3538 10.3165 36.3681 10.3133 36.3826 10.3133C36.4367 10.3133 36.481 10.3582 36.481 10.4124C36.481 10.4131 36.481 10.4136 36.481 10.4144L36.3654 15.7764C36.3646 15.8207 36.3341 15.8594 36.2915 15.8705L15.9043 21.0988C15.8962 21.1007 15.888 21.102 15.8797 21.102C15.8255 21.102 15.7812 21.0572 15.7812 21.0029C15.7812 21.0019 15.7812 21.0007 15.7812 20.9997Z" fill="#BB4D09"></path>
  <path d="M32.7456 20.4821L15.9067 24.4373C15.9003 24.4388 15.8937 24.4398 15.887 24.4398C15.8412 24.4398 15.8033 24.4016 15.8033 24.3556V22.3024C15.8031 22.2645 15.8284 22.2308 15.8649 22.2207L51.6022 12.1158C51.6094 12.1139 51.617 12.1129 51.6244 12.1129C51.6704 12.1129 51.708 12.1508 51.708 12.1971V12.1976V23.9543C51.7073 24.0002 51.6699 24.0373 51.6244 24.0373C51.6194 24.0373 51.6145 24.0371 51.6096 24.0361L32.78 20.4796C32.7684 20.4781 32.7566 20.4788 32.7456 20.4821Z" fill="#BB4D09"></path>
</svg>
