<?xml version="1.0" encoding="UTF-8"?>
<svg xmlns="http://www.w3.org/2000/svg" width="360" height="204" viewBox="0 0 360 204" fill="none">
  <g clip-path="url(#clip0_6852_69)">
    <path d="M129.437 148.371C129.357 148.415 129.316 148.455 129.313 148.491C129.313 148.493 129.312 148.495 129.312 148.497C129.312 148.54 129.348 148.575 129.391 148.575C129.415 148.575 129.438 148.564 129.453 148.545C129.456 148.542 129.475 148.509 129.511 148.445C129.517 148.437 129.52 148.426 129.52 148.416C129.52 148.386 129.496 148.362 129.466 148.362C129.456 148.362 129.445 148.365 129.437 148.371Z" stroke="#88512F" stroke-width="2"></path>
    <path d="M248.724 135.187C247.096 135.456 247.434 137.898 247.417 139.226C247.142 165.836 246.954 184.491 246.852 195.192C246.84 196.528 246.679 198.469 245.021 198.539C243.397 198.608 242.253 198.116 241.59 197.062C241.354 196.689 241.222 195.429 241.195 193.28C240.895 169.343 240.734 150.112 240.712 135.585C240.712 134.087 240.345 132.994 238.984 132.436C236.565 131.44 234.832 130.351 233.784 129.171C231.256 126.324 234.073 122.621 236.349 120.771C237.368 119.943 239.042 119.227 239.776 118.102C240.455 117.054 240.793 115.75 240.79 114.192C240.769 90.0066 240.778 70.4897 240.819 55.6399C240.823 53.4716 240.539 50.9516 243.108 50.8316C245.174 50.7364 247.19 51.5764 247.199 53.9847C247.302 76.5323 247.298 95.3268 247.45 110.827C247.467 112.379 248.04 113.223 249.611 112.545C250.243 112.272 252.84 110.891 257.401 108.403C268.172 102.527 278.716 96.3116 289.083 89.3888C300.745 81.6012 311.702 72.8537 319.764 61.5116C324.415 54.9612 327.825 46.6316 328.015 38.575C328.218 29.9156 324.988 22.608 318.324 16.6523C314.44 13.1764 309.694 11.0412 304.254 8.88124C267.628 -5.66772 227.087 10.8881 202.213 38.844C200.366 40.9212 198.094 43.7019 195.397 47.1861C192.73 50.6317 190.294 54.775 188.089 59.6164C187.103 61.7793 186.469 64.1421 186.188 66.7047C185.995 68.4716 183.087 67.8799 181.945 67.4454C178.205 66.0261 180.762 59.7281 181.962 56.7819C185.512 48.084 191.091 41.4095 198.159 34.4536C210.468 22.3432 224.679 13.1586 240.795 6.89918C251.404 2.7749 262.41 0.496553 273.813 0.0633121C285.423 -0.380688 296.806 1.51283 307.962 5.74469C319.289 10.0399 329.38 16.6647 333.698 28.0233C338.691 41.1571 333.401 56.3392 324.902 66.9778C320.819 72.0869 316.571 76.5128 312.155 80.2564C303.583 87.5255 293.973 94.2604 283.322 100.462C271.328 107.444 261.757 112.833 254.609 116.629C253.838 117.038 252.964 117.775 251.879 118.139C249.153 119.058 247.586 120.891 247.401 123.932C247.294 125.695 247.364 127.458 247.611 129.221C247.686 129.749 248.024 130.202 248.506 130.421C249.215 130.743 250.021 130.999 250.922 131.186C281.894 137.583 305.369 142.514 321.347 145.979C323.875 146.525 326.23 146.811 328.378 147.763C329.192 148.121 329.451 148.786 329.157 149.757C329.107 149.931 328.96 150.06 328.782 150.088C328.032 150.212 327.38 150.232 326.828 150.146C313.97 148.201 301.05 145.905 285.586 142.594C276.258 140.597 265.834 138.42 254.312 136.065C251.794 135.549 250.082 135.251 249.178 135.171C249.028 135.157 248.875 135.163 248.724 135.187Z" fill="#BB4D09"></path>
    <path d="M164.309 105.912C164.376 105.938 164.421 106.004 164.421 106.077C164.421 106.126 164.401 106.172 164.366 106.205C164.025 106.523 163.528 106.804 162.874 107.05C160.99 107.761 158.791 108.411 156.276 108.999C150.349 110.381 143.92 111.753 136.989 113.116C135.088 113.488 134.037 114.51 132.816 116.211C117.319 137.778 97.385 155.757 73.9953 168.572C68.519 171.574 62.7017 173.949 56.5437 175.698C52.0242 176.981 47.4633 177.498 42.8613 177.25C37.987 176.985 33.2489 175.218 31.253 170.546C29.1252 165.568 31.2489 159.303 34.4571 155.029C37.7726 150.601 42.1066 146.629 46.8984 143.199C52.5202 139.171 58.5396 135.542 64.9561 132.312C66.886 131.343 66.7706 130.085 66.7706 128.157C66.7759 122.508 66.7776 94.4384 66.7747 43.9502C66.7747 43.6026 66.7994 42.4151 66.8489 40.3875C66.8901 38.7819 67.286 37.7888 68.8489 37.4247C71.653 36.7792 72.8571 38.3144 72.853 40.9502C72.8336 74.8842 72.8571 101.738 72.9231 121.512C72.9273 123.336 72.4819 125.571 73.1128 127.301C73.2291 127.624 73.5594 127.822 73.8963 127.768C74.8336 127.619 75.7273 127.36 76.5767 126.99C92.1396 120.27 108.243 115.265 124.886 111.974C128.498 111.258 130.692 108.854 132.601 105.465C140.651 91.1475 145.914 75.9613 148.391 59.9061C149.499 52.7173 149.616 45.677 148.742 38.7861C147.859 31.8344 145.715 25.3709 141.472 19.8054C137.648 14.7819 132.398 11.4621 125.723 9.84539C121.036 8.7087 116.478 8.33918 112.049 8.73642C99.2695 9.88263 86.3994 13.9709 74.8035 19.1806C59.4551 26.0744 45.2419 34.6742 32.1644 44.9806C26.5396 49.4135 21.2089 54.5115 16.1726 60.2744C11.6749 65.422 8.40477 70.8054 6.3623 76.4247C5.80436 77.9586 5.26952 78.9004 4.75818 79.2509C3.43034 80.1571 0.560238 80.2109 0.0447745 78.0633C-0.0760503 77.5614 0.0476609 76.8025 0.415908 75.7875C0.957352 74.2895 1.26416 73.4773 1.3355 73.3502C3.84807 68.8842 6.73632 64.7379 9.99941 60.9116C14.2275 55.949 18.9549 51.2123 24.1809 46.7019C39.8316 33.1904 57.051 22.4442 75.8386 14.4633C83.6984 11.124 91.4716 8.62056 99.8056 6.84539C108.997 4.88401 118.667 4.27159 127.711 6.41918C142.766 9.98608 151.703 20.7282 154.936 35.5751C157.418 46.9751 156.362 59.4178 153.571 70.8261C151.231 80.3876 147.832 89.5957 143.373 98.4509C142.05 101.077 140.59 103.851 138.993 106.772C138.792 107.139 138.637 107.604 138.527 108.167C138.468 108.47 138.636 108.775 138.923 108.891C139.814 109.247 141.447 108.8 142.42 108.676C143.443 108.546 144.178 108.429 144.626 108.324C146.07 107.996 149.456 107.381 154.787 106.479C157.465 106.023 159.991 105.718 162.366 105.564C162.944 105.526 163.591 105.641 164.309 105.912ZM124.333 116.401C123.566 116.095 122.806 116.059 122.053 116.294C119.439 117.101 115.265 118.119 109.162 119.869C97.2118 123.298 86.2592 127.284 76.3046 131.827C74.3541 132.721 72.8736 133.189 72.8943 135.183C72.9491 140.378 72.9136 144.622 72.787 147.916C72.6963 150.365 72.3169 152.633 69.3602 152.165C67.8757 151.931 67.084 151.03 66.985 149.463C66.7982 146.44 66.7306 142.96 66.7829 139.023C66.7912 138.521 66.6976 138.125 66.5025 137.836C66.1784 137.356 65.5433 137.196 65.0427 137.467C56.886 141.879 49.1829 147.01 42.9066 153.61C39.6242 157.065 36.7211 161.939 36.8242 166.644C36.9095 170.426 38.8365 172.756 42.6056 173.633C44.5136 174.08 46.3116 174.149 47.9994 173.84C54.5396 172.64 60.926 170.456 67.1582 167.29C86.2386 157.594 103.282 143.236 117.241 126.709C119.446 124.099 121.489 121.61 123.373 119.24C124.068 118.363 124.453 117.523 124.527 116.72C124.539 116.583 124.46 116.453 124.333 116.401Z" fill="#BB4D09"></path>
    <path d="M170.993 81.8081C170.639 81.6716 170.403 81.3277 170.403 80.947C170.403 80.7712 170.453 80.599 170.547 80.4509C171.834 78.4179 171.945 76.608 170.882 75.0219C170.011 73.7268 169.323 72.7254 170.35 71.5171C170.773 71.0205 171.386 70.7032 172.189 70.5654C174.024 70.2509 174.449 71.6909 174.91 73.2799C175.752 76.1652 175.163 78.8342 173.145 81.2868C172.639 81.8988 171.796 82.1197 171.059 81.833L170.993 81.8081Z" fill="#BB4D09"></path>
    <path d="M336.479 111.783C334.252 116.045 329.584 120.427 324.334 119.96C323.563 119.89 322.94 120.398 322.47 121.085C320.966 123.298 318.97 124.855 316.483 125.757C312.524 127.197 307.926 126.254 305.674 122.467C303.06 118.077 304.153 112.532 306.516 108.113C307.426 106.411 308.359 105.117 309.316 104.232C311.79 101.935 315.794 100.963 319.171 101.045C326.243 101.211 326.573 110.356 325.196 115.358C325.108 115.673 325.164 116.03 325.365 116.43C326.037 117.771 329.101 116.219 329.984 115.615C332.059 114.192 333.812 112.386 335.241 110.198C335.316 110.088 335.327 109.945 335.27 109.822C335.226 109.731 334.98 109.294 334.532 108.51C332.264 104.567 334.14 100.441 338.528 99.5847C340.043 99.2897 341.502 99.288 342.907 99.5806C344.029 99.8123 347.307 101.182 346.008 102.833C345.147 103.925 343.324 103.251 342.281 102.659C341.549 102.245 340.977 102.098 340.565 102.216C338.037 102.932 339.971 107.12 340.883 108.452C342.216 110.402 343.621 112.273 345.097 114.063C345.406 114.439 345.907 114.604 346.38 114.485C347.914 114.094 349.362 113.55 350.726 112.855C354.446 110.956 357.093 109.317 359.225 108.928C359.246 108.924 359.267 108.922 359.289 108.922C359.481 108.922 359.639 109.081 359.639 109.274C359.639 109.344 359.618 109.412 359.58 109.47C359.137 110.132 358.392 110.786 357.345 111.432C354.543 113.161 351.593 115.011 348.495 116.981C348.204 117.164 348.083 117.532 348.206 117.854C349.522 121.255 350.103 126.845 346.565 129.341C343.217 131.699 335.295 130.334 334.61 125.563C334.062 121.735 337.934 118.71 340.808 116.931C340.865 116.896 340.899 116.835 340.899 116.769C340.899 116.724 340.883 116.68 340.854 116.645L336.685 111.758C336.679 111.752 336.674 111.746 336.667 111.742C336.614 111.699 336.535 111.71 336.491 111.765C336.486 111.77 336.482 111.777 336.479 111.783ZM319.658 113.939C321.109 111.792 320.507 107.356 319.233 105.221C319.231 105.217 319.229 105.213 319.226 105.209C319.027 104.89 318.599 104.793 318.279 104.994C318.275 104.997 318.272 104.999 318.268 105.001C317.753 105.349 317.283 106.358 317.18 107.033C316.792 109.626 317.467 111.936 319.204 113.964C319.259 114.027 319.338 114.063 319.421 114.063C319.516 114.063 319.604 114.017 319.658 113.939ZM311.58 109.971C309.773 113.103 309.225 118.359 310.602 121.756C311.262 123.394 312.623 123.626 314.14 122.881C315.996 121.974 317.273 120.559 317.971 118.636C318.025 118.489 317.972 118.324 317.843 118.238C314.894 116.274 312.888 113.528 311.827 110C311.81 109.943 311.756 109.903 311.697 109.903C311.649 109.903 311.604 109.929 311.58 109.971ZM342.829 120.75C342.417 120.554 342.065 120.578 341.773 120.821C340.462 121.909 339.208 124.011 339.839 125.741C340.252 126.866 341.509 127.967 342.619 126.941C343.744 125.91 343.443 122.716 343.163 121.185C343.129 120.993 343.004 120.83 342.829 120.75Z" fill="#BB4D09"></path>
    <path d="M224.394 143.066C224.452 142.945 224.375 142.877 224.163 142.863L222.662 141.473C222.637 141.449 222.603 141.436 222.569 141.436C222.521 141.436 222.477 141.461 222.452 141.502C222.411 141.568 222.383 141.605 222.37 141.614C222.346 141.628 222.319 141.636 222.292 141.636C222.21 141.636 222.144 141.569 222.144 141.487C222.144 141.471 222.146 141.455 222.151 141.44C222.228 141.172 222.152 140.932 221.924 140.72C221.906 140.704 221.882 140.695 221.857 140.695C221.801 140.695 221.754 140.742 221.754 140.799C221.754 140.803 221.755 140.807 221.755 140.811L221.817 141.204C221.759 141.229 221.706 141.267 221.656 141.32L220.444 139.706C220.433 139.692 220.418 139.685 220.401 139.685C220.372 139.685 220.347 139.709 220.347 139.738C220.347 139.743 220.348 139.747 220.349 139.752L220.403 140.016C220.403 140.021 220.404 140.026 220.404 140.03C220.404 140.066 220.374 140.096 220.338 140.096C220.329 140.096 220.32 140.095 220.312 140.091L219.71 139.814C219.669 139.795 219.631 139.768 219.598 139.735C219.013 139.167 218.298 138.72 217.454 138.394C217.416 138.38 217.375 138.395 217.359 138.427V138.432C217.338 138.47 217.349 138.517 217.384 138.539C219.669 140.074 221.273 142.665 222.638 145.052C222.979 145.648 223.152 146.294 223.157 146.989C223.171 148.591 223.262 150.255 223.429 151.979C223.43 151.982 223.43 151.986 223.43 151.989C223.43 152.046 223.383 152.093 223.327 152.093C223.306 152.093 223.286 152.086 223.269 152.074C222.633 151.607 222.159 150.816 221.31 149.803C219.59 147.763 218.374 145.346 217.611 142.905C217.609 142.884 217.591 142.867 217.57 142.867C217.547 142.867 217.528 142.886 217.528 142.909C217.528 142.91 217.528 142.912 217.528 142.913C217.253 144.626 217.302 146.181 217.673 147.576C217.682 147.616 217.665 147.656 217.631 147.672C217.582 147.699 217.556 147.745 217.553 147.808C217.553 147.819 217.554 147.832 217.557 147.845C218.024 149.484 217.971 151.082 217.396 152.641C217.377 152.693 217.37 152.748 217.376 152.803L217.59 154.925C217.59 154.927 217.59 154.928 217.59 154.93C217.59 154.953 217.572 154.973 217.549 154.975L217.433 154.987C217.366 154.995 217.304 154.948 217.289 154.88C217.146 154.077 217.014 153.596 216.893 153.436C216.872 153.409 216.84 153.394 216.806 153.394C216.748 153.394 216.699 153.439 216.695 153.498C216.651 154.739 216.635 155.434 216.646 155.583C216.659 155.743 216.57 155.854 216.378 155.914C216.255 155.954 216.167 156.062 216.155 156.187C216.119 156.535 216.055 156.78 215.961 156.924C215.941 156.954 215.906 156.972 215.87 156.972C215.814 156.972 215.766 156.93 215.759 156.874L215.714 156.432C215.706 156.377 215.659 156.335 215.603 156.335C215.558 156.335 215.516 156.363 215.499 156.407L214.646 158.707C214.64 158.716 214.631 158.722 214.621 158.722C214.606 158.722 214.593 158.71 214.592 158.695L214.671 157.756C214.671 157.75 214.671 157.745 214.671 157.739C214.671 157.637 214.59 157.553 214.489 157.549C214.426 157.546 214.382 157.529 214.357 157.499C214.284 157.42 214.26 157.305 214.295 157.201C214.631 156.241 214.716 155.456 214.551 154.847C214.353 154.121 214.297 153.622 214.382 153.349C214.555 152.778 214.192 151.888 214.188 151.334C214.174 149.665 214.082 148.11 213.912 146.67C213.777 145.558 213.484 144.556 213.033 143.662C213.02 143.633 212.991 143.615 212.959 143.615C212.914 143.615 212.877 143.652 212.877 143.698C212.877 143.698 212.877 143.699 212.877 143.699V159.742C212.876 159.898 212.988 160.032 213.141 160.061L221.066 161.554C221.116 161.567 221.151 161.611 221.151 161.663C221.151 161.719 221.109 161.767 221.054 161.774L213.19 162.581C213.057 162.594 212.952 162.701 212.943 162.833L211.446 181.147C211.445 181.151 211.445 181.154 211.445 181.157C211.439 181.3 211.549 181.423 211.69 181.428C211.693 181.429 211.697 181.429 211.702 181.429H226.13C226.269 181.429 226.382 181.543 226.382 181.681V185.546C226.382 185.673 226.278 185.778 226.151 185.778H115.528C115.426 185.778 115.343 185.694 115.343 185.592V181.623C115.343 181.517 115.43 181.429 115.537 181.429H126.902C127.014 181.428 127.106 181.334 127.106 181.222C127.106 181.212 127.105 181.202 127.104 181.193C126.11 173.513 125.314 165.994 125.174 158.422C125.135 156.312 125.078 154.139 125 151.905C124.998 151.921 124.993 151.935 124.988 151.946C124.457 153.403 124.188 154.887 124.18 156.398C124.177 156.53 124.192 156.662 124.225 156.792C124.53 158.041 124.633 159.325 124.534 160.644C124.477 161.376 124.811 162.287 124.518 163.052C124.505 163.085 124.473 163.107 124.438 163.107C124.397 163.107 124.362 163.079 124.353 163.04C124.295 162.8 124.063 162.498 123.656 162.134C123.552 162.04 123.499 161.902 123.512 161.761C123.52 161.684 123.499 161.601 123.45 161.513C123.424 161.465 123.374 161.434 123.319 161.434C123.255 161.434 123.198 161.477 123.178 161.538C123.164 161.585 123.158 161.629 123.161 161.67C123.162 161.676 123.162 161.682 123.161 161.687C123.155 161.721 123.12 161.743 123.085 161.736C123.08 161.736 123.075 161.734 123.071 161.732C123.016 161.707 122.98 161.684 122.963 161.662C122.927 161.609 122.91 161.58 122.91 161.575C122.934 161.263 122.927 160.939 122.889 160.603C122.873 160.477 122.817 160.361 122.728 160.276C122.374 159.928 122.295 159.506 122.493 159.01C122.495 159.003 122.496 158.997 122.496 158.99C122.496 158.957 122.468 158.928 122.434 158.928C122.425 158.928 122.415 158.931 122.407 158.935C122.404 158.938 122.379 158.981 122.332 159.063C122.309 159.106 122.275 159.14 122.233 159.162C122.102 159.233 121.927 159.165 121.846 159.012C121.82 158.964 121.806 158.91 121.805 158.856C121.799 158.658 121.832 158.473 121.904 158.302C121.913 158.277 121.918 158.25 121.918 158.223C121.918 158.105 121.822 158.008 121.704 158.008C121.702 158.008 121.699 158.008 121.697 158.008C121.694 158.011 121.674 158.019 121.636 158.033C121.627 158.036 121.617 158.038 121.608 158.038C121.561 158.038 121.522 157.998 121.522 157.951C121.522 157.939 121.524 157.928 121.528 157.917C121.647 157.63 121.629 157.411 121.475 157.259C121.454 157.238 121.443 157.21 121.443 157.181C121.443 157.119 121.493 157.069 121.554 157.069C121.555 157.069 121.556 157.069 121.557 157.069C121.733 157.074 121.935 156.943 122.163 156.676C122.17 156.668 122.175 156.659 122.179 156.648C122.192 156.608 122.172 156.564 122.133 156.55C122.123 156.547 122.112 156.546 122.102 156.547C121.97 156.559 121.88 156.585 121.833 156.626C121.803 156.654 121.762 156.67 121.72 156.67C121.628 156.67 121.551 156.593 121.551 156.5C121.551 156.473 121.558 156.447 121.57 156.423C121.974 155.557 122.024 155.081 121.722 154.996C121.667 154.981 121.627 154.934 121.619 154.876L121.334 152.989C121.488 152.848 121.593 152.694 121.648 152.525C121.65 152.519 121.651 152.513 121.651 152.506C121.651 152.472 121.623 152.444 121.589 152.444C121.57 152.444 121.552 152.453 121.541 152.467C121.422 152.608 121.354 152.782 121.334 152.989C120.878 153.209 120.789 153.564 121.066 154.052C121.133 154.169 121.12 154.316 121.033 154.421C120.728 154.781 120.353 155.004 120.275 155.48C120.236 155.715 120.144 155.882 119.998 155.985C119.85 156.084 119.741 156.233 119.693 156.407C119.693 156.412 119.689 156.436 119.681 156.477C119.669 156.556 119.601 156.615 119.522 156.615C119.507 156.615 119.493 156.613 119.479 156.61C119.297 156.56 119.171 156.617 119.099 156.779C118.756 157.568 118.39 158.198 118.003 158.67C117.949 158.735 117.87 158.772 117.787 158.772C117.633 158.772 117.506 158.645 117.506 158.491C117.506 158.482 117.507 158.472 117.508 158.463L117.788 155.343C117.788 155.324 117.782 155.306 117.772 155.29C117.76 155.273 117.736 155.243 117.697 155.198C117.625 155.123 117.591 155.016 117.607 154.909C117.866 153.117 119.949 150.535 121.297 149.318C121.307 149.309 121.314 149.297 121.317 149.283C121.323 149.25 121.303 149.217 121.272 149.211C121.258 149.208 121.244 149.211 121.231 149.219C119.859 149.898 118.694 150.84 117.735 152.045C117.702 152.085 117.645 152.092 117.607 152.062L117.603 152.058C117.564 152.028 117.557 151.971 117.586 151.93C117.732 151.742 117.803 151.499 117.8 151.201C117.8 151.2 117.8 151.2 117.8 151.198C117.8 151.146 117.758 151.103 117.706 151.103C117.671 151.103 117.64 151.122 117.623 151.152C117.527 151.309 117.484 151.484 117.495 151.677C117.503 151.793 117.417 151.896 117.302 151.909C117.153 151.925 117.045 152.001 116.976 152.136C116.749 152.579 116.345 152.844 116.023 153.216C116 153.245 115.965 153.261 115.928 153.261C115.862 153.261 115.807 153.208 115.805 153.142C115.802 153.07 115.843 152.974 115.928 152.852C115.944 152.826 115.953 152.793 115.953 152.76C115.953 152.678 115.906 152.61 115.847 152.609C115.823 152.609 115.799 152.62 115.78 152.641C115.706 152.738 115.66 152.82 115.644 152.89C115.49 153.56 115.106 154.014 114.493 154.251C114.323 154.318 114.224 154.499 114.262 154.677L114.308 154.888C114.318 154.942 114.297 154.997 114.254 155.033C114.076 155.174 113.942 155.041 113.854 154.636C113.83 154.52 113.84 154.4 113.883 154.292L114.522 152.703C114.527 152.693 114.529 152.683 114.529 152.672C114.529 152.631 114.495 152.597 114.455 152.597C114.431 152.597 114.408 152.609 114.394 152.629L113.941 153.146C113.913 153.184 113.87 153.206 113.823 153.206C113.744 153.206 113.678 153.141 113.678 153.061C113.678 153.031 113.688 153.001 113.706 152.976L114.464 151.665C114.472 151.652 114.476 151.638 114.476 151.623C114.476 151.58 114.442 151.543 114.398 151.541C114.341 151.535 114.299 151.5 114.275 151.437C114.252 151.38 114.265 151.315 114.308 151.272C116.106 149.385 118.346 148.334 121.029 148.118C121.083 148.115 121.126 148.07 121.126 148.015C121.126 147.98 121.109 147.947 121.079 147.928C120.596 147.597 120.444 147.498 119.718 147.614C119.363 147.672 119.101 147.67 118.93 147.61C118.917 147.605 118.906 147.598 118.896 147.588C118.866 147.554 118.869 147.5 118.904 147.468C118.914 147.459 118.926 147.452 118.939 147.448C118.999 147.432 119.073 147.432 119.161 147.448C119.263 147.462 119.332 147.436 119.367 147.37C119.389 147.328 119.391 147.274 119.372 147.208C119.36 147.172 119.322 147.145 119.256 147.125C118.808 146.982 118.456 146.998 118.2 147.175C118.2 147.175 118.2 147.175 118.2 147.175C118.16 147.201 118.107 147.191 118.083 147.153C118.082 147.152 118.081 147.151 118.081 147.15C118.053 147.106 118.057 147.046 118.093 146.968C118.097 146.96 118.099 146.952 118.099 146.943C118.099 146.918 118.083 146.895 118.06 146.885C117.755 146.736 117.501 146.772 117.297 146.993C117.282 147.008 117.261 147.017 117.239 147.017C117.194 147.017 117.157 146.98 117.157 146.934C117.157 146.932 117.157 146.929 117.157 146.927C117.185 146.725 116.993 146.538 116.584 146.364C116.571 146.358 116.557 146.355 116.542 146.355C116.483 146.355 116.435 146.404 116.435 146.463C116.435 146.484 116.441 146.504 116.452 146.521C116.488 146.579 116.547 146.6 116.629 146.583C116.631 146.583 116.632 146.583 116.634 146.583C116.656 146.583 116.675 146.602 116.675 146.624C116.675 146.626 116.675 146.627 116.675 146.629C116.661 146.761 116.58 146.839 116.431 146.861C116.37 146.871 116.307 146.859 116.254 146.827C116.226 146.808 116.193 146.777 116.155 146.732C116.067 146.636 115.922 146.616 115.809 146.683L114.415 147.506C114.405 147.513 114.393 147.516 114.381 147.516C114.347 147.516 114.319 147.488 114.319 147.454C114.319 147.451 114.32 147.447 114.32 147.444C114.342 147.314 114.372 147.225 114.411 147.175C114.426 147.156 114.435 147.132 114.435 147.107C114.435 147.068 114.415 147.033 114.382 147.014C114.354 146.997 114.315 146.996 114.262 147.01C114.218 147.018 114.191 147.027 114.18 147.038C113.787 147.406 113.431 147.732 113.112 148.019C113.102 148.028 113.09 148.033 113.076 148.033C113.047 148.033 113.023 148.008 113.023 147.979C113.023 147.97 113.025 147.961 113.029 147.953L113.871 146.492C113.882 146.471 113.888 146.447 113.888 146.422C113.888 146.34 113.821 146.273 113.74 146.273C113.713 146.273 113.687 146.28 113.664 146.294L112.481 146.993C112.459 147.005 112.435 147.012 112.41 147.012C112.331 147.012 112.266 146.946 112.266 146.867C112.266 146.833 112.278 146.8 112.299 146.774C113.426 145.414 114.794 144.727 116.403 144.713C118.506 144.696 120.456 145.324 122.254 146.596C122.262 146.601 122.271 146.601 122.279 146.596L122.394 146.521C122.396 146.52 122.398 146.519 122.4 146.518C122.41 146.508 122.409 146.491 122.398 146.479C122.397 146.478 122.396 146.477 122.394 146.476L120.815 145.085C120.812 145.083 120.81 145.081 120.808 145.078C120.767 145.033 120.77 144.963 120.814 144.924C120.817 144.921 120.82 144.918 120.823 144.916C120.867 144.883 120.899 144.857 120.918 144.837C120.918 144.837 120.919 144.836 120.919 144.836C120.981 144.766 120.976 144.66 120.908 144.599C120.907 144.598 120.906 144.598 120.906 144.597L117.504 141.605C117.393 141.505 117.258 141.434 117.112 141.398C116.754 141.31 116.341 140.997 115.871 140.459C115.857 140.445 115.849 140.425 115.849 140.405C115.849 140.362 115.885 140.327 115.927 140.327C115.936 140.327 115.945 140.328 115.953 140.331C117.875 140.894 119.622 141.709 121.194 142.776C121.367 142.895 121.838 143.447 122.605 144.432C122.621 144.451 122.645 144.463 122.671 144.463C122.719 144.463 122.758 144.424 122.758 144.376C122.758 144.372 122.758 144.369 122.757 144.365C122.735 144.233 122.657 144.062 122.522 143.852C122.401 143.662 122.367 143.488 122.419 143.331C122.51 143.063 122.429 142.783 122.176 142.491C122.027 142.32 121.989 142.072 122.06 141.746C122.192 141.13 121.673 140.658 121.137 140.174C120.996 140.048 120.973 139.833 121.083 139.677C121.248 139.451 121.218 139.215 120.992 138.97C120.976 138.955 120.967 138.934 120.967 138.912C120.967 138.868 121.003 138.833 121.046 138.833C121.066 138.833 121.085 138.84 121.099 138.854C121.432 139.107 121.505 139.361 121.318 139.615C121.298 139.642 121.288 139.673 121.288 139.706C121.288 139.786 121.35 139.853 121.429 139.859C121.473 139.862 121.601 139.807 121.813 139.694C121.815 139.692 121.817 139.691 121.82 139.69C121.915 139.639 121.951 139.515 121.898 139.417C121.897 139.416 121.896 139.414 121.895 139.412L121.31 138.419C121.299 138.4 121.294 138.379 121.294 138.357C121.294 138.284 121.354 138.224 121.426 138.224C121.454 138.224 121.481 138.233 121.504 138.25C122.331 138.923 123.032 139.826 123.607 140.96C123.714 141.167 123.868 141.345 124.069 141.494C124.162 141.562 124.21 141.676 124.192 141.787C124.156 142.058 124.236 142.196 124.431 142.201C124.522 142.203 124.598 142.276 124.609 142.371C124.625 142.5 124.62 142.607 124.592 142.69C124.537 142.858 124.584 143.043 124.712 143.161C125.039 143.459 125.233 143.949 125.293 144.63C125.298 144.697 125.354 144.75 125.421 144.75C125.47 144.75 125.516 144.721 125.537 144.676C126.166 143.327 127.131 142.332 128.431 141.692C128.446 141.686 128.461 141.683 128.477 141.683C128.538 141.683 128.588 141.733 128.588 141.794C128.588 141.812 128.584 141.83 128.576 141.845C128.254 142.403 128.125 142.943 128.188 143.467C128.204 143.607 128.16 143.747 128.069 143.852L127.759 144.204C127.734 144.232 127.72 144.269 127.72 144.307C127.72 144.391 127.789 144.46 127.873 144.46C127.883 144.46 127.893 144.458 127.904 144.456C128.17 144.407 128.381 144.425 128.535 144.51C128.58 144.536 128.608 144.584 128.608 144.636C128.608 144.7 128.566 144.756 128.506 144.775C127.97 144.943 127.428 145.397 126.881 146.136C126.86 146.163 126.849 146.196 126.849 146.23C126.849 146.304 126.903 146.368 126.976 146.381C127.875 146.554 128.518 145.992 129.359 146.033C130.353 146.083 130.683 146.285 131.714 146.149C131.866 146.127 132.024 146.155 132.163 146.227C132.925 146.625 133.656 146.764 134.357 146.645C134.366 146.644 134.375 146.643 134.384 146.643C134.466 146.643 134.533 146.71 134.533 146.792C134.533 146.814 134.527 146.836 134.518 146.856C134.504 146.884 134.377 146.964 134.134 147.096C133.978 147.179 133.932 147.444 134.064 147.56C134.183 147.665 134.284 147.683 134.37 147.614C134.526 147.487 134.631 147.488 134.683 147.618C134.699 147.663 134.679 147.714 134.638 147.734L133.355 148.371C133.244 148.426 133.109 148.397 133.033 148.301C133.022 148.289 132.993 148.26 132.947 148.214C132.923 148.192 132.891 148.18 132.859 148.18C132.815 148.18 132.773 148.202 132.749 148.238C132.573 148.506 132.257 148.448 131.8 148.065C131.774 148.042 131.74 148.03 131.706 148.03C131.624 148.03 131.557 148.097 131.557 148.179C131.557 148.206 131.564 148.232 131.578 148.255L131.751 148.545C131.762 148.563 131.768 148.584 131.768 148.606C131.768 148.672 131.714 148.726 131.648 148.726C131.625 148.726 131.602 148.719 131.582 148.706C131.511 148.659 131.37 148.567 131.161 148.429C130.942 148.285 130.785 148.217 130.691 148.222C130.323 148.241 130.077 148.471 129.953 148.913C129.933 148.99 129.864 149.043 129.785 149.043C129.765 149.043 129.745 149.04 129.726 149.033C129.523 148.958 129.234 148.967 128.86 149.058C128.735 149.089 128.603 149.053 128.51 148.963C128.292 148.747 128.034 148.656 127.735 148.69C127.67 148.697 127.621 148.752 127.621 148.817C127.621 148.871 127.655 148.92 127.706 148.938C130.192 149.844 132.163 150.701 133.97 152.741C133.987 152.756 133.997 152.779 133.997 152.803C133.997 152.849 133.96 152.886 133.914 152.886C133.893 152.886 133.873 152.878 133.858 152.865L133.05 152.269C133.038 152.261 133.022 152.263 133.013 152.273L132.93 152.372C132.896 152.412 132.898 152.473 132.934 152.513C133.116 152.706 133.222 152.849 133.252 152.943C133.256 152.955 133.257 152.968 133.256 152.981C133.25 153.033 133.205 153.072 133.156 153.067C133.144 153.066 133.131 153.062 133.12 153.055L129.714 151.081C129.564 150.994 129.368 151.039 129.269 151.185C129.227 151.246 129.205 151.277 129.203 151.28C129.183 151.294 129.16 151.302 129.135 151.302C129.097 151.302 129.062 151.283 129.042 151.251C128.8 150.876 128.452 150.6 127.998 150.423C127.987 150.418 127.975 150.416 127.963 150.416C127.913 150.416 127.872 150.457 127.872 150.507C127.872 150.53 127.88 150.552 127.895 150.568L128.963 151.768C128.969 151.774 128.973 151.78 128.978 151.786C129.041 151.875 129.022 151.999 128.935 152.061C128.929 152.066 128.921 152.07 128.914 152.074C128.909 152.077 128.896 152.08 128.877 152.083C128.871 152.083 128.866 152.084 128.861 152.086C128.823 152.1 128.803 152.145 128.817 152.185C128.819 152.19 128.821 152.194 128.823 152.198L129.433 153.196C129.513 153.322 129.526 153.482 129.466 153.622C129.464 153.627 129.457 153.64 129.446 153.659C129.402 153.727 129.411 153.815 129.466 153.87C129.719 154.121 129.784 154.343 129.66 154.536C129.594 154.642 129.615 154.783 129.71 154.867L130.691 155.732C130.722 155.76 130.739 155.8 130.739 155.842C130.739 155.923 130.672 155.99 130.591 155.99C130.583 155.99 130.575 155.99 130.567 155.989C130.485 155.975 130.334 155.927 130.114 155.844C130.1 155.839 130.086 155.836 130.071 155.836C130.008 155.836 129.956 155.888 129.956 155.952C129.956 155.974 129.962 155.995 129.974 156.014C130.073 156.171 130.257 156.321 130.526 156.465C130.638 156.523 130.725 156.619 130.774 156.734C131.098 157.492 131.201 158.183 131.083 158.807C131.08 158.82 131.079 158.834 131.079 158.848C131.081 158.959 131.171 159.049 131.28 159.048C131.294 159.048 131.308 159.046 131.322 159.043L167.306 151.346C167.363 151.335 167.422 151.335 167.479 151.346L211.603 159.651C211.612 159.653 211.622 159.654 211.631 159.654C211.704 159.654 211.763 159.595 211.763 159.523C211.928 155.914 211.982 151.356 211.924 145.847C211.916 145.094 211.851 144.404 211.73 143.778C211.724 143.75 211.699 143.73 211.67 143.73C211.65 143.73 211.631 143.74 211.619 143.757L208.761 148.723C208.744 148.757 208.708 148.779 208.669 148.779C208.613 148.779 208.566 148.732 208.566 148.675C208.566 148.67 208.567 148.666 208.568 148.661C208.631 148.07 208.639 147.724 208.592 147.622C208.576 147.59 208.543 147.569 208.507 147.569C208.469 147.569 208.433 147.594 208.419 147.63C207.916 149.076 207.257 150.332 206.444 151.4C205.928 152.074 205.916 152.91 205.273 153.473C205.266 153.479 205.26 153.484 205.252 153.488C205.178 153.536 205.077 153.512 205.028 153.436C205.024 153.429 205.02 153.422 205.017 153.415C204.701 152.7 204.649 151.942 204.86 151.139C205.061 150.378 205.135 149.968 205.083 149.91C205.034 149.812 205.037 149.695 205.091 149.6L206.036 147.924C206.037 147.92 206.038 147.915 206.038 147.91C206.038 147.89 206.022 147.873 206.001 147.873C205.994 147.873 205.988 147.875 205.982 147.878L205.351 148.288C205.331 148.301 205.308 148.309 205.284 148.309C205.218 148.309 205.165 148.255 205.165 148.189C205.165 148.162 205.174 148.135 205.19 148.114C205.231 148.056 205.314 147.979 205.438 147.883C205.487 147.844 205.528 147.753 205.561 147.61C205.787 146.6 206.07 145.86 206.411 145.392C206.483 145.29 206.519 145.166 206.514 145.04C206.5 144.648 206.654 144.271 206.976 143.91C207.01 143.874 207.007 143.816 206.972 143.782C206.953 143.763 206.928 143.753 206.902 143.753C206.875 143.753 206.85 143.763 206.831 143.782C206.477 144.132 206.313 144.592 206.341 145.16C206.341 145.162 206.341 145.163 206.341 145.164C206.341 145.253 206.268 145.326 206.18 145.326C206.142 145.326 206.106 145.313 206.077 145.288C205.989 145.214 205.965 145.082 206.007 144.895C206.32 143.51 207.024 142.255 208.118 141.13C208.137 141.109 208.149 141.082 208.149 141.055C208.149 140.995 208.1 140.947 208.041 140.947C208.023 140.947 208.006 140.951 207.99 140.96C207.438 141.244 206.948 141.604 206.522 142.04C206.423 142.142 206.284 142.193 206.143 142.181C205.981 142.164 205.879 142.167 205.838 142.189C203.828 143.386 202.041 144.648 200.477 145.975C200.47 145.979 200.462 145.981 200.455 145.981C200.429 145.981 200.409 145.961 200.409 145.935C200.409 145.927 200.411 145.92 200.415 145.913L201.875 144.121C201.877 144.118 201.878 144.115 201.878 144.11C201.878 144.105 201.876 144.099 201.871 144.096L201.788 144.022C201.778 144.015 201.765 144.015 201.755 144.022L200.254 145.205C200.24 145.217 200.222 145.223 200.204 145.223C200.158 145.223 200.121 145.185 200.121 145.14C200.121 145.127 200.124 145.114 200.13 145.102C201.132 143.227 202.852 142.445 204.551 140.972C204.823 140.735 205.266 140.516 205.879 140.314C205.94 140.292 205.981 140.232 205.981 140.167C205.981 140.081 205.91 140.01 205.824 140.01C205.815 140.01 205.805 140.011 205.796 140.012L204.869 140.211C204.81 140.221 204.751 140.21 204.704 140.178C204.019 139.723 203.139 139.549 202.064 139.656C201.946 139.67 201.826 139.65 201.718 139.598L200.469 139.019C200.138 138.869 199.925 138.538 199.924 138.175V130.404C199.924 130.3 199.864 130.206 199.772 130.164L173.376 117.974C173.301 117.94 173.214 117.944 173.141 117.986L138.984 138.204C138.957 138.221 138.925 138.23 138.893 138.23C138.798 138.23 138.72 138.151 138.72 138.056C138.72 138.055 138.72 138.055 138.72 138.055V137.376C138.72 137.181 138.82 136.998 138.984 136.892L174.213 113.997C174.328 113.923 174.474 113.915 174.596 113.976C187.597 120.63 198.551 126.274 207.458 130.909C207.648 131.005 207.851 131.028 208.069 130.975C208.163 130.953 208.231 130.867 208.231 130.77C208.231 130.726 208.217 130.684 208.192 130.648L207.433 129.572C207.402 129.528 207.385 129.474 207.385 129.42C207.385 129.329 207.431 129.244 207.508 129.196C207.519 129.19 207.527 129.186 207.532 129.183C207.609 129.146 207.658 129.068 207.658 128.982C207.658 128.914 207.627 128.849 207.574 128.807C207.288 128.589 207.098 128.385 207.005 128.194C206.997 128.179 206.993 128.162 206.993 128.145C206.993 128.086 207.041 128.037 207.1 128.037C207.114 128.037 207.128 128.04 207.141 128.045C208.642 128.647 210.049 129.838 211.363 131.621C211.384 131.648 211.416 131.665 211.45 131.665C211.509 131.665 211.558 131.616 211.558 131.558C211.558 131.555 211.557 131.553 211.557 131.55C211.511 130.891 211.504 130.519 211.537 130.433C211.552 130.393 211.59 130.367 211.633 130.367C211.677 130.367 211.716 130.395 211.73 130.437C211.904 130.967 211.937 131.381 211.829 131.678C211.828 131.684 211.827 131.689 211.827 131.695C211.827 131.726 211.853 131.753 211.885 131.753C211.897 131.753 211.91 131.748 211.92 131.741C212.099 131.58 212.196 131.402 212.213 131.207C212.397 129.171 212.496 128.128 212.51 128.078C212.514 128.061 212.523 128.044 212.536 128.031C212.573 127.994 212.633 127.994 212.668 128.029C212.68 128.042 212.688 128.057 212.691 128.074L212.906 129.419L212.91 129.423L213.017 129.411C213.022 129.411 213.025 129.405 213.025 129.398L213.326 127.164C213.333 127.125 213.368 127.096 213.408 127.096C213.434 127.096 213.459 127.109 213.475 127.131C213.513 127.186 213.535 127.218 213.541 127.226C213.553 127.236 213.568 127.241 213.584 127.241C213.616 127.241 213.644 127.219 213.652 127.189C214.213 125.305 215.157 123.684 216.485 122.327C216.517 122.294 216.57 122.292 216.605 122.323C216.636 122.359 216.639 122.412 216.613 122.451L215.751 123.638C215.739 123.655 215.741 123.677 215.755 123.688C215.755 123.688 215.755 123.688 215.755 123.688L215.85 123.771C215.852 123.773 215.854 123.775 215.857 123.777C215.899 123.81 215.961 123.804 215.993 123.762C215.995 123.76 215.997 123.757 215.998 123.754C216.221 123.415 216.453 123.245 216.695 123.245C216.737 123.247 216.772 123.282 216.772 123.324C216.772 123.34 216.767 123.356 216.757 123.37L215.689 124.76C215.68 124.77 215.676 124.782 215.676 124.795C215.676 124.812 215.684 124.828 215.697 124.838L215.747 124.872C215.749 124.873 215.751 124.874 215.753 124.874C215.756 124.874 215.758 124.873 215.759 124.872L217.05 123.796C217.061 123.787 217.075 123.782 217.089 123.782C217.123 123.782 217.151 123.81 217.151 123.844C217.151 123.849 217.15 123.853 217.149 123.858C217.099 124.056 216.87 124.409 216.46 124.917C216.448 124.932 216.446 124.953 216.456 124.971C216.478 125.009 216.502 125.038 216.526 125.058C216.56 125.084 216.606 125.084 216.638 125.058C216.921 124.843 217.186 124.691 217.433 124.603C217.444 124.599 217.454 124.597 217.465 124.597C217.52 124.597 217.564 124.642 217.564 124.697C217.564 124.728 217.549 124.758 217.524 124.776C216.897 125.226 216.404 125.739 216.044 126.316C215.982 126.413 215.953 126.526 215.961 126.638L216.048 128.041C216.048 128.042 216.048 128.042 216.048 128.043C216.048 128.05 216.053 128.056 216.06 128.056C216.066 128.056 216.072 128.052 216.073 128.045C216.078 128.029 216.004 128.032 215.85 128.054C215.81 128.059 215.779 128.089 215.772 128.128C215.766 128.158 215.789 128.203 215.842 128.261C215.916 128.347 215.927 128.47 215.871 128.567L215.359 129.456C215.349 129.475 215.343 129.497 215.343 129.518C215.343 129.587 215.398 129.643 215.466 129.643H215.681C215.762 129.643 215.829 129.71 215.829 129.792C215.829 129.823 215.819 129.853 215.8 129.878C215.435 130.394 215.222 130.898 215.161 131.389C215.16 131.396 215.159 131.403 215.159 131.41C215.159 131.467 215.205 131.514 215.262 131.514C215.302 131.514 215.338 131.491 215.355 131.455C216.308 129.841 217.45 128.525 219.223 127.512C221.219 126.37 222.848 125.368 224.745 125.078C224.8 125.071 224.852 125.107 224.864 125.161L224.885 125.269C224.886 125.272 224.886 125.275 224.886 125.278C224.886 125.298 224.871 125.315 224.852 125.318C224.255 125.454 223.695 125.694 223.17 126.038C223.101 126.083 223.059 126.159 223.059 126.24C223.059 126.372 223.167 126.48 223.299 126.48C223.312 126.48 223.325 126.479 223.339 126.477C223.561 126.441 223.689 126.43 223.722 126.444C223.736 126.451 223.749 126.462 223.757 126.475C223.785 126.517 223.775 126.573 223.736 126.6C223.722 126.609 223.706 126.614 223.689 126.614C223.475 126.622 222.993 126.87 222.246 127.358C222.143 127.425 222.007 127.407 221.924 127.317C221.792 127.172 221.627 127.301 221.603 127.45C221.602 127.453 221.602 127.457 221.602 127.462C221.602 127.505 221.637 127.54 221.68 127.54C221.692 127.54 221.703 127.537 221.714 127.532C221.796 127.494 221.851 127.478 221.879 127.487C221.912 127.49 221.938 127.519 221.938 127.553C221.938 127.577 221.925 127.599 221.904 127.611L220.774 128.31C220.722 128.342 220.697 128.402 220.712 128.459C220.737 128.545 220.694 128.662 220.584 128.811C220.51 128.907 220.394 128.965 220.238 128.985C219.902 129.026 219.776 129.233 219.858 129.605C219.862 129.622 219.864 129.638 219.864 129.655C219.864 129.754 219.794 129.839 219.697 129.858C218.761 130.044 218.984 130.905 218.275 131.244C218.08 131.338 217.971 131.499 217.949 131.728C217.944 131.811 217.912 131.892 217.858 131.96L215.73 134.625C215.703 134.658 215.703 134.707 215.73 134.741V134.745C215.756 134.772 215.799 134.774 215.829 134.749C218.819 132.25 222.328 130.983 226.13 131.885C226.274 131.918 226.386 132.031 226.419 132.175C226.422 132.18 226.423 132.187 226.423 132.196C226.424 132.204 226.426 132.213 226.429 132.221C226.457 132.319 226.559 132.377 226.655 132.35C226.663 132.347 226.671 132.344 226.679 132.341L226.869 132.254C226.874 132.251 226.88 132.248 226.886 132.246C227.045 132.185 227.226 132.267 227.288 132.428C227.29 132.433 227.292 132.439 227.293 132.444C227.299 132.461 227.307 132.517 227.318 132.614C227.323 132.649 227.339 132.681 227.363 132.705L229.549 134.625C229.563 134.635 229.572 134.653 229.572 134.671C229.572 134.702 229.546 134.729 229.514 134.729C229.506 134.729 229.498 134.727 229.491 134.724C229.038 134.553 228.533 134.23 227.978 133.756C227.948 133.73 227.91 133.716 227.87 133.716C227.785 133.716 227.713 133.782 227.706 133.867C227.706 133.887 227.735 133.96 227.792 134.087C227.803 134.107 227.808 134.131 227.808 134.154C227.808 134.235 227.741 134.303 227.659 134.303C227.625 134.303 227.592 134.291 227.565 134.269C227.332 134.09 227.106 133.947 226.889 133.843C226.877 133.837 226.864 133.834 226.85 133.834C226.798 133.834 226.756 133.877 226.756 133.93C226.756 133.947 226.76 133.964 226.77 133.979L228.023 135.92C228.034 135.939 228.04 135.96 228.04 135.982C228.04 136.05 227.984 136.106 227.916 136.106C227.889 136.106 227.863 136.097 227.842 136.081L225.652 134.335C225.636 134.321 225.615 134.314 225.594 134.314C225.544 134.314 225.504 134.355 225.504 134.405C225.504 134.407 225.504 134.408 225.504 134.41C225.506 134.437 225.512 134.473 225.52 134.517C225.522 134.525 225.523 134.532 225.523 134.539C225.523 134.589 225.487 134.633 225.438 134.641C224.659 134.798 223.964 134.621 223.351 134.107C223.334 134.093 223.312 134.084 223.289 134.084C223.26 134.084 223.233 134.098 223.215 134.12C223.193 134.173 223.206 134.234 223.248 134.273L224.056 135.022C224.072 135.038 224.08 135.06 224.08 135.082C224.08 135.13 224.041 135.169 223.994 135.169C223.987 135.169 223.98 135.168 223.974 135.167C223.773 135.103 223.198 134.936 222.25 134.666C222.219 134.657 222.186 134.655 222.153 134.659C222.03 134.676 221.94 134.782 221.955 134.894C221.958 134.923 221.969 134.952 221.986 134.976C221.994 134.99 222.051 135.001 222.155 135.01C222.2 135.015 222.236 135.054 222.236 135.1C222.236 135.115 222.232 135.129 222.225 135.142C222.2 135.189 222.165 135.225 222.118 135.25C222.069 135.274 222.026 135.281 221.99 135.27C221.432 135.118 221.033 135.052 220.794 135.072C220.743 135.077 220.699 135.108 220.679 135.154C220.646 135.223 220.646 135.286 220.679 135.341C220.702 135.379 220.744 135.4 220.786 135.394C220.959 135.372 221.071 135.379 221.12 135.415C221.155 135.435 221.176 135.472 221.176 135.512C221.176 135.574 221.126 135.624 221.064 135.624C221.045 135.624 221.026 135.619 221.009 135.61C220.64 135.455 220.325 135.398 220.064 135.44C219.965 135.454 219.89 135.54 219.89 135.641C219.89 135.698 219.915 135.753 219.957 135.792L220.283 136.081C220.302 136.098 220.313 136.122 220.313 136.147C220.313 136.195 220.274 136.234 220.227 136.234C220.226 136.234 220.226 136.234 220.225 136.234C220.17 136.234 219.652 136.135 218.671 135.936C218.497 135.9 218.379 135.927 218.316 136.015C218.3 136.037 218.292 136.063 218.292 136.09C218.292 136.16 218.35 136.218 218.42 136.218C218.422 136.218 218.425 136.218 218.427 136.218C218.449 136.218 218.477 136.211 218.51 136.197C218.578 136.168 218.659 136.188 218.708 136.247C218.765 136.316 218.772 136.4 218.728 136.499C218.703 136.556 218.646 136.592 218.584 136.59C217.803 136.538 217.41 136.513 217.405 136.516C217.365 136.531 217.34 136.57 217.34 136.612C217.34 136.652 217.364 136.69 217.4 136.706C217.755 136.869 218.04 136.954 218.254 136.963C221.036 137.087 223.457 137.964 225.516 139.594C226.036 140.004 227.009 141.237 227.029 142.052C227.043 142.656 227.121 143.023 227.264 143.153C227.284 143.168 227.296 143.191 227.296 143.216C227.296 143.259 227.26 143.294 227.217 143.294C227.214 143.294 227.21 143.294 227.207 143.294C227.135 143.291 227.069 143.309 227.009 143.347C226.995 143.356 226.99 143.374 226.996 143.389C227.428 144.379 227.677 145.385 227.743 146.405C227.743 146.406 227.743 146.407 227.743 146.408C227.743 146.465 227.696 146.512 227.64 146.512C227.612 146.512 227.585 146.5 227.565 146.48L224.394 143.066ZM124.287 142.4C124.331 142.441 124.353 142.505 124.353 142.59C124.353 142.592 124.352 142.594 124.352 142.596C124.352 142.613 124.366 142.626 124.382 142.626C124.396 142.626 124.408 142.616 124.411 142.603C124.441 142.534 124.444 142.481 124.419 142.445C124.4 142.418 124.361 142.393 124.304 142.371C124.301 142.37 124.298 142.369 124.295 142.369C124.286 142.369 124.279 142.376 124.279 142.385C124.279 142.391 124.282 142.397 124.287 142.4ZM129.438 148.371C129.358 148.415 129.317 148.455 129.314 148.491C129.314 148.493 129.313 148.495 129.313 148.497C129.313 148.54 129.349 148.575 129.392 148.575C129.416 148.575 129.439 148.564 129.454 148.545C129.457 148.542 129.476 148.509 129.512 148.445C129.518 148.437 129.52 148.426 129.52 148.416C129.52 148.386 129.497 148.362 129.467 148.362C129.457 148.362 129.446 148.365 129.438 148.371ZM118.403 150.758C118.317 150.811 118.282 150.881 118.295 150.97C118.381 150.917 118.416 150.847 118.403 150.758ZM128.456 155.654C128.36 155.748 128.372 155.877 128.493 156.043C128.511 156.068 128.521 156.098 128.521 156.129C128.521 156.211 128.454 156.278 128.372 156.278C128.337 156.278 128.302 156.265 128.275 156.241C127.571 155.596 127.069 154.95 126.77 154.305C126.724 154.202 126.611 154.145 126.502 154.168L126.345 154.201C126.331 154.204 126.317 154.205 126.303 154.205C126.197 154.205 126.108 154.121 126.102 154.015L126.052 153.01C126.05 152.975 126.021 152.948 125.986 152.948C125.973 152.948 125.96 152.952 125.949 152.96L125.73 153.101C125.697 153.12 125.678 153.157 125.681 153.196L126.015 159.965C126.015 159.972 126.016 159.977 126.017 159.984C126.033 160.107 126.146 160.196 126.267 160.18C126.274 160.179 126.28 160.178 126.287 160.176L130.036 159.378C130.156 159.351 130.242 159.243 130.242 159.119C130.242 159.092 130.238 159.065 130.229 159.038C130.13 158.729 130.113 158.489 130.176 158.318C130.219 158.195 130.179 158.056 130.077 157.975C129.909 157.848 129.733 157.397 129.549 156.622C129.537 156.576 129.495 156.545 129.45 156.547L129.322 156.556C129.311 156.556 129.301 156.565 129.301 156.576C129.301 156.578 129.301 156.579 129.302 156.581L129.433 157.71C129.435 157.717 129.436 157.724 129.436 157.731C129.436 157.793 129.385 157.843 129.324 157.843C129.277 157.843 129.235 157.813 129.219 157.768C128.831 156.891 128.655 156.223 128.691 155.765C128.691 155.762 128.692 155.76 128.692 155.757C128.692 155.68 128.628 155.616 128.551 155.616C128.516 155.616 128.482 155.63 128.456 155.654ZM166.514 157.027C167.416 157.022 168.325 156.89 169.244 156.63C169.271 156.623 169.29 156.598 169.29 156.57C169.29 156.542 169.271 156.517 169.244 156.51C168.456 156.303 167.339 156.026 166.506 156.03C165.673 156.034 164.559 156.328 163.772 156.543C163.738 156.543 163.71 156.571 163.71 156.605C163.71 156.639 163.738 156.667 163.772 156.667C164.692 156.916 165.607 157.036 166.514 157.027ZM188.25 156.779C175.362 158.481 161.743 160.524 147.392 162.907C147.28 162.927 147.165 162.931 147.05 162.92L126.242 160.901C126.237 160.9 126.232 160.9 126.227 160.9C126.123 160.899 126.036 160.982 126.035 161.084C126.035 161.089 126.035 161.094 126.036 161.099C126.517 167.963 127.895 174.627 130.172 181.094C130.214 181.212 130.326 181.292 130.452 181.292H140.819C140.923 181.292 141.009 181.206 141.009 181.102V179.215C141.009 179.052 141.143 178.917 141.306 178.917H141.409C141.526 178.917 141.623 179.014 141.623 179.132C141.623 179.134 141.623 179.135 141.623 179.136L141.582 180.92C141.58 180.987 141.633 181.046 141.702 181.052L144.98 181.371C144.993 181.372 145.007 181.373 145.021 181.373C145.26 181.373 145.457 181.176 145.458 180.936L145.462 179.021C145.462 178.851 145.6 178.711 145.772 178.706H145.792C145.96 178.706 146.097 178.846 146.097 179.016L146.106 181.032C146.106 181.147 146.2 181.243 146.316 181.243H150.143C150.249 181.243 150.337 181.155 150.337 181.048V178.834C150.337 178.714 150.435 178.615 150.555 178.615H150.695C150.822 178.615 150.926 178.72 150.926 178.847C150.926 178.848 150.926 178.85 150.926 178.851L150.881 180.858C150.881 180.859 150.881 180.861 150.881 180.862C150.878 181.121 151.087 181.336 151.343 181.338C151.344 181.338 151.346 181.338 151.347 181.338H153.499C153.751 181.338 153.957 181.13 153.957 180.878V178.781C153.957 178.647 154.064 178.537 154.196 178.532L167.409 178.259C167.432 178.257 167.45 178.239 167.45 178.218V178.106C167.45 178.099 167.444 178.094 167.438 178.094L154.221 177.8C154.089 177.798 153.982 177.688 153.982 177.556V169.387C153.982 169.285 153.909 169.196 153.809 169.176L151.033 168.655C151.025 168.653 151.017 168.653 151.009 168.653C150.935 168.653 150.873 168.713 150.873 168.787V177.552C150.873 177.557 150.872 177.562 150.872 177.567C150.862 177.667 150.775 177.741 150.678 177.732C150.673 177.731 150.668 177.73 150.662 177.73L150.547 177.709C150.459 177.693 150.394 177.614 150.394 177.523V168.792C150.394 168.669 150.306 168.563 150.184 168.539L146.2 167.79C146.191 167.789 146.181 167.787 146.172 167.787C146.088 167.787 146.019 167.856 146.019 167.94C146.019 167.942 146.019 167.942 146.019 167.943L146.044 177.51C146.044 177.638 145.939 177.742 145.813 177.742C145.81 177.742 145.807 177.742 145.805 177.742H145.788C145.657 177.727 145.556 177.614 145.557 177.481L145.619 167.914C145.619 167.773 145.518 167.651 145.38 167.625L141.833 166.958C141.826 166.957 141.82 166.956 141.813 166.956C141.691 166.944 141.582 167.033 141.57 167.153C141.57 167.16 141.57 167.167 141.57 167.174V177.44C141.57 177.522 141.502 177.589 141.421 177.589C141.42 177.589 141.418 177.589 141.417 177.589H141.302C141.208 177.587 141.132 177.509 141.132 177.415V167.165C141.132 167.051 141.051 166.951 140.939 166.93L138.926 166.553C138.802 166.529 138.711 166.419 138.712 166.292V165.125C138.712 164.993 138.81 164.879 138.939 164.861L188.328 156.978C188.339 156.975 188.347 156.966 188.345 156.957L188.324 156.837C188.32 156.804 188.292 156.779 188.259 156.779C188.256 156.779 188.253 156.779 188.25 156.779ZM144.794 159.779C144.019 159.804 143.241 159.936 142.46 160.176C142.432 160.178 142.409 160.202 142.409 160.23C142.409 160.26 142.433 160.284 142.462 160.284C142.463 160.284 142.464 160.284 142.464 160.284C143.141 160.441 144.102 160.656 144.815 160.632C145.528 160.611 146.473 160.338 147.141 160.135C147.163 160.128 147.178 160.107 147.178 160.084C147.178 160.059 147.16 160.037 147.137 160.032C146.345 159.838 145.564 159.754 144.794 159.779ZM178.473 181.33C178.545 181.33 178.605 181.27 178.605 181.197V160.925C178.605 160.859 178.555 160.801 178.489 160.793L173.438 160.085C173.432 160.085 173.426 160.084 173.421 160.084C173.349 160.084 173.289 160.144 173.289 160.217C173.289 160.217 173.289 160.217 173.289 160.218V181.197C173.289 181.27 173.349 181.33 173.421 181.33H178.473ZM203.879 161.509L209.215 161.467C209.24 161.465 209.26 161.443 209.26 161.418V161.397C209.253 161.069 208.047 160.807 206.584 160.818H206.493C205.027 160.828 203.823 161.107 203.825 161.436C203.825 161.437 203.825 161.438 203.825 161.438V161.459C203.825 161.486 203.848 161.509 203.875 161.509C203.876 161.509 203.878 161.509 203.879 161.509ZM184.947 181.33C185.024 181.33 185.087 181.266 185.087 181.189V161.774C185.088 161.704 185.036 161.643 184.967 161.633L179.363 160.843C179.356 160.842 179.35 160.841 179.343 160.841C179.266 160.841 179.203 160.905 179.203 160.982C179.203 160.982 179.203 160.983 179.203 160.983V181.189C179.203 181.266 179.266 181.33 179.343 181.33H184.947ZM192.209 181.33C192.286 181.33 192.349 181.266 192.349 181.189V162.754C192.35 162.684 192.298 162.624 192.229 162.614L185.862 161.72C185.855 161.719 185.849 161.718 185.842 161.718C185.765 161.718 185.702 161.782 185.702 161.859C185.702 161.86 185.702 161.86 185.702 161.861V181.189C185.702 181.266 185.765 181.33 185.842 181.33H192.209ZM199.161 181.33H207.174C207.316 181.33 207.444 181.236 207.491 181.098C209.501 174.987 210.834 168.916 211.491 162.883C211.492 162.877 211.492 162.871 211.492 162.865C211.492 162.79 211.431 162.728 211.356 162.728C211.35 162.728 211.344 162.729 211.339 162.73L199.702 163.921C199.691 163.922 199.681 163.923 199.671 163.923C199.519 163.923 199.394 163.798 199.394 163.646C199.394 163.634 199.395 163.622 199.396 163.611C199.446 163.202 199.424 162.894 199.33 162.684C199.294 162.605 199.215 162.554 199.128 162.554C199.007 162.554 198.907 162.653 198.906 162.775V181.073C198.906 181.214 199.021 181.33 199.161 181.33Z" fill="#BB4D09"></path>
    <path d="M138.711 149.021L138.765 146.633C138.767 146.57 138.806 146.513 138.864 146.488L173.165 131.182C173.186 131.172 173.21 131.166 173.235 131.166C173.325 131.166 173.4 131.241 173.4 131.332C173.4 131.333 173.4 131.334 173.4 131.335L173.206 140.294C173.205 140.368 173.153 140.432 173.082 140.451L138.917 149.186C138.904 149.189 138.89 149.191 138.876 149.191C138.785 149.191 138.711 149.117 138.711 149.026C138.711 149.024 138.711 149.022 138.711 149.021Z" fill="#BB4D09"></path>
    <path d="M167.142 148.156L138.923 154.764C138.912 154.766 138.901 154.768 138.89 154.768C138.814 154.768 138.75 154.704 138.75 154.627V151.197C138.75 151.134 138.792 151.078 138.853 151.061L198.742 134.178C198.754 134.174 198.766 134.173 198.779 134.173C198.856 134.173 198.919 134.236 198.919 134.314V134.314V153.957C198.918 154.034 198.855 154.096 198.779 154.096C198.771 154.096 198.762 154.095 198.754 154.094L167.199 148.152C167.18 148.149 167.16 148.15 167.142 148.156Z" fill="#BB4D09"></path>
    <path d="M133.082 146.207C133.037 146.204 132.98 146.191 132.908 146.17C132.903 146.169 132.898 146.166 132.894 146.163C132.88 146.151 132.879 146.129 132.892 146.113C132.896 146.109 132.9 146.106 132.904 146.103C132.948 146.081 132.987 146.071 133.02 146.074C133.039 146.077 133.06 146.086 133.079 146.099C133.121 146.128 133.142 146.171 133.126 146.193C133.118 146.205 133.102 146.21 133.082 146.207Z" fill="#545454"></path>
    <path d="M129.437 148.371C129.445 148.365 129.456 148.362 129.466 148.362C129.496 148.362 129.52 148.386 129.52 148.416C129.52 148.426 129.517 148.437 129.511 148.445C129.475 148.509 129.456 148.542 129.453 148.545C129.438 148.564 129.415 148.575 129.391 148.575C129.348 148.575 129.312 148.54 129.312 148.497C129.312 148.495 129.313 148.493 129.313 148.491C129.316 148.455 129.357 148.415 129.437 148.371Z" fill="#545454"></path>
    <path d="M121.56 155.248V155.712C121.559 155.743 121.533 155.769 121.502 155.769C121.478 155.769 121.457 155.754 121.448 155.732C121.374 155.545 121.356 155.376 121.395 155.227C121.4 155.186 121.435 155.154 121.477 155.154C121.523 155.154 121.56 155.192 121.56 155.238C121.56 155.241 121.56 155.245 121.56 155.248Z" fill="#BB4D09"></path>
    <path d="M124.478 156.527C124.465 156.441 124.525 156.408 124.66 156.427C124.7 156.438 124.728 156.474 124.728 156.516C124.728 156.56 124.695 156.598 124.652 156.605C124.646 156.605 124.598 156.59 124.507 156.56C124.492 156.554 124.481 156.542 124.478 156.527Z" fill="#BB4D09"></path>
    <path d="M119.433 156.998C119.364 157.101 119.318 157.156 119.297 157.164C119.286 157.169 119.274 157.171 119.262 157.171C119.215 157.171 119.176 157.132 119.176 157.084C119.176 157.079 119.176 157.074 119.177 157.069C119.188 157.011 119.246 156.956 119.35 156.903C119.358 156.9 119.367 156.898 119.376 156.898C119.412 156.898 119.442 156.928 119.442 156.964C119.442 156.976 119.439 156.988 119.433 156.998Z" fill="#BB4D09"></path>
    <path d="M153.469 196.733C153.49 200.685 150.128 203.955 146.022 203.976C141.916 203.998 138.521 200.764 138.5 196.812C138.479 192.859 141.841 189.59 145.947 189.568C150.053 189.547 153.449 192.781 153.469 196.733ZM150.397 196.768C150.397 194.339 148.405 192.341 145.985 192.341C143.564 192.341 141.572 194.339 141.572 196.768C141.572 199.197 143.564 201.196 145.985 201.196C148.405 201.196 150.397 199.197 150.397 196.768Z" fill="#C2A390"></path>
    <path d="M203.369 193.325C202.407 192.354 201.254 192.037 199.91 192.374C198.908 192.622 198.433 193.921 199.423 194.558C201.839 196.118 205.592 195.891 205.745 199.474C205.839 201.796 204.095 203.443 201.918 203.823C199.391 204.265 197.196 203.633 195.332 201.928C195.308 201.905 195.306 201.866 195.328 201.841L197.044 199.876C197.068 199.848 197.103 199.831 197.14 199.831C197.173 199.831 197.205 199.844 197.229 199.867C198.472 201.117 199.908 201.546 201.538 201.154C203.068 200.79 203.093 198.961 201.526 198.415C199.534 197.72 197.675 197.265 196.466 195.734C195.427 194.41 195.732 192.142 196.891 191.041C199.184 188.861 203.048 189.225 205.291 191.269C205.355 191.329 205.36 191.43 205.303 191.496L203.716 193.313C203.714 193.315 203.712 193.317 203.711 193.319C203.62 193.414 203.47 193.42 203.376 193.332C203.373 193.33 203.371 193.327 203.369 193.325Z" fill="#C2A390"></path>
    <path d="M117.359 195.332C119.039 195.332 119.932 195.329 120.039 195.324C120.041 195.324 120.043 195.324 120.044 195.324C120.182 195.328 120.299 195.22 120.303 195.084C120.303 195.081 120.303 195.078 120.303 195.076L120.32 190.065C120.32 189.924 120.435 189.808 120.575 189.808H122.959C123.114 189.808 123.243 189.934 123.248 190.09C123.256 190.357 123.259 192.567 123.256 196.718C123.256 200.87 123.252 203.08 123.243 203.347C123.239 203.502 123.113 203.627 122.959 203.629H120.575C120.435 203.629 120.32 203.513 120.32 203.372L120.303 198.361C120.303 198.359 120.303 198.356 120.303 198.353C120.299 198.217 120.182 198.109 120.044 198.113C120.043 198.113 120.041 198.113 120.039 198.113C119.932 198.108 119.039 198.105 117.359 198.105C115.679 198.105 114.786 198.108 114.679 198.113C114.677 198.113 114.675 198.113 114.674 198.113C114.535 198.109 114.419 198.217 114.415 198.353C114.415 198.356 114.415 198.359 114.415 198.361L114.398 203.372C114.398 203.513 114.283 203.629 114.142 203.629H111.759C111.603 203.629 111.475 203.503 111.47 203.347C111.462 203.08 111.459 200.87 111.462 196.718C111.462 192.567 111.466 190.357 111.474 190.09C111.479 189.935 111.605 189.81 111.759 189.808H114.142C114.283 189.808 114.398 189.924 114.398 190.065L114.415 195.076C114.415 195.078 114.415 195.081 114.415 195.084C114.419 195.22 114.535 195.328 114.674 195.324C114.675 195.324 114.677 195.324 114.679 195.324C114.786 195.329 115.679 195.332 117.359 195.332Z" fill="#C2A390"></path>
    <path d="M174.571 201.192C176.979 201.192 177.643 199.309 177.626 197.198C177.615 195.452 177.614 193.066 177.622 190.04C177.622 190.039 177.622 190.039 177.622 190.038C177.624 189.938 177.704 189.857 177.802 189.858C177.802 189.858 177.803 189.858 177.804 189.858L180.406 189.862H180.406C180.499 189.862 180.575 189.938 180.575 190.032C180.575 190.036 180.575 190.04 180.575 190.044C180.569 190.107 180.569 192.68 180.575 197.761C180.579 201.386 178.204 203.964 174.575 203.964C170.942 203.968 168.567 201.386 168.571 197.761C168.576 192.68 168.576 190.107 168.571 190.044C168.57 190.04 168.57 190.036 168.57 190.032C168.57 189.938 168.647 189.862 168.739 189.862H168.74L171.342 189.858C171.343 189.858 171.344 189.858 171.344 189.858C171.441 189.857 171.522 189.938 171.523 190.038C171.523 190.039 171.523 190.039 171.523 190.04C171.532 193.066 171.53 195.452 171.519 197.198C171.503 199.309 172.167 201.192 174.571 201.192Z" fill="#C2A390"></path>
    <path d="M229.132 197.956H223.75C223.657 197.956 223.581 198.032 223.581 198.125V200.741C223.581 200.834 223.657 200.91 223.75 200.91H230.897C230.989 200.91 231.066 200.987 231.066 201.08V203.505C231.066 203.598 230.989 203.674 230.897 203.674H220.806C220.713 203.674 220.637 203.598 220.637 203.505V190.027C220.637 189.934 220.713 189.858 220.806 189.858H230.694C230.787 189.858 230.864 189.934 230.864 190.027V192.465C230.864 192.558 230.787 192.634 230.694 192.634H223.75C223.657 192.634 223.581 192.711 223.581 192.804V195.109C223.581 195.202 223.657 195.278 223.75 195.278H229.132C229.224 195.278 229.301 195.355 229.301 195.448V197.786C229.301 197.879 229.224 197.956 229.132 197.956Z" fill="#C2A390"></path>
  </g>
  <defs>
    <clipPath id="clip0_6852_69">
      <rect width="360" height="204" fill="white"></rect>
    </clipPath>
  </defs>
</svg>
