<?xml version="1.0" encoding="UTF-8" standalone="no"?>
<svg xmlns="http://www.w3.org/2000/svg" xmlns:xlink="http://www.w3.org/1999/xlink" xmlns:serif="http://www.serif.com/" width="100%" height="100%" viewBox="0 0 256 256" version="1.1" xml:space="preserve" style="fill-rule:evenodd;clip-rule:evenodd;stroke-linejoin:round;stroke-miterlimit:2;">
    <g id="Artboard1" transform="matrix(0.5,0,0,0.5,0,0)">
        <rect x="0" y="0" width="512" height="512" style="fill:none;"></rect>
        <g transform="matrix(7.314286,0,0,7.314286,256,256)">
            <g transform="matrix(1,0,0,1,-35,-21.5)">
                <path d="M66.91,17.436C66.945,17.363 66.899,17.323 66.773,17.314L65.877,16.482C65.862,16.468 65.842,16.46 65.821,16.46C65.793,16.46 65.766,16.475 65.751,16.5C65.727,16.539 65.71,16.561 65.702,16.566C65.688,16.575 65.672,16.58 65.656,16.58C65.607,16.58 65.567,16.539 65.567,16.49C65.567,16.481 65.569,16.471 65.572,16.462C65.618,16.302 65.573,16.159 65.436,16.032C65.425,16.022 65.411,16.017 65.397,16.017C65.363,16.017 65.335,16.045 65.335,16.079C65.335,16.081 65.335,16.084 65.336,16.086L65.373,16.321C65.338,16.336 65.306,16.359 65.277,16.391L64.553,15.425C64.547,15.416 64.538,15.412 64.528,15.412C64.51,15.412 64.496,15.426 64.496,15.444C64.496,15.447 64.496,15.449 64.496,15.452L64.528,15.61C64.529,15.613 64.529,15.616 64.529,15.619C64.529,15.64 64.512,15.658 64.49,15.658C64.485,15.658 64.479,15.657 64.474,15.655L64.115,15.489C64.091,15.478 64.068,15.462 64.049,15.442C63.699,15.102 63.273,14.835 62.769,14.64C62.746,14.631 62.722,14.64 62.712,14.659L62.712,14.662C62.7,14.685 62.707,14.713 62.727,14.726C64.091,15.645 65.048,17.195 65.862,18.625C66.066,18.981 66.169,19.367 66.172,19.784C66.18,20.743 66.235,21.738 66.335,22.77C66.335,22.773 66.335,22.774 66.335,22.776C66.335,22.81 66.307,22.838 66.273,22.838C66.261,22.838 66.249,22.834 66.239,22.828C65.86,22.548 65.577,22.075 65.07,21.468C64.044,20.247 63.318,18.8 62.863,17.339C62.861,17.326 62.85,17.317 62.838,17.317C62.825,17.317 62.813,17.328 62.813,17.342L62.813,17.344C62.649,18.369 62.678,19.3 62.9,20.135C62.905,20.159 62.895,20.183 62.875,20.192C62.845,20.209 62.83,20.236 62.828,20.274C62.828,20.281 62.829,20.288 62.831,20.296C63.109,21.277 63.077,22.234 62.735,23.167C62.723,23.198 62.719,23.231 62.722,23.263L62.85,24.534L62.85,24.536C62.85,24.55 62.84,24.562 62.826,24.564L62.757,24.571C62.717,24.576 62.679,24.547 62.671,24.507C62.585,24.026 62.507,23.738 62.434,23.642C62.422,23.626 62.403,23.617 62.383,23.617C62.348,23.617 62.319,23.645 62.316,23.679C62.29,24.422 62.28,24.838 62.287,24.928C62.295,25.023 62.242,25.089 62.127,25.126C62.054,25.15 62.001,25.214 61.994,25.289C61.973,25.497 61.934,25.644 61.878,25.73C61.866,25.748 61.845,25.759 61.824,25.759C61.79,25.759 61.762,25.734 61.758,25.7L61.731,25.435C61.726,25.402 61.698,25.378 61.665,25.378C61.637,25.378 61.613,25.395 61.603,25.421L61.093,26.798C61.09,26.803 61.084,26.806 61.079,26.806C61.07,26.806 61.062,26.799 61.061,26.79L61.108,26.228C61.108,26.225 61.109,26.221 61.109,26.218C61.109,26.157 61.06,26.107 61,26.104C60.962,26.102 60.936,26.093 60.921,26.074C60.877,26.027 60.863,25.958 60.884,25.896C61.084,25.322 61.135,24.852 61.037,24.487C60.919,24.053 60.885,23.754 60.936,23.59C61.039,23.248 60.823,22.716 60.82,22.384C60.812,21.385 60.757,20.455 60.655,19.593C60.575,18.927 60.4,18.327 60.131,17.792C60.123,17.775 60.106,17.764 60.087,17.764C60.06,17.764 60.038,17.787 60.038,17.814L60.038,27.417C60.037,27.51 60.104,27.591 60.195,27.607L64.925,28.502C64.954,28.509 64.975,28.536 64.975,28.566C64.975,28.6 64.95,28.629 64.917,28.633L60.225,29.116C60.145,29.124 60.083,29.188 60.077,29.267L59.184,40.229C59.184,40.231 59.184,40.232 59.184,40.234C59.18,40.32 59.246,40.393 59.329,40.397C59.331,40.397 59.334,40.397 59.336,40.397L67.947,40.397C68.029,40.397 68.097,40.465 68.097,40.548L68.097,42.861C68.097,42.937 68.034,43 67.959,43L1.947,43C1.886,43 1.836,42.95 1.836,42.889L1.836,40.513C1.836,40.45 1.888,40.397 1.952,40.397L8.734,40.397C8.801,40.396 8.855,40.34 8.855,40.273C8.855,40.267 8.855,40.261 8.854,40.256C8.261,35.659 7.786,31.159 7.703,26.627C7.68,25.364 7.645,24.063 7.599,22.726C7.598,22.736 7.595,22.744 7.592,22.751C7.275,23.622 7.114,24.511 7.11,25.416C7.108,25.494 7.117,25.574 7.137,25.651C7.319,26.399 7.38,27.167 7.321,27.957C7.287,28.395 7.486,28.94 7.311,29.398C7.303,29.418 7.285,29.431 7.263,29.431C7.239,29.431 7.218,29.414 7.213,29.391C7.178,29.247 7.04,29.066 6.797,28.848C6.735,28.792 6.703,28.71 6.711,28.625C6.716,28.579 6.704,28.529 6.674,28.477C6.659,28.448 6.629,28.43 6.596,28.43C6.558,28.43 6.523,28.455 6.512,28.492C6.503,28.52 6.5,28.546 6.502,28.571C6.502,28.574 6.502,28.578 6.502,28.581C6.498,28.601 6.477,28.614 6.456,28.61C6.453,28.61 6.45,28.609 6.448,28.608C6.415,28.593 6.394,28.579 6.384,28.566C6.362,28.535 6.352,28.517 6.352,28.514C6.366,28.327 6.362,28.133 6.339,27.932C6.33,27.857 6.296,27.788 6.243,27.736C6.032,27.528 5.985,27.276 6.103,26.978C6.104,26.975 6.105,26.971 6.105,26.967C6.105,26.947 6.088,26.93 6.068,26.93C6.062,26.93 6.057,26.931 6.051,26.934C6.05,26.936 6.035,26.961 6.007,27.011C5.993,27.036 5.973,27.056 5.948,27.07C5.869,27.112 5.765,27.071 5.717,26.98C5.702,26.951 5.693,26.919 5.692,26.887C5.689,26.768 5.709,26.657 5.751,26.555C5.757,26.54 5.76,26.524 5.76,26.508C5.76,26.437 5.702,26.379 5.632,26.379L5.628,26.379C5.626,26.381 5.614,26.386 5.591,26.394C5.586,26.396 5.58,26.397 5.575,26.397C5.547,26.397 5.523,26.373 5.523,26.345C5.523,26.338 5.525,26.331 5.527,26.325C5.598,26.153 5.587,26.022 5.495,25.931C5.483,25.918 5.476,25.901 5.476,25.884C5.476,25.847 5.506,25.817 5.543,25.817L5.545,25.817C5.65,25.82 5.77,25.742 5.906,25.581C5.91,25.577 5.913,25.571 5.915,25.565C5.923,25.541 5.911,25.514 5.888,25.506C5.882,25.505 5.876,25.504 5.869,25.505C5.791,25.511 5.737,25.527 5.709,25.552C5.691,25.569 5.667,25.578 5.642,25.578C5.587,25.578 5.541,25.532 5.541,25.476C5.541,25.46 5.545,25.445 5.552,25.43C5.793,24.912 5.823,24.627 5.643,24.576C5.61,24.567 5.586,24.539 5.581,24.504L5.412,23.375C5.503,23.291 5.566,23.198 5.599,23.097C5.6,23.094 5.6,23.09 5.6,23.086C5.6,23.066 5.584,23.049 5.563,23.049C5.552,23.049 5.542,23.054 5.535,23.063C5.464,23.147 5.423,23.251 5.412,23.375C5.139,23.507 5.086,23.719 5.252,24.011C5.291,24.081 5.283,24.169 5.232,24.232C5.05,24.447 4.826,24.581 4.779,24.866C4.756,25.006 4.701,25.107 4.614,25.168C4.526,25.227 4.461,25.317 4.432,25.421C4.432,25.424 4.43,25.438 4.425,25.463C4.418,25.51 4.377,25.545 4.33,25.545C4.321,25.545 4.313,25.544 4.304,25.542C4.196,25.512 4.121,25.546 4.078,25.643C3.873,26.116 3.655,26.493 3.423,26.775C3.392,26.814 3.344,26.836 3.295,26.836C3.203,26.836 3.127,26.76 3.127,26.668C3.127,26.662 3.128,26.657 3.128,26.651L3.295,24.784C3.295,24.773 3.292,24.762 3.286,24.752C3.279,24.742 3.264,24.724 3.241,24.697C3.198,24.652 3.178,24.588 3.187,24.524C3.342,23.452 4.585,21.906 5.39,21.178C5.395,21.173 5.4,21.165 5.401,21.157C5.405,21.137 5.393,21.117 5.374,21.114C5.366,21.112 5.358,21.114 5.35,21.119C4.531,21.525 3.836,22.089 3.263,22.81C3.244,22.834 3.21,22.838 3.187,22.82L3.185,22.818C3.162,22.8 3.157,22.766 3.175,22.741C3.262,22.629 3.305,22.483 3.303,22.305L3.303,22.303C3.303,22.272 3.277,22.246 3.246,22.246C3.226,22.246 3.207,22.257 3.197,22.275C3.14,22.369 3.114,22.474 3.121,22.59C3.125,22.659 3.074,22.721 3.005,22.728C2.916,22.738 2.852,22.784 2.811,22.865C2.675,23.13 2.434,23.288 2.242,23.511C2.228,23.528 2.208,23.538 2.186,23.538C2.146,23.538 2.114,23.506 2.112,23.466C2.11,23.424 2.135,23.366 2.186,23.293C2.195,23.277 2.2,23.258 2.2,23.238C2.201,23.189 2.172,23.148 2.137,23.148C2.123,23.148 2.109,23.154 2.097,23.167C2.053,23.224 2.026,23.274 2.016,23.315C1.924,23.717 1.695,23.988 1.329,24.13C1.227,24.17 1.169,24.279 1.191,24.385L1.219,24.512C1.225,24.544 1.212,24.577 1.187,24.598C1.08,24.683 1,24.603 0.948,24.36C0.933,24.291 0.939,24.22 0.965,24.155L1.347,23.204C1.349,23.198 1.351,23.192 1.351,23.185C1.351,23.161 1.331,23.14 1.306,23.14C1.292,23.14 1.279,23.148 1.27,23.159L1,23.469C0.983,23.492 0.957,23.505 0.929,23.505C0.882,23.505 0.843,23.466 0.843,23.418C0.843,23.4 0.849,23.382 0.859,23.367L1.312,22.582C1.317,22.575 1.319,22.566 1.319,22.558C1.319,22.532 1.299,22.51 1.273,22.508C1.238,22.505 1.214,22.484 1.199,22.446C1.186,22.412 1.193,22.373 1.219,22.347C2.291,21.218 3.628,20.588 5.23,20.46C5.262,20.458 5.287,20.43 5.287,20.398C5.287,20.377 5.277,20.357 5.259,20.346C4.971,20.148 4.88,20.088 4.447,20.158C4.235,20.192 4.079,20.192 3.977,20.155C3.969,20.153 3.962,20.148 3.957,20.142C3.938,20.122 3.941,20.09 3.962,20.07C3.967,20.065 3.974,20.061 3.982,20.058C4.018,20.049 4.062,20.049 4.115,20.058C4.176,20.067 4.216,20.051 4.238,20.012C4.251,19.987 4.252,19.954 4.24,19.915C4.234,19.893 4.211,19.877 4.171,19.865C3.904,19.779 3.694,19.789 3.542,19.895C3.541,19.895 3.541,19.895 3.541,19.895C3.517,19.911 3.486,19.904 3.471,19.882C3.471,19.881 3.47,19.881 3.47,19.88C3.454,19.854 3.456,19.818 3.478,19.771C3.48,19.767 3.481,19.761 3.481,19.756C3.481,19.741 3.472,19.727 3.458,19.722C3.276,19.633 3.124,19.654 3.003,19.786C2.994,19.795 2.981,19.8 2.968,19.8C2.941,19.8 2.919,19.778 2.919,19.751C2.919,19.749 2.919,19.748 2.919,19.747C2.935,19.626 2.821,19.514 2.577,19.41C2.569,19.406 2.561,19.404 2.552,19.404C2.517,19.404 2.488,19.434 2.488,19.469C2.488,19.481 2.491,19.493 2.498,19.504C2.52,19.538 2.555,19.551 2.604,19.541C2.605,19.541 2.606,19.541 2.607,19.541C2.62,19.541 2.631,19.552 2.631,19.565C2.631,19.566 2.631,19.567 2.631,19.568C2.623,19.647 2.574,19.694 2.486,19.707C2.449,19.713 2.412,19.706 2.38,19.687C2.364,19.675 2.344,19.657 2.321,19.63C2.269,19.573 2.182,19.56 2.114,19.6L1.283,20.093C1.277,20.097 1.27,20.099 1.262,20.099C1.242,20.099 1.225,20.083 1.225,20.062C1.225,20.06 1.226,20.058 1.226,20.056C1.239,19.979 1.257,19.925 1.28,19.895C1.289,19.883 1.295,19.869 1.295,19.854C1.295,19.831 1.283,19.81 1.263,19.799C1.246,19.789 1.223,19.788 1.191,19.796C1.165,19.801 1.149,19.807 1.142,19.813C0.908,20.033 0.695,20.229 0.505,20.4C0.499,20.405 0.492,20.409 0.484,20.409C0.466,20.409 0.452,20.394 0.452,20.376C0.452,20.371 0.453,20.365 0.456,20.361L0.958,19.486C0.965,19.474 0.968,19.459 0.968,19.444C0.968,19.395 0.928,19.355 0.88,19.355C0.864,19.355 0.848,19.359 0.835,19.368L0.128,19.786C0.115,19.794 0.101,19.797 0.086,19.797C0.039,19.797 0,19.758 0,19.711C0,19.69 0.007,19.67 0.02,19.655C0.693,18.841 1.509,18.43 2.469,18.422C3.724,18.412 4.888,18.787 5.96,19.548C5.965,19.552 5.971,19.552 5.975,19.548L6.044,19.504C6.045,19.503 6.047,19.503 6.048,19.502C6.053,19.496 6.053,19.486 6.047,19.479C6.046,19.478 6.045,19.477 6.044,19.477L5.102,18.644C5.1,18.643 5.099,18.642 5.098,18.64C5.073,18.613 5.075,18.571 5.101,18.547C5.103,18.546 5.105,18.544 5.107,18.543C5.133,18.523 5.152,18.507 5.163,18.496C5.163,18.495 5.164,18.495 5.164,18.495C5.201,18.453 5.198,18.39 5.157,18.353C5.157,18.353 5.156,18.353 5.156,18.352L3.126,16.561C3.059,16.501 2.979,16.459 2.892,16.438C2.679,16.385 2.432,16.197 2.151,15.875C2.143,15.867 2.138,15.855 2.138,15.843C2.138,15.817 2.16,15.796 2.185,15.796C2.19,15.796 2.195,15.797 2.2,15.799C3.347,16.136 4.39,16.623 5.328,17.262C5.431,17.334 5.712,17.664 6.17,18.253C6.179,18.265 6.194,18.272 6.209,18.272C6.238,18.272 6.261,18.248 6.261,18.22C6.261,18.218 6.261,18.216 6.261,18.213C6.248,18.134 6.201,18.032 6.12,17.906C6.048,17.792 6.028,17.688 6.059,17.594C6.113,17.434 6.064,17.267 5.914,17.091C5.825,16.989 5.802,16.841 5.845,16.646C5.923,16.277 5.613,15.994 5.294,15.704C5.21,15.629 5.196,15.501 5.262,15.407C5.36,15.272 5.342,15.131 5.207,14.984C5.198,14.975 5.192,14.962 5.192,14.949C5.192,14.923 5.214,14.902 5.239,14.902C5.251,14.902 5.263,14.906 5.271,14.915C5.47,15.066 5.513,15.218 5.402,15.37C5.39,15.386 5.384,15.405 5.384,15.425C5.384,15.473 5.421,15.513 5.468,15.516C5.495,15.518 5.571,15.485 5.697,15.417C5.699,15.416 5.7,15.416 5.701,15.415C5.758,15.384 5.779,15.31 5.748,15.252C5.748,15.251 5.747,15.25 5.746,15.249L5.397,14.654C5.391,14.643 5.388,14.63 5.388,14.617C5.388,14.574 5.423,14.538 5.466,14.538C5.483,14.538 5.499,14.543 5.513,14.553C6.006,14.956 6.425,15.496 6.768,16.175C6.832,16.299 6.923,16.405 7.043,16.495C7.099,16.535 7.127,16.604 7.117,16.67C7.096,16.832 7.143,16.915 7.26,16.918C7.314,16.919 7.359,16.963 7.365,17.02C7.375,17.097 7.372,17.161 7.356,17.21C7.323,17.311 7.351,17.422 7.427,17.493C7.622,17.671 7.738,17.964 7.774,18.372C7.777,18.412 7.81,18.444 7.85,18.444C7.88,18.444 7.907,18.426 7.919,18.399C8.295,17.592 8.871,16.997 9.647,16.613C9.655,16.61 9.664,16.608 9.674,16.608C9.71,16.608 9.74,16.638 9.74,16.675C9.74,16.685 9.738,16.696 9.733,16.705C9.541,17.039 9.464,17.362 9.501,17.676C9.511,17.76 9.485,17.843 9.43,17.906L9.246,18.117C9.23,18.134 9.222,18.155 9.222,18.178C9.222,18.229 9.263,18.27 9.313,18.27C9.319,18.27 9.325,18.269 9.332,18.268C9.491,18.238 9.616,18.249 9.708,18.3C9.735,18.316 9.752,18.344 9.752,18.376C9.752,18.414 9.727,18.448 9.691,18.459C9.371,18.559 9.048,18.831 8.721,19.273C8.709,19.29 8.702,19.309 8.702,19.329C8.702,19.374 8.734,19.412 8.778,19.42C9.314,19.524 9.698,19.187 10.2,19.212C10.793,19.241 10.99,19.363 11.605,19.281C11.696,19.268 11.79,19.285 11.874,19.328C12.328,19.566 12.764,19.649 13.183,19.578C13.188,19.577 13.194,19.577 13.199,19.577C13.247,19.577 13.287,19.617 13.287,19.666C13.287,19.679 13.284,19.692 13.279,19.704C13.271,19.721 13.194,19.769 13.05,19.848C12.956,19.898 12.929,20.056 13.008,20.125C13.079,20.188 13.139,20.199 13.19,20.158C13.284,20.082 13.346,20.083 13.377,20.16C13.387,20.187 13.375,20.218 13.35,20.229L12.585,20.611C12.518,20.644 12.438,20.626 12.393,20.569C12.386,20.562 12.369,20.545 12.341,20.517C12.327,20.504 12.308,20.496 12.289,20.496C12.262,20.496 12.238,20.51 12.223,20.532C12.118,20.692 11.929,20.657 11.657,20.428C11.641,20.414 11.621,20.407 11.6,20.407C11.552,20.407 11.512,20.447 11.512,20.496C11.512,20.512 11.516,20.528 11.524,20.541L11.627,20.715C11.634,20.726 11.638,20.739 11.638,20.752C11.638,20.791 11.605,20.824 11.566,20.824C11.552,20.824 11.538,20.819 11.527,20.811C11.484,20.784 11.4,20.728 11.276,20.645C11.145,20.56 11.051,20.518 10.995,20.522C10.775,20.533 10.628,20.671 10.555,20.935C10.543,20.981 10.502,21.013 10.454,21.013C10.442,21.013 10.431,21.011 10.419,21.007C10.298,20.962 10.126,20.968 9.903,21.022C9.828,21.041 9.749,21.019 9.693,20.965C9.564,20.836 9.41,20.782 9.231,20.802C9.192,20.806 9.163,20.839 9.163,20.878C9.163,20.91 9.183,20.939 9.214,20.95C10.697,21.492 11.874,22.005 12.951,23.226C12.962,23.236 12.968,23.249 12.968,23.263C12.968,23.291 12.945,23.313 12.918,23.313C12.906,23.313 12.894,23.309 12.885,23.3L12.403,22.944C12.396,22.939 12.386,22.94 12.38,22.946L12.331,23.006C12.311,23.029 12.312,23.066 12.334,23.09C12.442,23.206 12.505,23.291 12.523,23.348C12.525,23.355 12.526,23.362 12.525,23.37C12.522,23.401 12.495,23.424 12.466,23.422C12.459,23.421 12.451,23.418 12.444,23.414L10.412,22.233C10.322,22.181 10.205,22.208 10.146,22.295C10.121,22.331 10.108,22.35 10.107,22.352C10.095,22.361 10.081,22.365 10.067,22.365C10.044,22.365 10.023,22.354 10.011,22.335C9.866,22.11 9.659,21.945 9.388,21.839C9.381,21.836 9.374,21.835 9.367,21.835C9.337,21.835 9.313,21.859 9.313,21.889C9.313,21.903 9.318,21.916 9.327,21.926L9.964,22.644C9.967,22.648 9.97,22.651 9.973,22.655C10.01,22.708 9.999,22.782 9.947,22.82C9.943,22.823 9.939,22.825 9.935,22.828C9.931,22.829 9.924,22.831 9.912,22.832C9.909,22.833 9.906,22.833 9.903,22.835C9.88,22.843 9.868,22.87 9.877,22.894C9.878,22.897 9.879,22.899 9.88,22.902L10.245,23.499C10.292,23.574 10.3,23.67 10.264,23.754C10.262,23.757 10.259,23.764 10.252,23.776C10.226,23.816 10.231,23.869 10.264,23.902C10.415,24.053 10.454,24.185 10.38,24.301C10.34,24.364 10.353,24.449 10.409,24.499L10.995,25.017C11.013,25.034 11.024,25.058 11.024,25.082C11.024,25.131 10.983,25.171 10.935,25.171C10.93,25.171 10.926,25.171 10.921,25.17C10.872,25.162 10.782,25.133 10.651,25.084C10.643,25.081 10.634,25.079 10.625,25.079C10.587,25.079 10.556,25.11 10.556,25.148C10.556,25.161 10.56,25.174 10.567,25.185C10.626,25.279 10.736,25.369 10.897,25.455C10.963,25.49 11.015,25.547 11.044,25.616C11.238,26.07 11.3,26.484 11.229,26.857C11.227,26.865 11.227,26.873 11.227,26.881C11.228,26.948 11.281,27.002 11.346,27.001C11.355,27.001 11.363,27 11.372,26.998L32.844,22.392C32.878,22.385 32.913,22.385 32.947,22.392L59.277,27.362C59.283,27.363 59.289,27.364 59.294,27.364C59.338,27.364 59.373,27.329 59.373,27.285C59.472,25.126 59.504,22.397 59.469,19.1C59.464,18.649 59.426,18.236 59.354,17.862C59.35,17.845 59.335,17.833 59.318,17.833C59.305,17.833 59.294,17.839 59.287,17.849L57.582,20.821C57.571,20.842 57.55,20.855 57.527,20.855C57.493,20.855 57.465,20.827 57.465,20.793C57.465,20.79 57.466,20.787 57.466,20.784C57.504,20.431 57.509,20.224 57.481,20.163C57.471,20.143 57.452,20.131 57.43,20.131C57.407,20.131 57.386,20.146 57.378,20.168C57.077,21.033 56.684,21.785 56.199,22.424C55.891,22.828 55.884,23.328 55.5,23.665C55.496,23.668 55.492,23.671 55.488,23.674C55.444,23.702 55.383,23.688 55.354,23.642C55.352,23.638 55.349,23.634 55.347,23.63C55.159,23.202 55.128,22.748 55.254,22.268C55.374,21.812 55.418,21.567 55.387,21.532C55.358,21.473 55.36,21.404 55.392,21.346L55.955,20.343C55.956,20.341 55.957,20.338 55.957,20.335C55.957,20.323 55.947,20.313 55.935,20.313C55.931,20.313 55.927,20.314 55.923,20.316L55.547,20.561C55.535,20.569 55.521,20.574 55.507,20.574C55.468,20.574 55.436,20.541 55.436,20.502C55.436,20.486 55.441,20.47 55.451,20.457C55.475,20.423 55.525,20.376 55.599,20.319C55.628,20.296 55.653,20.241 55.672,20.155C55.807,19.551 55.976,19.108 56.179,18.828C56.222,18.767 56.244,18.693 56.241,18.617C56.233,18.383 56.324,18.157 56.516,17.941C56.536,17.919 56.535,17.884 56.514,17.864C56.503,17.853 56.488,17.847 56.472,17.847C56.456,17.847 56.441,17.853 56.43,17.864C56.219,18.074 56.121,18.349 56.137,18.689L56.137,18.692C56.137,18.745 56.094,18.788 56.041,18.788C56.019,18.788 55.997,18.78 55.98,18.766C55.928,18.721 55.913,18.643 55.938,18.53C56.125,17.701 56.545,16.95 57.198,16.277C57.209,16.265 57.216,16.248 57.216,16.232C57.216,16.196 57.187,16.167 57.152,16.167C57.141,16.167 57.131,16.17 57.122,16.175C56.792,16.345 56.5,16.561 56.246,16.822C56.187,16.882 56.103,16.913 56.019,16.906C55.923,16.896 55.862,16.898 55.837,16.911C54.638,17.627 53.572,18.383 52.638,19.177C52.634,19.179 52.63,19.18 52.625,19.18C52.61,19.18 52.598,19.168 52.598,19.153C52.598,19.148 52.599,19.144 52.601,19.14L53.472,18.067C53.474,18.066 53.475,18.063 53.475,18.061C53.475,18.057 53.473,18.054 53.47,18.052L53.421,18.008C53.415,18.004 53.407,18.004 53.401,18.008L52.505,18.716C52.497,18.723 52.486,18.727 52.475,18.727C52.448,18.727 52.426,18.704 52.426,18.677C52.426,18.669 52.428,18.661 52.431,18.654C53.029,17.532 54.056,17.064 55.069,16.183C55.232,16.041 55.496,15.909 55.862,15.789C55.898,15.775 55.923,15.74 55.923,15.701C55.923,15.649 55.88,15.607 55.829,15.607C55.823,15.607 55.818,15.607 55.813,15.608L55.259,15.727C55.224,15.733 55.189,15.726 55.16,15.707C54.752,15.435 54.227,15.331 53.586,15.395C53.515,15.403 53.443,15.391 53.379,15.36L52.633,15.014C52.436,14.923 52.309,14.726 52.309,14.508L52.309,9.857C52.309,9.795 52.273,9.739 52.217,9.713L36.466,2.417C36.422,2.397 36.37,2.4 36.326,2.425L15.944,14.526C15.927,14.536 15.909,14.541 15.889,14.541C15.833,14.541 15.786,14.494 15.786,14.437L15.786,14.03C15.786,13.913 15.846,13.804 15.944,13.741L36.966,0.037C37.034,-0.007 37.121,-0.012 37.195,0.025C44.953,4.007 51.489,7.385 56.804,10.159C56.917,10.217 57.039,10.23 57.169,10.199C57.225,10.185 57.265,10.134 57.265,10.076C57.265,10.05 57.257,10.024 57.242,10.003L56.789,9.359C56.771,9.333 56.761,9.301 56.761,9.268C56.761,9.214 56.788,9.163 56.834,9.134C56.84,9.131 56.845,9.128 56.849,9.126C56.894,9.104 56.924,9.057 56.924,9.006C56.924,8.965 56.905,8.926 56.873,8.901C56.703,8.771 56.589,8.648 56.534,8.535C56.529,8.525 56.526,8.515 56.526,8.505C56.526,8.47 56.555,8.44 56.59,8.44C56.599,8.44 56.607,8.442 56.615,8.445C57.511,8.805 58.35,9.519 59.135,10.585C59.147,10.602 59.166,10.612 59.187,10.612C59.221,10.612 59.251,10.583 59.251,10.548C59.251,10.546 59.25,10.545 59.25,10.543C59.222,10.149 59.218,9.926 59.238,9.874C59.247,9.851 59.27,9.835 59.295,9.835C59.322,9.835 59.345,9.852 59.354,9.877C59.457,10.194 59.477,10.442 59.413,10.62C59.412,10.623 59.411,10.626 59.411,10.63C59.411,10.649 59.427,10.664 59.446,10.664C59.453,10.664 59.461,10.662 59.467,10.657C59.573,10.561 59.632,10.455 59.642,10.338C59.752,9.119 59.811,8.495 59.819,8.465C59.821,8.455 59.827,8.445 59.834,8.437C59.857,8.415 59.892,8.414 59.913,8.436C59.92,8.443 59.925,8.453 59.927,8.463L60.055,9.268L60.057,9.27L60.121,9.263C60.124,9.263 60.126,9.259 60.126,9.255L60.306,7.918C60.31,7.894 60.331,7.877 60.354,7.877C60.37,7.877 60.385,7.885 60.395,7.898C60.417,7.931 60.431,7.95 60.434,7.955C60.441,7.961 60.45,7.964 60.46,7.964C60.479,7.964 60.495,7.951 60.5,7.933C60.835,6.805 61.398,5.835 62.191,5.023C62.21,5.003 62.242,5.002 62.262,5.02C62.281,5.042 62.283,5.074 62.267,5.097L61.753,5.808C61.745,5.817 61.747,5.831 61.755,5.837C61.755,5.837 61.755,5.837 61.755,5.837L61.812,5.887C61.813,5.888 61.815,5.889 61.816,5.89C61.841,5.91 61.878,5.907 61.897,5.882C61.898,5.88 61.9,5.879 61.901,5.877C62.033,5.674 62.172,5.572 62.316,5.572C62.341,5.573 62.362,5.594 62.362,5.62C62.362,5.629 62.359,5.639 62.353,5.647L61.716,6.479C61.711,6.485 61.708,6.492 61.708,6.5C61.708,6.51 61.713,6.52 61.721,6.526L61.75,6.546C61.751,6.547 61.753,6.548 61.754,6.548C61.755,6.548 61.757,6.547 61.758,6.546L62.528,5.902C62.535,5.897 62.543,5.894 62.551,5.894C62.571,5.894 62.588,5.911 62.588,5.931C62.588,5.934 62.587,5.936 62.587,5.939C62.557,6.058 62.42,6.269 62.176,6.573C62.169,6.582 62.168,6.595 62.174,6.605C62.187,6.628 62.201,6.646 62.215,6.657C62.235,6.673 62.263,6.673 62.282,6.657C62.451,6.528 62.609,6.438 62.757,6.385C62.763,6.383 62.769,6.382 62.776,6.382C62.808,6.382 62.835,6.409 62.835,6.441C62.835,6.46 62.826,6.478 62.811,6.489C62.437,6.758 62.142,7.065 61.928,7.41C61.891,7.468 61.873,7.536 61.878,7.603L61.93,8.443L61.93,8.444C61.93,8.448 61.933,8.452 61.937,8.452C61.941,8.452 61.944,8.449 61.945,8.445C61.948,8.435 61.904,8.437 61.812,8.45C61.788,8.453 61.769,8.471 61.765,8.495C61.762,8.513 61.776,8.54 61.807,8.574C61.851,8.626 61.858,8.7 61.824,8.757L61.519,9.29C61.513,9.301 61.509,9.314 61.509,9.327C61.509,9.368 61.542,9.401 61.583,9.401L61.711,9.401C61.76,9.402 61.799,9.442 61.799,9.491C61.799,9.509 61.793,9.527 61.782,9.543C61.564,9.851 61.437,10.153 61.401,10.447C61.4,10.451 61.4,10.455 61.4,10.459C61.4,10.493 61.427,10.521 61.461,10.521C61.485,10.521 61.507,10.508 61.517,10.486C62.085,9.52 62.767,8.733 63.825,8.126C65.016,7.442 65.988,6.843 67.12,6.67C67.152,6.665 67.184,6.687 67.191,6.719L67.203,6.784C67.204,6.785 67.204,6.787 67.204,6.789C67.204,6.801 67.195,6.811 67.184,6.813C66.828,6.894 66.493,7.038 66.18,7.244C66.139,7.271 66.114,7.316 66.114,7.365C66.114,7.444 66.178,7.509 66.257,7.509C66.265,7.509 66.273,7.508 66.281,7.507C66.413,7.485 66.49,7.479 66.509,7.487C66.518,7.491 66.525,7.498 66.53,7.506C66.547,7.531 66.541,7.564 66.518,7.58C66.509,7.585 66.5,7.588 66.49,7.588C66.362,7.593 66.075,7.742 65.629,8.034C65.567,8.074 65.486,8.063 65.436,8.009C65.358,7.923 65.259,8 65.245,8.089C65.244,8.091 65.244,8.093 65.244,8.096C65.244,8.122 65.265,8.143 65.291,8.143C65.298,8.143 65.305,8.141 65.311,8.138C65.36,8.115 65.393,8.106 65.409,8.111C65.429,8.113 65.445,8.13 65.445,8.15C65.445,8.165 65.437,8.178 65.424,8.185L64.75,8.604C64.719,8.623 64.704,8.659 64.713,8.693C64.728,8.744 64.703,8.814 64.637,8.904C64.593,8.961 64.524,8.996 64.43,9.008C64.23,9.032 64.154,9.156 64.204,9.379C64.206,9.389 64.207,9.399 64.207,9.409C64.207,9.468 64.165,9.519 64.108,9.53C63.549,9.642 63.682,10.157 63.259,10.36C63.142,10.416 63.077,10.513 63.064,10.65C63.061,10.699 63.042,10.748 63.01,10.788L61.74,12.383C61.724,12.403 61.724,12.433 61.74,12.453L61.74,12.455C61.755,12.472 61.782,12.473 61.8,12.458C63.584,10.962 65.678,10.204 67.947,10.744C68.032,10.763 68.099,10.831 68.119,10.917C68.121,10.92 68.121,10.925 68.121,10.93C68.122,10.935 68.123,10.94 68.124,10.945C68.141,11.004 68.202,11.038 68.259,11.022C68.264,11.02 68.269,11.018 68.274,11.016L68.387,10.964C68.39,10.963 68.394,10.961 68.398,10.96C68.492,10.923 68.6,10.972 68.637,11.068C68.638,11.072 68.639,11.075 68.64,11.078C68.644,11.088 68.649,11.122 68.655,11.18C68.658,11.201 68.668,11.22 68.682,11.234L69.987,12.383C69.995,12.39 70,12.4 70,12.411C70,12.43 69.984,12.445 69.966,12.445C69.961,12.445 69.956,12.444 69.952,12.443C69.681,12.341 69.38,12.147 69.049,11.863C69.031,11.848 69.008,11.839 68.985,11.839C68.934,11.839 68.891,11.879 68.886,11.93C68.886,11.942 68.904,11.985 68.938,12.061C68.944,12.074 68.948,12.088 68.948,12.101C68.948,12.15 68.908,12.191 68.859,12.191C68.838,12.191 68.819,12.184 68.803,12.17C68.663,12.063 68.529,11.978 68.399,11.915C68.392,11.912 68.384,11.91 68.376,11.91C68.345,11.91 68.32,11.936 68.32,11.967C68.32,11.978 68.323,11.988 68.328,11.997L69.076,13.159C69.082,13.17 69.086,13.182 69.086,13.196C69.086,13.236 69.053,13.27 69.012,13.27C68.996,13.27 68.981,13.265 68.968,13.255L67.661,12.21C67.651,12.202 67.639,12.197 67.627,12.197C67.597,12.197 67.573,12.222 67.573,12.252L67.573,12.255C67.574,12.271 67.577,12.292 67.582,12.319C67.583,12.323 67.584,12.328 67.584,12.332C67.584,12.362 67.562,12.388 67.533,12.393C67.069,12.487 66.654,12.381 66.288,12.074C66.278,12.065 66.265,12.06 66.251,12.06C66.234,12.06 66.218,12.068 66.207,12.081C66.194,12.113 66.201,12.149 66.226,12.173L66.709,12.621C66.718,12.631 66.723,12.644 66.723,12.657C66.723,12.686 66.7,12.709 66.672,12.709C66.667,12.709 66.663,12.709 66.659,12.708C66.54,12.67 66.197,12.57 65.631,12.408C65.612,12.403 65.593,12.402 65.573,12.404C65.499,12.414 65.446,12.477 65.455,12.545C65.457,12.562 65.463,12.579 65.474,12.594C65.478,12.602 65.512,12.609 65.574,12.614C65.601,12.617 65.622,12.64 65.622,12.668C65.622,12.677 65.62,12.685 65.616,12.693C65.601,12.721 65.58,12.742 65.552,12.757C65.523,12.772 65.497,12.776 65.476,12.77C65.143,12.679 64.905,12.639 64.762,12.651C64.732,12.654 64.706,12.673 64.693,12.7C64.674,12.742 64.674,12.779 64.693,12.812C64.707,12.835 64.732,12.847 64.757,12.844C64.861,12.831 64.927,12.835 64.957,12.856C64.977,12.868 64.99,12.89 64.99,12.915C64.99,12.951 64.96,12.982 64.924,12.982C64.912,12.982 64.9,12.979 64.89,12.973C64.671,12.88 64.483,12.846 64.327,12.871C64.267,12.879 64.223,12.931 64.223,12.991C64.223,13.026 64.237,13.059 64.263,13.082L64.457,13.255C64.469,13.265 64.475,13.279 64.475,13.295C64.475,13.323 64.452,13.347 64.424,13.347L64.423,13.347C64.39,13.347 64.081,13.287 63.495,13.168C63.392,13.147 63.321,13.163 63.283,13.216C63.274,13.229 63.269,13.244 63.269,13.26C63.269,13.302 63.304,13.337 63.345,13.337C63.347,13.337 63.348,13.337 63.35,13.337C63.363,13.337 63.379,13.333 63.399,13.325C63.44,13.307 63.488,13.319 63.517,13.354C63.552,13.396 63.556,13.446 63.529,13.505C63.514,13.539 63.48,13.561 63.443,13.56C62.977,13.528 62.743,13.513 62.74,13.515C62.716,13.525 62.701,13.547 62.701,13.573C62.701,13.597 62.715,13.619 62.737,13.629C62.949,13.726 63.118,13.778 63.246,13.783C64.907,13.857 66.351,14.382 67.58,15.358C67.89,15.603 68.471,16.341 68.483,16.829C68.491,17.191 68.538,17.41 68.623,17.488C68.635,17.497 68.642,17.511 68.642,17.525C68.642,17.551 68.621,17.572 68.595,17.572C68.593,17.572 68.591,17.572 68.589,17.572C68.546,17.57 68.507,17.581 68.471,17.604C68.463,17.609 68.459,17.62 68.463,17.629C68.721,18.222 68.869,18.823 68.909,19.434L68.909,19.436C68.909,19.47 68.881,19.498 68.847,19.498C68.83,19.498 68.814,19.491 68.803,19.479L66.91,17.436ZM7.174,17.037C7.2,17.062 7.213,17.1 7.213,17.151C7.213,17.152 7.212,17.153 7.212,17.155C7.212,17.164 7.221,17.172 7.23,17.172C7.239,17.172 7.246,17.166 7.247,17.158C7.265,17.117 7.267,17.086 7.252,17.064C7.241,17.048 7.218,17.033 7.183,17.02C7.182,17.019 7.18,17.018 7.178,17.018C7.173,17.018 7.169,17.023 7.169,17.028C7.169,17.032 7.17,17.035 7.174,17.037ZM10.247,20.611C10.2,20.637 10.175,20.661 10.173,20.683C10.173,20.684 10.173,20.685 10.173,20.686C10.173,20.712 10.194,20.733 10.22,20.733C10.234,20.733 10.248,20.727 10.257,20.715C10.259,20.713 10.27,20.693 10.291,20.655C10.295,20.65 10.296,20.644 10.296,20.638C10.296,20.62 10.282,20.606 10.264,20.606C10.258,20.606 10.252,20.607 10.247,20.611ZM3.662,22.04C3.611,22.071 3.59,22.113 3.598,22.166C3.649,22.135 3.67,22.093 3.662,22.04ZM9.661,24.97C9.604,25.026 9.611,25.104 9.684,25.203C9.694,25.218 9.7,25.236 9.7,25.254C9.7,25.303 9.66,25.343 9.611,25.343C9.59,25.343 9.569,25.336 9.553,25.322C9.133,24.935 8.834,24.549 8.655,24.162C8.628,24.101 8.56,24.067 8.495,24.081L8.401,24.101C8.393,24.102 8.385,24.103 8.377,24.103C8.313,24.103 8.26,24.053 8.256,23.989L8.227,23.387C8.225,23.367 8.208,23.351 8.187,23.351C8.18,23.351 8.172,23.353 8.165,23.358L8.035,23.442C8.015,23.454 8.004,23.476 8.005,23.499L8.205,27.55C8.205,27.554 8.205,27.558 8.206,27.561C8.215,27.635 8.283,27.688 8.355,27.679C8.359,27.678 8.363,27.678 8.367,27.677L10.604,27.199C10.675,27.183 10.727,27.118 10.727,27.044C10.727,27.028 10.724,27.011 10.72,26.996C10.66,26.811 10.65,26.667 10.688,26.565C10.714,26.491 10.69,26.408 10.628,26.359C10.528,26.283 10.424,26.013 10.313,25.549C10.306,25.522 10.281,25.503 10.254,25.505L10.178,25.51C10.171,25.51 10.166,25.515 10.166,25.522C10.166,25.523 10.166,25.524 10.166,25.525L10.245,26.201C10.245,26.205 10.246,26.209 10.246,26.213C10.246,26.25 10.216,26.28 10.179,26.28C10.151,26.28 10.126,26.262 10.117,26.235C9.885,25.71 9.78,25.311 9.802,25.037C9.802,25.035 9.802,25.033 9.802,25.032C9.802,24.985 9.764,24.948 9.718,24.948C9.697,24.948 9.677,24.955 9.661,24.97ZM32.372,25.792C32.91,25.789 33.453,25.71 34.001,25.554C34.017,25.55 34.028,25.535 34.028,25.518C34.028,25.502 34.017,25.487 34.001,25.483C33.531,25.359 32.864,25.193 32.367,25.195C31.87,25.198 31.205,25.373 30.735,25.502C30.715,25.502 30.698,25.519 30.698,25.539C30.698,25.56 30.715,25.577 30.735,25.577C31.285,25.725 31.83,25.797 32.372,25.792ZM45.342,25.643C37.652,26.662 29.524,27.885 20.961,29.311C20.894,29.323 20.826,29.326 20.757,29.319L8.34,28.11C8.337,28.11 8.334,28.11 8.331,28.11C8.269,28.109 8.217,28.159 8.217,28.22C8.217,28.223 8.217,28.226 8.217,28.229C8.504,32.337 9.327,36.326 10.685,40.196C10.71,40.267 10.777,40.315 10.852,40.315L17.039,40.315C17.101,40.315 17.152,40.264 17.152,40.201L17.152,39.072C17.152,38.974 17.232,38.894 17.329,38.894L17.391,38.894C17.461,38.894 17.518,38.952 17.518,39.023L17.518,39.025L17.494,40.092C17.493,40.133 17.524,40.168 17.565,40.172L19.522,40.362C19.53,40.363 19.538,40.364 19.546,40.364C19.689,40.364 19.806,40.246 19.807,40.102L19.809,38.956C19.809,38.854 19.892,38.77 19.994,38.767L20.006,38.767C20.106,38.767 20.188,38.851 20.188,38.953L20.193,40.159C20.193,40.229 20.25,40.286 20.319,40.286L22.602,40.286C22.666,40.286 22.718,40.233 22.718,40.169L22.718,38.844C22.718,38.772 22.777,38.713 22.849,38.713L22.932,38.713C23.008,38.713 23.07,38.776 23.07,38.852L23.07,38.854L23.043,40.055L23.043,40.058C23.041,40.213 23.166,40.341 23.319,40.343L24.605,40.343C24.755,40.343 24.879,40.218 24.879,40.068L24.879,38.812C24.879,38.732 24.942,38.666 25.021,38.663L32.906,38.5C32.919,38.499 32.93,38.488 32.93,38.475L32.93,38.408C32.93,38.404 32.927,38.401 32.923,38.401L25.036,38.225C24.957,38.224 24.893,38.158 24.893,38.079L24.893,33.19C24.893,33.129 24.85,33.075 24.79,33.064L23.134,32.752C23.129,32.751 23.124,32.75 23.119,32.75C23.075,32.75 23.038,32.786 23.038,32.831L23.038,38.076C23.038,38.08 23.038,38.083 23.038,38.086C23.032,38.145 22.98,38.19 22.922,38.184C22.919,38.184 22.916,38.183 22.913,38.183L22.844,38.17C22.791,38.161 22.753,38.114 22.753,38.059L22.753,32.833C22.753,32.76 22.7,32.696 22.627,32.682L20.25,32.234C20.244,32.233 20.238,32.232 20.233,32.232C20.183,32.232 20.142,32.273 20.142,32.324L20.142,32.325L20.156,38.052C20.156,38.128 20.094,38.19 20.019,38.19L20.004,38.19C19.925,38.181 19.866,38.114 19.866,38.034L19.903,32.308C19.903,32.224 19.843,32.15 19.76,32.135L17.644,31.736C17.64,31.735 17.636,31.735 17.632,31.734C17.559,31.727 17.494,31.781 17.487,31.852C17.487,31.856 17.486,31.861 17.486,31.865L17.486,38.01C17.486,38.059 17.446,38.099 17.398,38.099L17.327,38.099C17.271,38.097 17.226,38.051 17.226,37.995L17.226,31.86C17.226,31.791 17.177,31.732 17.11,31.719L15.909,31.493C15.835,31.479 15.781,31.413 15.781,31.337L15.781,30.639C15.781,30.559 15.84,30.491 15.917,30.48L45.389,25.762C45.395,25.761 45.4,25.755 45.399,25.75L45.386,25.678C45.384,25.658 45.367,25.643 45.347,25.643C45.346,25.643 45.344,25.643 45.342,25.643ZM19.411,27.439C18.948,27.454 18.484,27.533 18.018,27.677C18.001,27.677 17.987,27.692 17.987,27.709C17.987,27.727 18.002,27.741 18.019,27.741L18.02,27.741C18.424,27.835 18.997,27.964 19.423,27.949C19.849,27.937 20.412,27.773 20.811,27.652C20.824,27.648 20.833,27.635 20.833,27.621C20.833,27.607 20.823,27.594 20.808,27.59C20.336,27.474 19.87,27.424 19.411,27.439ZM39.508,40.338C39.551,40.338 39.587,40.302 39.587,40.258L39.587,28.125C39.587,28.085 39.557,28.051 39.518,28.046L36.503,27.622C36.5,27.622 36.496,27.622 36.493,27.622C36.45,27.622 36.415,27.657 36.415,27.701L36.415,40.258C36.415,40.302 36.45,40.338 36.493,40.338L39.508,40.338ZM54.668,28.474L57.852,28.45C57.868,28.448 57.88,28.435 57.88,28.42L57.88,28.407C57.875,28.211 57.155,28.055 56.283,28.061L56.228,28.061C55.354,28.067 54.635,28.234 54.636,28.431L54.636,28.445C54.636,28.461 54.65,28.474 54.666,28.474L54.668,28.474ZM43.371,40.338C43.417,40.338 43.455,40.3 43.455,40.253L43.455,28.633C43.455,28.591 43.425,28.555 43.383,28.549L40.039,28.076C40.035,28.075 40.031,28.075 40.027,28.075C39.981,28.075 39.943,28.113 39.943,28.159L39.943,40.253C39.943,40.3 39.981,40.338 40.027,40.338L43.371,40.338ZM47.704,40.338C47.751,40.338 47.788,40.3 47.788,40.253L47.788,29.22C47.789,29.178 47.758,29.142 47.717,29.136L43.917,28.601C43.913,28.6 43.909,28.6 43.905,28.6C43.859,28.6 43.821,28.638 43.821,28.684L43.821,40.253C43.821,40.3 43.859,40.338 43.905,40.338L47.704,40.338ZM51.853,40.338L56.635,40.338C56.719,40.338 56.796,40.282 56.824,40.199C58.023,36.542 58.819,32.907 59.211,29.297C59.211,29.293 59.212,29.29 59.212,29.286C59.212,29.241 59.175,29.204 59.13,29.204C59.127,29.204 59.123,29.204 59.12,29.205L52.176,29.918C52.169,29.919 52.163,29.919 52.157,29.919C52.067,29.919 51.992,29.844 51.992,29.753C51.992,29.746 51.992,29.739 51.993,29.732C52.023,29.488 52.01,29.303 51.954,29.178C51.932,29.13 51.885,29.1 51.834,29.1C51.761,29.1 51.702,29.159 51.701,29.232L51.701,40.184C51.701,40.268 51.77,40.338 51.853,40.338Z" style="fill:rgb(187,77,9);fill-rule:nonzero;"></path>
                <path d="M15.781,21L15.813,19.571C15.815,19.533 15.838,19.499 15.872,19.484L36.341,10.323C36.354,10.316 36.368,10.313 36.383,10.313C36.437,10.313 36.481,10.358 36.481,10.412L36.481,10.414L36.365,15.776C36.365,15.821 36.334,15.859 36.291,15.87L15.904,21.099C15.896,21.101 15.888,21.102 15.88,21.102C15.825,21.102 15.781,21.057 15.781,21.003L15.781,21Z" style="fill:rgb(187,77,9);fill-rule:nonzero;"></path>
                <path d="M32.746,20.482L15.907,24.437C15.9,24.439 15.894,24.44 15.887,24.44C15.841,24.44 15.803,24.402 15.803,24.356L15.803,22.302C15.803,22.265 15.828,22.231 15.865,22.221L51.602,12.116C51.609,12.114 51.617,12.113 51.624,12.113C51.67,12.113 51.708,12.151 51.708,12.197L51.708,23.954C51.707,24 51.67,24.037 51.624,24.037C51.619,24.037 51.614,24.037 51.61,24.036L32.78,20.48C32.768,20.478 32.757,20.479 32.746,20.482Z" style="fill:rgb(187,77,9);fill-rule:nonzero;"></path>
            </g>
        </g>
    </g>
</svg>
