<?xml version="1.0" encoding="UTF-8"?>
<svg xmlns="http://www.w3.org/2000/svg" width="300" height="170" viewBox="0 0 300 170" fill="none">
  <g clip-path="url(#clip0_6834_172)">
    <path d="M107.866 123.642C107.799 123.679 107.765 123.712 107.762 123.742C107.762 123.744 107.762 123.746 107.762 123.747C107.762 123.783 107.792 123.813 107.827 123.813C107.848 123.813 107.867 123.803 107.879 123.787C107.882 123.785 107.898 123.757 107.927 123.704C107.932 123.697 107.935 123.689 107.935 123.68C107.935 123.655 107.915 123.635 107.89 123.635C107.881 123.635 107.873 123.638 107.866 123.642Z" stroke="#88512F" stroke-width="2"></path>
    <path d="M207.271 112.656C205.914 112.88 206.195 114.915 206.182 116.022C205.953 138.197 205.796 153.742 205.711 162.66C205.701 163.773 205.567 165.391 204.185 165.449C202.831 165.507 201.878 165.097 201.326 164.218C201.129 163.908 201.019 162.857 200.996 161.067C200.746 141.119 200.612 125.093 200.594 112.987C200.594 111.739 200.288 110.829 199.154 110.363C197.138 109.533 195.694 108.626 194.821 107.642C192.714 105.27 195.061 102.184 196.958 100.642C197.807 99.9528 199.202 99.3562 199.814 98.4183C200.38 97.5448 200.662 96.4586 200.659 95.1596C200.641 75.0055 200.649 58.7414 200.683 46.3665C200.687 44.5597 200.45 42.4596 202.591 42.3596C204.312 42.2803 205.993 42.9803 206 44.9872C206.086 63.7769 206.082 79.439 206.209 92.3562C206.223 93.6493 206.701 94.3527 208.01 93.7872C208.537 93.5596 210.701 92.409 214.501 90.3355C223.477 85.439 232.264 80.2596 240.903 74.4907C250.622 68.001 259.752 60.7114 266.47 51.2597C270.347 45.801 273.189 38.8596 273.347 32.1459C273.516 24.9297 270.824 18.84 265.271 13.8769C262.034 10.9803 258.079 9.20103 253.546 7.40103C223.024 -4.72311 189.24 9.07344 168.512 32.37C166.972 34.101 165.079 36.4183 162.831 39.3217C160.609 42.1931 158.579 45.6459 156.742 49.6803C155.92 51.4827 155.391 53.4517 155.158 55.5872C154.996 57.0596 152.574 56.5665 151.622 56.2045C148.505 55.0217 150.635 49.7734 151.635 47.3183C154.594 40.07 159.244 34.5079 165.134 28.7114C175.39 18.6193 187.233 10.9655 200.663 5.74931C209.504 2.31241 218.676 0.413789 228.178 0.052755C237.853 -0.317245 247.339 1.26068 256.635 4.78724C266.075 8.36655 274.484 13.8872 278.082 23.3528C282.244 34.2976 277.835 46.9493 270.752 55.8148C267.35 60.0724 263.81 63.7607 260.13 66.8803C252.987 72.9379 244.978 78.5503 236.103 83.7183C226.107 89.5365 218.131 94.0276 212.175 97.1907C211.532 97.5321 210.804 98.1459 209.9 98.4493C207.628 99.2148 206.323 100.742 206.168 103.277C206.079 104.746 206.137 106.215 206.343 107.684C206.405 108.124 206.687 108.502 207.089 108.684C207.68 108.953 208.351 109.166 209.103 109.322C234.913 114.653 254.475 118.762 267.79 121.649C269.897 122.104 271.859 122.342 273.649 123.136C274.327 123.434 274.544 123.988 274.299 124.798C274.257 124.942 274.134 125.05 273.986 125.073C273.36 125.177 272.817 125.193 272.357 125.122C261.642 123.501 250.876 121.587 237.989 118.829C230.216 117.164 221.529 115.35 211.927 113.387C209.829 112.957 208.403 112.709 207.649 112.642C207.524 112.631 207.397 112.636 207.271 112.656Z" fill="#BB4D09"></path>
    <path d="M136.924 88.2597C136.98 88.2821 137.018 88.3369 137.018 88.3976C137.018 88.438 137.001 88.4766 136.972 88.5045C136.688 88.769 136.274 89.0035 135.728 89.2079C134.159 89.801 132.326 90.3424 130.23 90.8321C125.291 91.9838 119.933 93.1276 114.158 94.2631C112.574 94.5735 111.697 95.4252 110.68 96.8424C97.766 114.815 81.1543 129.798 61.6629 140.477C57.0993 142.978 52.2515 144.957 47.1199 146.415C43.3536 147.484 39.5529 147.915 35.7178 147.708C31.656 147.487 27.7075 146.015 26.0443 142.122C24.2711 137.973 26.0409 132.753 28.7144 129.191C31.4773 125.501 35.089 122.191 39.0821 119.332C43.767 115.976 48.7831 112.952 54.1302 110.26C55.7385 109.453 55.6422 108.405 55.6422 106.798C55.6467 102.09 55.6481 78.6986 55.6457 36.6252C55.6457 36.3355 55.6663 35.3459 55.7075 33.6562C55.7419 32.3183 56.0718 31.4907 57.3742 31.1873C59.711 30.6493 60.7144 31.9286 60.711 34.1252C60.6948 62.4035 60.7144 84.7814 60.7694 101.26C60.7728 102.78 60.4017 104.642 60.9275 106.084C61.0244 106.353 61.2996 106.518 61.5804 106.473C62.3615 106.349 63.1062 106.133 63.8141 105.825C76.7831 100.225 90.2024 96.0538 104.072 93.3114C107.082 92.7149 108.91 90.7114 110.501 87.8873C117.209 75.9562 121.595 63.301 123.659 49.9217C124.583 43.931 124.68 38.0641 123.952 32.3217C123.216 26.5286 121.429 21.1424 117.893 16.5045C114.707 12.3183 110.332 9.55173 104.769 8.20449C100.863 7.25725 97.0649 6.94931 93.3742 7.28035C82.7247 8.23552 71.9996 11.6424 62.3364 15.9838C49.546 21.7286 37.7017 28.8952 26.8038 37.4838C22.1165 41.1779 17.6742 45.4262 13.4773 50.2286C9.72919 54.5183 7.0041 59.0045 5.30204 63.6873C4.83709 64.9655 4.39139 65.7504 3.96527 66.0424C2.85874 66.7976 0.466987 66.8424 0.0374341 65.0528C-0.0632532 64.6345 0.0398395 64.0021 0.346712 63.1562C0.797915 61.9079 1.05359 61.231 1.11304 61.1252C3.20685 57.4035 5.61372 53.9483 8.33297 50.7597C11.8563 46.6241 15.7959 42.6769 20.1508 38.9183C33.1931 27.6586 47.5426 18.7035 63.199 12.0528C69.7488 9.27001 76.2264 7.1838 83.1715 5.70449C90.8313 4.07 98.8897 3.55966 106.426 5.34931C118.972 8.32173 126.419 17.2735 129.113 29.6459C131.182 39.1459 130.302 49.5148 127.976 59.0217C126.026 66.9897 123.193 74.6631 119.477 82.0424C118.375 84.231 117.159 86.5424 115.828 88.9769C115.66 89.2828 115.531 89.67 115.439 90.139C115.39 90.3917 115.53 90.6462 115.769 90.7424C116.512 91.039 117.872 90.6666 118.683 90.5631C119.536 90.4552 120.148 90.3573 120.522 90.27C121.725 89.9966 124.547 89.4838 128.989 88.7321C131.221 88.3528 133.326 88.0986 135.305 87.97C135.787 87.9379 136.326 88.0345 136.924 88.2597ZM103.611 97.0011C102.972 96.7459 102.339 96.7159 101.711 96.9114C99.5323 97.5838 96.0546 98.4321 90.9687 99.8907C81.0099 102.748 71.8828 106.07 63.5873 109.856C61.9618 110.601 60.7282 110.991 60.7453 112.653C60.791 116.981 60.7615 120.518 60.656 123.263C60.5804 125.305 60.2642 127.194 57.8003 126.805C56.5632 126.609 55.9034 125.859 55.8209 124.553C55.6653 122.033 55.6089 119.133 55.6526 115.853C55.6594 115.435 55.5814 115.105 55.4189 114.863C55.1488 114.463 54.6196 114.33 54.2024 114.556C47.4051 118.232 40.9859 122.508 35.7556 128.008C33.0203 130.887 30.601 134.949 30.6869 138.87C30.7581 142.022 32.3639 143.963 35.5048 144.694C37.0948 145.067 38.5931 145.124 39.9996 144.867C45.4498 143.867 50.7718 142.047 55.9653 139.408C71.8656 131.329 86.0684 119.363 97.7007 105.591C99.5381 103.416 101.241 101.341 102.811 99.3666C103.39 98.6355 103.711 97.9355 103.773 97.2666C103.783 97.1524 103.717 97.0445 103.611 97.0011Z" fill="#BB4D09"></path>
    <path d="M142.494 68.1734C142.199 68.0596 142.003 67.7731 142.003 67.4559C142.003 67.3093 142.045 67.1659 142.123 67.0424C143.196 65.3483 143.288 63.84 142.402 62.5183C141.677 61.439 141.103 60.6045 141.958 59.5976C142.311 59.1838 142.822 58.9193 143.491 58.8045C145.02 58.5424 145.374 59.7424 145.759 61.0665C146.46 63.471 145.97 65.6952 144.288 67.739C143.867 68.249 143.164 68.4331 142.549 68.1941L142.494 68.1734Z" fill="#BB4D09"></path>
    <path d="M280.398 93.1528C278.543 96.7045 274.653 100.356 270.278 99.9666C269.635 99.9079 269.116 100.332 268.725 100.904C267.471 102.748 265.808 104.046 263.735 104.798C260.436 105.998 256.604 105.211 254.728 102.056C252.549 98.3976 253.46 93.7769 255.429 90.0941C256.188 88.6759 256.965 87.5976 257.763 86.8597C259.824 84.9459 263.161 84.1355 265.976 84.2045C271.869 84.3424 272.144 91.9631 270.996 96.1321C270.923 96.3941 270.97 96.6917 271.137 97.0252C271.697 98.1424 274.251 96.8493 274.986 96.3459C276.715 95.1597 278.176 93.6552 279.367 91.8321C279.429 91.74 279.438 91.621 279.391 91.5183C279.355 91.4424 279.15 91.0779 278.776 90.4252C276.886 87.139 278.45 83.701 282.106 82.9873C283.368 82.7414 284.585 82.74 285.756 82.9838C286.69 83.1769 289.422 84.3183 288.34 85.6941C287.622 86.6045 286.103 86.0424 285.233 85.5493C284.624 85.2045 284.147 85.0814 283.804 85.1804C281.697 85.7769 283.309 89.2666 284.068 90.3769C285.179 92.0021 286.35 93.5607 287.58 95.0528C287.838 95.3662 288.255 95.5035 288.649 95.4045C289.927 95.0779 291.135 94.6252 292.271 94.0459C295.371 92.4631 297.577 91.0976 299.354 90.7735C299.371 90.7704 299.389 90.7686 299.407 90.7686C299.567 90.7686 299.699 90.901 299.699 91.0617C299.699 91.12 299.681 91.1769 299.649 91.2252C299.28 91.7769 298.659 92.3217 297.787 92.8597C295.452 94.301 292.994 95.8424 290.412 97.4838C290.17 97.6369 290.068 97.9435 290.171 98.2114C291.268 101.046 291.752 105.704 288.804 107.784C286.013 109.749 279.412 108.611 278.842 104.636C278.385 101.446 281.611 98.9252 284.007 97.4424C284.053 97.4135 284.082 97.3624 284.082 97.3072C284.082 97.2697 284.069 97.2331 284.044 97.2045L280.57 93.1321C280.566 93.1269 280.561 93.1221 280.556 93.1179C280.511 93.0824 280.445 93.0914 280.409 93.1373C280.405 93.1421 280.401 93.1472 280.398 93.1528ZM266.381 94.9493C267.591 93.1597 267.089 89.4631 266.027 87.6838C266.025 87.6807 266.023 87.6772 266.021 87.6741C265.855 87.4083 265.499 87.3273 265.232 87.4952C265.229 87.4973 265.226 87.499 265.223 87.501C264.793 87.7907 264.402 88.6321 264.316 89.1942C263.993 91.3552 264.555 93.2804 266.003 94.97C266.049 95.0224 266.115 95.0524 266.184 95.0524C266.263 95.0524 266.336 95.0138 266.381 94.9493ZM259.649 91.6424C258.144 94.2528 257.687 98.6321 258.835 101.463C259.385 102.829 260.519 103.022 261.783 102.401C263.33 101.645 264.394 100.466 264.976 98.8631C265.02 98.7407 264.976 98.6035 264.869 98.5321C262.411 96.8952 260.74 94.6069 259.855 91.6666C259.841 91.619 259.797 91.5862 259.747 91.5862C259.707 91.5862 259.669 91.6076 259.649 91.6424ZM285.69 100.625C285.347 100.462 285.054 100.481 284.811 100.684C283.718 101.591 282.673 103.342 283.199 104.784C283.543 105.722 284.591 106.639 285.515 105.784C286.453 104.925 286.202 102.263 285.969 100.987C285.941 100.828 285.836 100.692 285.69 100.625Z" fill="#BB4D09"></path>
    <path d="M186.996 119.222C187.044 119.121 186.98 119.064 186.804 119.053L185.553 117.894C185.532 117.874 185.504 117.863 185.475 117.863C185.435 117.863 185.398 117.884 185.378 117.918C185.343 117.973 185.32 118.004 185.309 118.011C185.289 118.023 185.267 118.03 185.244 118.03C185.176 118.03 185.121 117.974 185.121 117.906C185.121 117.892 185.123 117.879 185.127 117.867C185.191 117.643 185.128 117.443 184.938 117.267C184.922 117.253 184.902 117.246 184.882 117.246C184.835 117.246 184.796 117.285 184.796 117.332C184.796 117.336 184.797 117.339 184.797 117.342L184.848 117.67C184.8 117.691 184.756 117.723 184.714 117.767L183.704 116.422C183.695 116.41 183.682 116.404 183.668 116.404C183.644 116.404 183.624 116.424 183.624 116.449C183.624 116.452 183.624 116.456 183.625 116.46L183.67 116.68C183.67 116.684 183.671 116.688 183.671 116.692C183.671 116.722 183.646 116.747 183.616 116.747C183.609 116.747 183.601 116.746 183.594 116.742L183.092 116.511C183.058 116.496 183.027 116.473 183 116.446C182.512 115.972 181.916 115.6 181.213 115.329C181.181 115.317 181.147 115.329 181.134 115.356V115.36C181.116 115.391 181.125 115.431 181.154 115.449C183.058 116.729 184.395 118.887 185.532 120.877C185.816 121.373 185.961 121.911 185.965 122.491C185.977 123.826 186.052 125.212 186.192 126.649C186.192 126.652 186.192 126.655 186.192 126.658C186.192 126.705 186.154 126.744 186.106 126.744C186.089 126.744 186.072 126.738 186.058 126.729C185.529 126.339 185.134 125.68 184.426 124.836C182.993 123.136 181.979 121.122 181.343 119.087C181.342 119.07 181.326 119.056 181.309 119.056C181.29 119.056 181.275 119.072 181.275 119.091C181.275 119.092 181.275 119.093 181.275 119.094C181.045 120.522 181.086 121.817 181.395 122.98C181.402 123.013 181.388 123.047 181.36 123.06C181.319 123.083 181.298 123.121 181.295 123.173C181.295 123.183 181.296 123.193 181.299 123.204C181.688 124.57 181.643 125.902 181.165 127.201C181.149 127.244 181.143 127.29 181.147 127.336L181.326 129.104C181.326 129.106 181.326 129.107 181.326 129.108C181.326 129.128 181.311 129.144 181.292 129.146L181.195 129.156C181.139 129.162 181.087 129.123 181.075 129.067C180.956 128.398 180.846 127.997 180.745 127.863C180.728 127.841 180.701 127.828 180.673 127.828C180.624 127.828 180.584 127.866 180.58 127.915C180.544 128.949 180.53 129.529 180.539 129.653C180.55 129.786 180.476 129.878 180.316 129.929C180.214 129.962 180.14 130.051 180.13 130.156C180.1 130.446 180.047 130.65 179.969 130.77C179.951 130.795 179.923 130.81 179.892 130.81C179.846 130.81 179.806 130.775 179.8 130.729L179.762 130.36C179.756 130.314 179.717 130.279 179.67 130.279C179.632 130.279 179.598 130.303 179.584 130.339L178.872 132.256C178.868 132.263 178.86 132.268 178.852 132.268C178.839 132.268 178.829 132.258 178.828 132.246L178.893 131.463C178.893 131.459 178.894 131.454 178.894 131.449C178.894 131.364 178.826 131.294 178.742 131.291C178.689 131.288 178.653 131.274 178.632 131.249C178.571 131.183 178.551 131.088 178.58 131.001C178.86 130.201 178.931 129.547 178.793 129.039C178.628 128.434 178.581 128.018 178.653 127.791C178.797 127.315 178.494 126.573 178.491 126.111C178.48 124.721 178.403 123.425 178.261 122.225C178.148 121.299 177.904 120.463 177.529 119.718C177.517 119.694 177.493 119.679 177.467 119.679C177.429 119.679 177.398 119.71 177.398 119.748C177.398 119.749 177.398 119.749 177.398 119.749V133.118C177.398 133.248 177.491 133.36 177.618 133.384L184.223 134.629C184.264 134.639 184.294 134.676 184.294 134.719C184.294 134.766 184.259 134.806 184.213 134.811L177.659 135.484C177.549 135.495 177.461 135.584 177.453 135.694L176.206 150.956C176.205 150.959 176.205 150.961 176.205 150.964C176.2 151.083 176.292 151.186 176.409 151.19C176.412 151.191 176.415 151.191 176.419 151.191H188.443C188.558 151.191 188.653 151.286 188.653 151.401V154.622C188.653 154.728 188.566 154.815 188.46 154.815H96.2745C96.1896 154.815 96.1199 154.745 96.1199 154.66V151.353C96.1199 151.264 96.1927 151.191 96.2814 151.191H105.752C105.846 151.19 105.922 151.112 105.922 151.018C105.922 151.01 105.922 151.002 105.921 150.994C105.092 144.594 104.429 138.329 104.312 132.018C104.28 130.26 104.232 128.449 104.168 126.587C104.166 126.601 104.162 126.612 104.158 126.622C103.715 127.836 103.491 129.072 103.484 130.332C103.482 130.442 103.494 130.552 103.522 130.66C103.776 131.701 103.862 132.771 103.78 133.87C103.732 134.48 104.01 135.239 103.766 135.877C103.755 135.904 103.728 135.923 103.699 135.923C103.665 135.923 103.636 135.899 103.628 135.867C103.58 135.667 103.387 135.415 103.048 135.111C102.961 135.033 102.916 134.918 102.927 134.801C102.934 134.737 102.917 134.668 102.876 134.594C102.854 134.554 102.812 134.529 102.767 134.529C102.713 134.529 102.666 134.564 102.649 134.615C102.638 134.654 102.633 134.691 102.635 134.725C102.636 134.73 102.636 134.735 102.635 134.739C102.63 134.767 102.601 134.786 102.571 134.78C102.568 134.78 102.564 134.779 102.56 134.777C102.514 134.756 102.484 134.737 102.47 134.718C102.44 134.674 102.426 134.65 102.426 134.646C102.446 134.386 102.44 134.116 102.409 133.836C102.395 133.731 102.348 133.634 102.275 133.563C101.979 133.273 101.914 132.922 102.079 132.508C102.08 132.503 102.081 132.498 102.081 132.492C102.081 132.464 102.058 132.44 102.029 132.44C102.022 132.44 102.014 132.442 102.006 132.446C102.004 132.448 101.983 132.484 101.945 132.553C101.925 132.588 101.897 132.617 101.862 132.635C101.752 132.694 101.606 132.637 101.539 132.51C101.518 132.47 101.506 132.425 101.505 132.38C101.5 132.215 101.528 132.061 101.587 131.918C101.595 131.897 101.6 131.875 101.6 131.853C101.6 131.754 101.519 131.673 101.421 131.673C101.419 131.673 101.417 131.673 101.415 131.673C101.413 131.676 101.396 131.683 101.364 131.694C101.357 131.697 101.349 131.698 101.341 131.698C101.302 131.698 101.269 131.665 101.269 131.626C101.269 131.616 101.271 131.607 101.275 131.598C101.373 131.359 101.358 131.176 101.23 131.049C101.213 131.032 101.203 131.008 101.203 130.984C101.203 130.933 101.245 130.891 101.296 130.891C101.297 130.891 101.298 130.891 101.299 130.891C101.445 130.895 101.614 130.786 101.804 130.563C101.809 130.557 101.814 130.549 101.816 130.54C101.828 130.507 101.811 130.47 101.778 130.459C101.77 130.456 101.761 130.455 101.752 130.456C101.642 130.466 101.568 130.487 101.529 130.522C101.503 130.545 101.469 130.558 101.435 130.558C101.357 130.558 101.294 130.494 101.294 130.417C101.294 130.394 101.299 130.372 101.309 130.353C101.646 129.631 101.688 129.234 101.436 129.163C101.39 129.151 101.357 129.111 101.35 129.063L101.113 127.491C101.241 127.373 101.328 127.245 101.374 127.104C101.376 127.099 101.377 127.094 101.377 127.088C101.377 127.06 101.354 127.037 101.325 127.037C101.31 127.037 101.294 127.044 101.285 127.056C101.186 127.173 101.129 127.318 101.113 127.491C100.733 127.674 100.658 127.97 100.89 128.377C100.945 128.474 100.934 128.597 100.862 128.684C100.608 128.984 100.295 129.17 100.23 129.567C100.198 129.762 100.121 129.902 99.9996 129.987C99.8755 130.07 99.7852 130.194 99.7453 130.339C99.7453 130.343 99.7419 130.363 99.735 130.398C99.7254 130.463 99.6687 130.513 99.6023 130.513C99.5903 130.513 99.5783 130.511 99.5666 130.508C99.4154 130.467 99.3099 130.514 99.2505 130.649C98.9642 131.307 98.6594 131.832 98.3364 132.225C98.292 132.279 98.2261 132.31 98.1566 132.31C98.0285 132.31 97.923 132.204 97.923 132.076C97.923 132.068 97.9233 132.06 97.924 132.053L98.1577 129.453C98.1577 129.437 98.1529 129.421 98.1439 129.408C98.1346 129.394 98.114 129.369 98.0821 129.332C98.0216 129.269 97.9938 129.18 98.0065 129.091C98.223 127.598 99.9584 125.446 101.082 124.432C101.09 124.424 101.096 124.414 101.098 124.403C101.104 124.375 101.087 124.348 101.061 124.343C101.049 124.34 101.037 124.343 101.027 124.349C99.8838 124.915 98.9127 125.7 98.113 126.704C98.0859 126.737 98.0384 126.743 98.0065 126.718L98.003 126.715C97.9707 126.69 97.9649 126.642 97.9893 126.608C98.1106 126.452 98.1704 126.249 98.168 126.001C98.168 126 98.168 126 98.168 125.999C98.168 125.955 98.1322 125.919 98.0889 125.919C98.0604 125.919 98.0343 125.935 98.0202 125.96C97.9401 126.091 97.9044 126.237 97.9137 126.398C97.9199 126.494 97.848 126.58 97.7522 126.591C97.6285 126.604 97.5381 126.668 97.4807 126.78C97.2917 127.149 96.9549 127.37 96.6869 127.68C96.6673 127.704 96.6384 127.718 96.6078 127.718C96.5529 127.718 96.5071 127.673 96.5047 127.618C96.5023 127.559 96.5367 127.478 96.6078 127.377C96.6209 127.355 96.6281 127.328 96.6281 127.3C96.6288 127.231 96.5893 127.175 96.5401 127.174C96.5199 127.174 96.5003 127.183 96.4841 127.201C96.4223 127.281 96.3845 127.35 96.3707 127.408C96.2426 127.967 95.923 128.345 95.412 128.542C95.2697 128.598 95.1879 128.749 95.2195 128.898L95.2573 129.073C95.2659 129.118 95.2487 129.164 95.2127 129.194C95.0639 129.311 94.9525 129.201 94.8793 128.863C94.859 128.767 94.8673 128.667 94.9034 128.577L95.436 127.253C95.4398 127.244 95.4419 127.236 95.4419 127.227C95.4419 127.193 95.4137 127.164 95.38 127.164C95.3597 127.164 95.3412 127.174 95.3295 127.191L94.9515 127.622C94.9288 127.653 94.8924 127.672 94.8535 127.672C94.7872 127.672 94.7329 127.618 94.7329 127.551C94.7329 127.526 94.7408 127.501 94.7556 127.48L95.3879 126.387C95.3941 126.377 95.3972 126.365 95.3972 126.353C95.3972 126.317 95.369 126.286 95.3329 126.284C95.2848 126.279 95.2505 126.25 95.2298 126.198C95.2113 126.15 95.2219 126.096 95.2573 126.06C96.7556 124.487 98.6226 123.611 100.859 123.432C100.904 123.429 100.939 123.391 100.939 123.346C100.939 123.317 100.925 123.289 100.9 123.273C100.498 122.998 100.371 122.915 99.7659 123.011C99.4704 123.06 99.2515 123.059 99.1096 123.008C99.0986 123.004 99.0889 122.998 99.081 122.99C99.0556 122.962 99.0587 122.917 99.0879 122.89C99.0962 122.882 99.1058 122.877 99.1164 122.873C99.1669 122.86 99.2288 122.86 99.302 122.873C99.3869 122.885 99.4439 122.863 99.4738 122.808C99.492 122.773 99.4934 122.729 99.4773 122.673C99.468 122.643 99.436 122.621 99.381 122.604C99.0075 122.485 98.7144 122.499 98.5013 122.646C98.501 122.646 98.501 122.646 98.5006 122.646C98.4673 122.668 98.4233 122.659 98.403 122.627C98.4023 122.627 98.402 122.626 98.4017 122.625C98.3786 122.588 98.3821 122.538 98.412 122.473C98.4151 122.467 98.4164 122.46 98.4164 122.452C98.4164 122.431 98.4037 122.412 98.3845 122.404C98.1302 122.28 97.9182 122.31 97.7487 122.494C97.736 122.507 97.7185 122.514 97.7003 122.514C97.6625 122.514 97.6316 122.483 97.6316 122.445C97.6316 122.443 97.6315 122.441 97.6319 122.439C97.6549 122.271 97.4955 122.115 97.1542 121.97C97.1432 121.965 97.1315 121.963 97.1195 121.963C97.0704 121.963 97.0302 122.003 97.0302 122.052C97.0302 122.07 97.035 122.087 97.0443 122.101C97.0742 122.149 97.1233 122.167 97.192 122.153C97.1934 122.153 97.1944 122.152 97.1958 122.152C97.2144 122.152 97.2302 122.168 97.2302 122.187C97.2302 122.188 97.2298 122.189 97.2298 122.191C97.2185 122.301 97.1508 122.366 97.0271 122.384C96.9762 122.393 96.9237 122.383 96.8793 122.356C96.8563 122.34 96.8288 122.314 96.7968 122.277C96.7236 122.197 96.6027 122.18 96.5082 122.236L95.3467 122.922C95.3384 122.927 95.3285 122.93 95.3185 122.93C95.2903 122.93 95.2669 122.907 95.2669 122.878C95.2669 122.876 95.2673 122.873 95.2676 122.87C95.2859 122.762 95.3113 122.687 95.3432 122.646C95.3563 122.63 95.3635 122.61 95.3635 122.589C95.3635 122.557 95.3467 122.527 95.3192 122.511C95.2962 122.498 95.2632 122.497 95.2195 122.508C95.1828 122.515 95.1601 122.523 95.1508 122.532C94.8233 122.838 94.5264 123.11 94.2608 123.349C94.2525 123.357 94.2422 123.361 94.2312 123.361C94.2068 123.361 94.1865 123.34 94.1865 123.316C94.1865 123.308 94.1883 123.301 94.192 123.294L94.8931 122.077C94.9027 122.059 94.9078 122.039 94.9078 122.018C94.9078 121.95 94.8518 121.894 94.7841 121.894C94.7618 121.894 94.7401 121.9 94.7212 121.911L93.735 122.494C93.7168 122.504 93.6965 122.51 93.6759 122.51C93.6099 122.51 93.5556 122.455 93.5556 122.389C93.5556 122.361 93.5656 122.333 93.5838 122.311C94.523 121.178 95.6628 120.606 97.003 120.594C98.7556 120.58 100.381 121.103 101.879 122.163C101.886 122.168 101.894 122.168 101.9 122.163L101.996 122.101C101.998 122.1 102 122.099 102.001 122.098C102.009 122.09 102.009 122.076 102 122.066C101.999 122.065 101.997 122.064 101.996 122.063L100.68 120.904C100.678 120.903 100.676 120.901 100.675 120.899C100.64 120.861 100.643 120.802 100.679 120.77C100.681 120.767 100.684 120.765 100.687 120.763C100.724 120.736 100.75 120.714 100.766 120.698C100.766 120.697 100.767 120.697 100.767 120.697C100.818 120.639 100.814 120.55 100.758 120.499C100.757 120.499 100.756 120.498 100.756 120.498L97.9206 118.004C97.8281 117.921 97.7157 117.861 97.5941 117.832C97.2962 117.759 96.9515 117.498 96.5597 117.049C96.5484 117.037 96.5419 117.021 96.5419 117.004C96.5419 116.968 96.5714 116.939 96.6072 116.939C96.6144 116.939 96.6216 116.94 96.6285 116.942C98.2298 117.411 99.6858 118.091 100.996 118.98C101.14 119.079 101.532 119.539 102.171 120.36C102.185 120.376 102.205 120.386 102.227 120.386C102.267 120.386 102.299 120.353 102.299 120.313C102.299 120.31 102.299 120.308 102.299 120.304C102.28 120.194 102.215 120.052 102.103 119.877C102.002 119.718 101.973 119.573 102.017 119.442C102.092 119.219 102.025 118.986 101.814 118.742C101.69 118.6 101.658 118.393 101.718 118.122C101.828 117.608 101.395 117.215 100.948 116.811C100.831 116.707 100.812 116.527 100.903 116.398C101.041 116.209 101.016 116.012 100.828 115.808C100.814 115.796 100.807 115.778 100.807 115.76C100.807 115.723 100.836 115.694 100.872 115.694C100.889 115.694 100.905 115.7 100.917 115.711C101.194 115.923 101.255 116.134 101.099 116.346C101.083 116.368 101.074 116.394 101.074 116.422C101.074 116.489 101.126 116.544 101.192 116.549C101.229 116.552 101.335 116.506 101.512 116.411C101.514 116.41 101.515 116.409 101.517 116.408C101.597 116.366 101.626 116.263 101.583 116.181C101.582 116.18 101.581 116.178 101.58 116.177L101.092 115.349C101.084 115.333 101.079 115.316 101.079 115.297C101.079 115.237 101.129 115.187 101.189 115.187C101.213 115.187 101.235 115.194 101.254 115.208C101.944 115.769 102.528 116.522 103.006 117.467C103.096 117.639 103.224 117.787 103.391 117.911C103.469 117.968 103.509 118.063 103.494 118.156C103.465 118.381 103.531 118.497 103.694 118.501C103.769 118.503 103.833 118.563 103.842 118.642C103.855 118.75 103.851 118.839 103.828 118.908C103.782 119.048 103.821 119.202 103.927 119.301C104.2 119.549 104.361 119.957 104.412 120.525C104.416 120.581 104.462 120.625 104.518 120.625C104.559 120.625 104.597 120.601 104.615 120.563C105.139 119.439 105.944 118.61 107.027 118.077C107.039 118.072 107.052 118.069 107.065 118.069C107.116 118.069 107.158 118.111 107.158 118.162C107.158 118.177 107.154 118.191 107.147 118.204C106.879 118.669 106.772 119.119 106.824 119.556C106.837 119.673 106.801 119.789 106.725 119.877L106.467 120.17C106.446 120.193 106.434 120.224 106.434 120.256C106.434 120.326 106.492 120.383 106.561 120.383C106.57 120.383 106.579 120.382 106.587 120.38C106.81 120.339 106.985 120.354 107.113 120.425C107.151 120.447 107.174 120.487 107.174 120.53C107.174 120.583 107.139 120.63 107.089 120.646C106.642 120.786 106.191 121.164 105.735 121.78C105.718 121.803 105.709 121.83 105.709 121.858C105.709 121.92 105.753 121.973 105.814 121.984C106.563 122.129 107.099 121.66 107.8 121.694C108.628 121.736 108.903 121.904 109.762 121.791C109.89 121.773 110.021 121.796 110.137 121.856C110.772 122.187 111.381 122.303 111.965 122.204C111.973 122.203 111.98 122.202 111.988 122.202C112.056 122.202 112.112 122.258 112.112 122.327C112.112 122.345 112.107 122.363 112.099 122.38C112.088 122.403 111.981 122.47 111.78 122.58C111.649 122.649 111.611 122.87 111.721 122.967C111.82 123.054 111.904 123.069 111.976 123.011C112.106 122.906 112.193 122.907 112.237 123.015C112.25 123.053 112.234 123.095 112.199 123.111L111.13 123.642C111.038 123.688 110.925 123.664 110.862 123.584C110.853 123.574 110.829 123.55 110.79 123.511C110.77 123.493 110.744 123.483 110.716 123.483C110.68 123.483 110.645 123.501 110.625 123.532C110.478 123.755 110.215 123.707 109.835 123.387C109.812 123.369 109.784 123.359 109.756 123.359C109.688 123.359 109.632 123.414 109.632 123.483C109.632 123.505 109.638 123.527 109.649 123.546L109.793 123.787C109.803 123.803 109.807 123.82 109.807 123.839C109.807 123.893 109.762 123.939 109.708 123.939C109.688 123.939 109.669 123.933 109.653 123.922C109.593 123.883 109.476 123.806 109.302 123.691C109.119 123.571 108.988 123.514 108.91 123.518C108.603 123.534 108.398 123.726 108.295 124.094C108.279 124.158 108.221 124.203 108.155 124.203C108.138 124.203 108.122 124.2 108.106 124.194C107.937 124.132 107.696 124.139 107.384 124.215C107.28 124.241 107.17 124.211 107.092 124.136C106.911 123.956 106.696 123.88 106.446 123.908C106.393 123.914 106.351 123.96 106.351 124.014C106.351 124.059 106.38 124.1 106.422 124.115C108.494 124.87 110.137 125.584 111.642 127.284C111.657 127.297 111.665 127.316 111.665 127.336C111.665 127.374 111.634 127.405 111.596 127.405C111.579 127.405 111.562 127.399 111.549 127.387L110.876 126.891C110.866 126.884 110.853 126.886 110.845 126.894L110.776 126.977C110.748 127.01 110.749 127.061 110.78 127.094C110.931 127.255 111.019 127.374 111.044 127.453C111.047 127.463 111.048 127.473 111.047 127.484C111.043 127.528 111.005 127.56 110.964 127.556C110.954 127.555 110.944 127.551 110.934 127.546L108.096 125.901C107.971 125.828 107.808 125.866 107.725 125.987C107.69 126.038 107.672 126.064 107.67 126.067C107.654 126.079 107.634 126.085 107.614 126.085C107.582 126.085 107.553 126.069 107.536 126.042C107.334 125.73 107.044 125.5 106.666 125.353C106.657 125.349 106.647 125.347 106.636 125.347C106.595 125.347 106.561 125.381 106.561 125.422C106.561 125.441 106.568 125.46 106.58 125.473L107.47 126.473C107.475 126.478 107.479 126.483 107.482 126.489C107.535 126.562 107.519 126.666 107.447 126.718C107.442 126.722 107.435 126.725 107.429 126.729C107.425 126.731 107.414 126.733 107.398 126.736C107.394 126.736 107.389 126.737 107.385 126.739C107.353 126.75 107.337 126.787 107.348 126.821C107.35 126.825 107.351 126.829 107.354 126.832L107.862 127.663C107.929 127.769 107.939 127.902 107.89 128.018C107.887 128.023 107.882 128.033 107.872 128.049C107.836 128.106 107.843 128.179 107.89 128.225C108.1 128.434 108.154 128.619 108.051 128.78C107.996 128.869 108.013 128.986 108.092 129.056L108.91 129.777C108.936 129.8 108.95 129.833 108.95 129.868C108.95 129.936 108.894 129.992 108.826 129.992C108.82 129.992 108.813 129.992 108.807 129.991C108.738 129.979 108.612 129.939 108.429 129.87C108.418 129.866 108.406 129.863 108.394 129.863C108.341 129.863 108.298 129.907 108.298 129.96C108.298 129.978 108.303 129.996 108.312 130.011C108.395 130.142 108.548 130.268 108.773 130.387C108.866 130.436 108.939 130.516 108.979 130.611C109.249 131.243 109.335 131.819 109.237 132.339C109.235 132.35 109.234 132.361 109.234 132.373C109.235 132.466 109.31 132.541 109.401 132.54C109.413 132.54 109.424 132.538 109.436 132.536L139.422 126.122C139.47 126.113 139.519 126.113 139.567 126.122L176.336 133.042C176.344 133.044 176.352 133.045 176.36 133.045C176.421 133.045 176.47 132.996 176.47 132.936C176.608 129.929 176.653 126.13 176.604 121.539C176.598 120.911 176.544 120.337 176.443 119.815C176.437 119.791 176.416 119.775 176.393 119.775C176.376 119.775 176.36 119.783 176.35 119.798L173.969 123.936C173.954 123.964 173.924 123.982 173.892 123.982C173.845 123.982 173.806 123.943 173.806 123.896C173.806 123.892 173.806 123.888 173.807 123.884C173.86 123.392 173.867 123.103 173.828 123.018C173.814 122.991 173.787 122.974 173.757 122.974C173.725 122.974 173.695 122.995 173.683 123.025C173.264 124.23 172.715 125.277 172.037 126.167C171.608 126.729 171.598 127.425 171.061 127.894C171.056 127.899 171.051 127.903 171.045 127.907C170.983 127.947 170.899 127.927 170.858 127.863C170.854 127.858 170.851 127.852 170.848 127.846C170.585 127.25 170.542 126.618 170.718 125.949C170.885 125.315 170.947 124.973 170.903 124.925C170.863 124.843 170.865 124.746 170.91 124.667L171.697 123.27C171.699 123.267 171.699 123.262 171.699 123.259C171.699 123.242 171.686 123.228 171.668 123.228C171.663 123.228 171.657 123.229 171.653 123.232L171.127 123.573C171.11 123.584 171.091 123.591 171.071 123.591C171.016 123.591 170.971 123.546 170.971 123.491C170.971 123.468 170.979 123.446 170.993 123.429C171.027 123.38 171.096 123.316 171.199 123.236C171.24 123.203 171.275 123.128 171.302 123.008C171.49 122.167 171.726 121.55 172.01 121.16C172.07 121.075 172.1 120.972 172.096 120.867C172.084 120.54 172.213 120.226 172.481 119.925C172.509 119.895 172.507 119.847 172.477 119.818C172.462 119.803 172.441 119.794 172.419 119.794C172.397 119.794 172.376 119.803 172.36 119.818C172.065 120.11 171.928 120.493 171.951 120.967C171.951 120.968 171.951 120.969 171.951 120.97C171.951 121.044 171.891 121.105 171.817 121.105C171.786 121.105 171.756 121.094 171.732 121.073C171.658 121.011 171.639 120.902 171.673 120.746C171.934 119.592 172.521 118.546 173.433 117.608C173.449 117.591 173.458 117.569 173.458 117.546C173.458 117.496 173.417 117.456 173.369 117.456C173.354 117.456 173.339 117.459 173.326 117.467C172.866 117.703 172.458 118.003 172.103 118.367C172.02 118.451 171.904 118.494 171.787 118.484C171.651 118.47 171.567 118.472 171.532 118.491C169.858 119.488 168.368 120.54 167.065 121.646C167.059 121.649 167.053 121.651 167.046 121.651C167.025 121.651 167.009 121.634 167.009 121.613C167.009 121.606 167.01 121.6 167.013 121.594L168.23 120.101C168.232 120.099 168.233 120.096 168.233 120.092C168.233 120.087 168.231 120.083 168.226 120.08L168.158 120.018C168.149 120.012 168.138 120.012 168.13 120.018L166.879 121.004C166.867 121.014 166.853 121.019 166.837 121.019C166.8 121.019 166.769 120.988 166.769 120.95C166.769 120.939 166.771 120.928 166.776 120.918C167.611 119.356 169.044 118.704 170.46 117.477C170.687 117.279 171.056 117.097 171.567 116.929C171.617 116.91 171.651 116.86 171.651 116.806C171.651 116.734 171.592 116.675 171.521 116.675C171.513 116.675 171.505 116.676 171.498 116.677L170.725 116.842C170.676 116.851 170.627 116.841 170.587 116.815C170.017 116.436 169.284 116.291 168.388 116.38C168.289 116.392 168.189 116.375 168.099 116.332L167.058 115.849C166.783 115.724 166.605 115.448 166.604 115.146V108.67C166.604 108.583 166.555 108.505 166.477 108.47L144.481 98.3114C144.418 98.2831 144.346 98.2869 144.285 98.3217L115.821 115.17C115.798 115.184 115.772 115.191 115.745 115.191C115.666 115.191 115.601 115.126 115.601 115.047C115.601 115.046 115.601 115.046 115.601 115.046V114.48C115.601 114.317 115.684 114.165 115.821 114.077L145.178 94.9976C145.274 94.9355 145.396 94.929 145.498 94.9804C156.332 100.525 165.46 105.229 172.883 109.091C173.041 109.171 173.21 109.19 173.391 109.146C173.47 109.127 173.526 109.056 173.526 108.975C173.526 108.939 173.515 108.903 173.494 108.873L172.862 107.977C172.836 107.94 172.822 107.895 172.822 107.85C172.822 107.774 172.86 107.703 172.924 107.663C172.933 107.659 172.94 107.655 172.945 107.653C173.009 107.622 173.049 107.557 173.049 107.485C173.049 107.428 173.024 107.374 172.979 107.339C172.741 107.157 172.583 106.987 172.505 106.829C172.498 106.816 172.495 106.802 172.495 106.787C172.495 106.738 172.535 106.698 172.584 106.698C172.596 106.698 172.608 106.7 172.618 106.704C173.869 107.206 175.042 108.199 176.137 109.684C176.154 109.707 176.181 109.721 176.21 109.721C176.258 109.721 176.299 109.68 176.299 109.631C176.299 109.629 176.299 109.627 176.299 109.625C176.26 109.076 176.254 108.766 176.281 108.694C176.294 108.661 176.326 108.639 176.361 108.639C176.398 108.639 176.431 108.663 176.443 108.698C176.587 109.139 176.615 109.484 176.525 109.732C176.524 109.737 176.523 109.741 176.523 109.746C176.523 109.772 176.545 109.794 176.571 109.794C176.582 109.794 176.592 109.79 176.601 109.784C176.75 109.65 176.831 109.502 176.845 109.339C176.999 107.642 177.081 106.773 177.092 106.732C177.096 106.717 177.104 106.703 177.114 106.693C177.145 106.662 177.195 106.661 177.224 106.691C177.234 106.701 177.241 106.714 177.244 106.729L177.422 107.849L177.426 107.853L177.515 107.842C177.519 107.842 177.522 107.838 177.522 107.832L177.773 105.97C177.779 105.937 177.807 105.913 177.84 105.913C177.863 105.913 177.884 105.924 177.896 105.942C177.928 105.988 177.947 106.015 177.951 106.022C177.962 106.03 177.975 106.034 177.988 106.034C178.014 106.034 178.037 106.016 178.044 105.991C178.512 104.421 179.299 103.07 180.405 101.939C180.432 101.911 180.476 101.91 180.505 101.936C180.531 101.966 180.534 102.01 180.512 102.042L179.793 103.032C179.783 103.046 179.785 103.064 179.797 103.073C179.797 103.073 179.797 103.073 179.797 103.073L179.876 103.142C179.878 103.144 179.88 103.146 179.881 103.147C179.917 103.175 179.968 103.17 179.995 103.135C179.997 103.133 179.998 103.131 180 103.129C180.185 102.846 180.379 102.704 180.58 102.704C180.615 102.706 180.644 102.735 180.644 102.77C180.644 102.783 180.64 102.797 180.632 102.808L179.742 103.967C179.735 103.975 179.731 103.985 179.731 103.996C179.731 104.01 179.737 104.023 179.749 104.032L179.79 104.06C179.791 104.061 179.793 104.062 179.795 104.062C179.797 104.062 179.799 104.061 179.8 104.06L180.876 103.163C180.885 103.156 180.896 103.152 180.908 103.152C180.936 103.152 180.96 103.175 180.96 103.203C180.96 103.207 180.959 103.211 180.958 103.215C180.917 103.38 180.726 103.674 180.384 104.098C180.374 104.11 180.373 104.128 180.381 104.142C180.399 104.174 180.419 104.199 180.439 104.215C180.467 104.237 180.506 104.237 180.532 104.215C180.768 104.036 180.989 103.909 181.195 103.836C181.204 103.833 181.213 103.831 181.222 103.831C181.267 103.831 181.304 103.869 181.304 103.914C181.304 103.94 181.292 103.965 181.271 103.98C180.749 104.355 180.337 104.783 180.037 105.263C179.986 105.344 179.962 105.438 179.969 105.532L180.041 106.701C180.041 106.702 180.041 106.702 180.041 106.703C180.041 106.709 180.045 106.713 180.051 106.713C180.056 106.713 180.061 106.71 180.061 106.704C180.066 106.691 180.004 106.693 179.876 106.711C179.843 106.716 179.816 106.741 179.811 106.773C179.806 106.799 179.825 106.836 179.869 106.884C179.931 106.956 179.94 107.059 179.893 107.139L179.467 107.88C179.458 107.896 179.453 107.914 179.453 107.932C179.453 107.989 179.5 108.036 179.556 108.036H179.735C179.803 108.036 179.858 108.092 179.858 108.16C179.858 108.186 179.85 108.211 179.835 108.232C179.53 108.662 179.353 109.081 179.302 109.491C179.301 109.497 179.3 109.503 179.3 109.509C179.3 109.556 179.339 109.595 179.386 109.595C179.419 109.595 179.449 109.576 179.464 109.546C180.257 108.201 181.209 107.104 182.687 106.26C184.35 105.308 185.708 104.473 187.288 104.232C187.334 104.226 187.378 104.256 187.388 104.301L187.405 104.391C187.406 104.393 187.406 104.396 187.406 104.398C187.406 104.415 187.394 104.429 187.378 104.432C186.88 104.545 186.413 104.745 185.976 105.032C185.918 105.069 185.884 105.132 185.884 105.2C185.884 105.31 185.974 105.4 186.083 105.4C186.094 105.4 186.105 105.399 186.116 105.398C186.302 105.368 186.409 105.359 186.436 105.37C186.448 105.376 186.458 105.385 186.465 105.396C186.489 105.431 186.48 105.477 186.448 105.5C186.436 105.507 186.423 105.511 186.409 105.511C186.23 105.518 185.829 105.725 185.206 106.132C185.12 106.187 185.006 106.173 184.938 106.098C184.828 105.977 184.69 106.084 184.67 106.208C184.669 106.211 184.669 106.214 184.669 106.218C184.669 106.254 184.699 106.283 184.734 106.283C184.744 106.283 184.754 106.281 184.762 106.277C184.831 106.245 184.877 106.232 184.9 106.239C184.928 106.242 184.949 106.266 184.949 106.294C184.949 106.314 184.938 106.333 184.921 106.342L183.979 106.925C183.936 106.951 183.915 107.002 183.927 107.049C183.948 107.121 183.913 107.218 183.821 107.342C183.759 107.423 183.663 107.471 183.532 107.487C183.253 107.522 183.147 107.694 183.216 108.004C183.22 108.018 183.221 108.032 183.221 108.046C183.221 108.128 183.162 108.199 183.082 108.215C182.302 108.37 182.488 109.087 181.897 109.37C181.734 109.448 181.643 109.583 181.625 109.773C181.621 109.843 181.594 109.91 181.549 109.967L179.776 112.187C179.753 112.215 179.753 112.256 179.776 112.284V112.287C179.797 112.31 179.834 112.311 179.859 112.291C182.35 110.208 185.275 109.153 188.443 109.904C188.562 109.932 188.656 110.026 188.683 110.146C188.686 110.15 188.687 110.156 188.687 110.163C188.688 110.17 188.689 110.177 188.691 110.184C188.715 110.266 188.8 110.314 188.88 110.291C188.887 110.289 188.893 110.287 188.9 110.284L189.058 110.211C189.063 110.209 189.068 110.207 189.073 110.205C189.205 110.154 189.356 110.222 189.407 110.357C189.409 110.361 189.411 110.366 189.412 110.37C189.416 110.384 189.423 110.431 189.433 110.511C189.437 110.541 189.45 110.567 189.47 110.587L191.292 112.187C191.304 112.196 191.311 112.211 191.311 112.226C191.311 112.252 191.289 112.274 191.262 112.274C191.256 112.274 191.249 112.272 191.244 112.27C190.866 112.128 190.445 111.859 189.982 111.463C189.957 111.441 189.926 111.43 189.893 111.43C189.822 111.43 189.761 111.485 189.756 111.556C189.756 111.572 189.78 111.633 189.828 111.739C189.836 111.756 189.841 111.776 189.841 111.795C189.841 111.863 189.785 111.919 189.717 111.919C189.689 111.919 189.661 111.909 189.639 111.891C189.444 111.741 189.256 111.623 189.075 111.536C189.065 111.531 189.054 111.529 189.043 111.529C189 111.529 188.964 111.564 188.964 111.608C188.964 111.622 188.968 111.637 188.976 111.649L190.02 113.267C190.029 113.282 190.034 113.3 190.034 113.318C190.034 113.375 189.988 113.422 189.931 113.422C189.909 113.422 189.887 113.414 189.869 113.401L188.044 111.946C188.031 111.934 188.014 111.928 187.996 111.928C187.955 111.928 187.921 111.963 187.921 112.004C187.921 112.006 187.921 112.007 187.921 112.008C187.923 112.031 187.927 112.061 187.934 112.098C187.936 112.104 187.936 112.11 187.936 112.116C187.936 112.158 187.906 112.194 187.866 112.201C187.217 112.332 186.638 112.184 186.127 111.756C186.112 111.744 186.094 111.737 186.075 111.737C186.051 111.737 186.028 111.748 186.013 111.767C185.995 111.811 186.006 111.862 186.041 111.894L186.714 112.518C186.727 112.532 186.735 112.55 186.735 112.569C186.735 112.608 186.702 112.641 186.662 112.641C186.657 112.641 186.651 112.64 186.646 112.639C186.478 112.586 186 112.447 185.209 112.222C185.183 112.214 185.156 112.213 185.128 112.216C185.026 112.23 184.951 112.318 184.963 112.412C184.966 112.436 184.975 112.46 184.989 112.48C184.996 112.492 185.043 112.501 185.13 112.508C185.168 112.512 185.197 112.545 185.197 112.583C185.197 112.596 185.194 112.608 185.189 112.618C185.168 112.657 185.138 112.687 185.099 112.708C185.058 112.729 185.023 112.734 184.993 112.725C184.528 112.599 184.195 112.543 183.996 112.56C183.954 112.564 183.917 112.59 183.9 112.629C183.872 112.686 183.872 112.738 183.9 112.784C183.919 112.816 183.954 112.833 183.989 112.829C184.134 112.81 184.226 112.816 184.268 112.846C184.296 112.862 184.314 112.893 184.314 112.927C184.314 112.978 184.272 113.02 184.221 113.02C184.205 113.02 184.189 113.016 184.175 113.008C183.868 112.879 183.605 112.832 183.388 112.867C183.305 112.878 183.243 112.95 183.243 113.034C183.243 113.082 183.263 113.128 183.299 113.16L183.57 113.401C183.586 113.415 183.595 113.435 183.595 113.456C183.595 113.496 183.563 113.529 183.523 113.529C183.523 113.529 183.522 113.529 183.522 113.529C183.476 113.529 183.044 113.446 182.226 113.28C182.082 113.25 181.983 113.272 181.931 113.346C181.918 113.364 181.911 113.386 181.911 113.408C181.911 113.467 181.959 113.515 182.017 113.515C182.02 113.515 182.022 113.515 182.024 113.515C182.042 113.515 182.065 113.509 182.092 113.498C182.149 113.473 182.217 113.49 182.257 113.539C182.305 113.597 182.311 113.667 182.275 113.749C182.254 113.797 182.206 113.827 182.154 113.825C181.504 113.781 181.176 113.761 181.171 113.763C181.139 113.776 181.117 113.808 181.117 113.843C181.117 113.877 181.137 113.908 181.168 113.922C181.464 114.057 181.701 114.129 181.879 114.136C184.198 114.239 186.215 114.97 187.931 116.329C188.364 116.67 189.175 117.698 189.192 118.377C189.203 118.88 189.269 119.186 189.388 119.294C189.404 119.307 189.414 119.326 189.414 119.347C189.414 119.382 189.384 119.412 189.349 119.412C189.346 119.412 189.343 119.412 189.34 119.411C189.28 119.409 189.225 119.424 189.175 119.456C189.164 119.463 189.159 119.478 189.165 119.491C189.524 120.316 189.732 121.154 189.787 122.004C189.787 122.005 189.787 122.006 189.787 122.007C189.787 122.054 189.748 122.093 189.701 122.093C189.677 122.093 189.655 122.083 189.639 122.067L186.996 119.222ZM103.573 118.667C103.61 118.701 103.628 118.754 103.628 118.825C103.628 118.827 103.628 118.829 103.628 118.83C103.628 118.844 103.639 118.855 103.653 118.855C103.664 118.855 103.674 118.847 103.677 118.836C103.702 118.778 103.704 118.734 103.683 118.704C103.667 118.681 103.635 118.661 103.587 118.642C103.585 118.641 103.583 118.641 103.58 118.641C103.573 118.641 103.567 118.647 103.567 118.654C103.567 118.659 103.569 118.664 103.573 118.667ZM107.866 123.642C107.799 123.679 107.765 123.712 107.762 123.742C107.762 123.744 107.762 123.746 107.762 123.747C107.762 123.783 107.792 123.813 107.827 123.813C107.848 123.813 107.867 123.803 107.879 123.787C107.882 123.785 107.898 123.757 107.927 123.704C107.932 123.697 107.935 123.689 107.935 123.68C107.935 123.655 107.915 123.635 107.89 123.635C107.881 123.635 107.873 123.638 107.866 123.642ZM98.6697 125.632C98.5986 125.676 98.569 125.734 98.5803 125.808C98.6515 125.764 98.681 125.706 98.6697 125.632ZM107.048 129.711C106.968 129.79 106.978 129.898 107.079 130.036C107.093 130.057 107.102 130.082 107.102 130.108C107.102 130.176 107.046 130.232 106.978 130.232C106.948 130.232 106.919 130.221 106.897 130.201C106.31 129.663 105.892 129.125 105.642 128.587C105.604 128.501 105.51 128.454 105.419 128.473L105.288 128.501C105.277 128.503 105.265 128.504 105.254 128.504C105.165 128.504 105.091 128.434 105.086 128.346L105.044 127.508C105.042 127.479 105.018 127.457 104.989 127.457C104.978 127.457 104.968 127.46 104.958 127.467L104.776 127.584C104.749 127.6 104.733 127.631 104.735 127.663L105.013 133.304C105.014 133.31 105.014 133.314 105.015 133.32C105.028 133.423 105.123 133.497 105.223 133.483C105.229 133.483 105.235 133.482 105.24 133.48L108.364 132.815C108.464 132.792 108.536 132.702 108.536 132.599C108.536 132.577 108.532 132.554 108.525 132.532C108.443 132.274 108.428 132.074 108.481 131.932C108.517 131.829 108.484 131.713 108.398 131.646C108.258 131.54 108.112 131.164 107.958 130.518C107.948 130.48 107.914 130.454 107.876 130.456L107.769 130.463C107.76 130.463 107.752 130.471 107.752 130.48C107.752 130.481 107.752 130.483 107.752 130.484L107.862 131.425C107.863 131.431 107.864 131.437 107.864 131.443C107.864 131.494 107.822 131.536 107.771 131.536C107.732 131.536 107.696 131.511 107.683 131.473C107.36 130.742 107.214 130.186 107.244 129.804C107.244 129.802 107.244 129.8 107.244 129.798C107.244 129.733 107.191 129.68 107.127 129.68C107.098 129.68 107.069 129.691 107.048 129.711ZM138.762 130.856C139.514 130.852 140.272 130.741 141.037 130.525C141.06 130.519 141.076 130.499 141.076 130.475C141.076 130.452 141.06 130.431 141.037 130.425C140.381 130.253 139.45 130.022 138.756 130.025C138.061 130.029 137.134 130.273 136.477 130.453C136.449 130.453 136.426 130.476 136.426 130.504C136.426 130.533 136.449 130.556 136.477 130.556C137.245 130.763 138.006 130.863 138.762 130.856ZM156.876 130.649C146.136 132.068 134.787 133.77 122.828 135.756C122.734 135.772 122.638 135.776 122.543 135.767L105.202 134.084C105.198 134.083 105.194 134.083 105.19 134.083C105.103 134.082 105.031 134.152 105.03 134.237C105.03 134.241 105.03 134.245 105.031 134.249C105.432 139.969 106.58 145.523 108.477 150.911C108.512 151.01 108.606 151.077 108.711 151.077H117.35C117.437 151.077 117.508 151.005 117.508 150.918V149.346C117.508 149.21 117.62 149.098 117.756 149.098H117.842C117.939 149.098 118.02 149.179 118.02 149.277C118.02 149.278 118.02 149.279 118.02 149.28L117.986 150.767C117.984 150.823 118.028 150.871 118.086 150.877L120.817 151.142C120.829 151.143 120.84 151.144 120.852 151.144C121.051 151.144 121.215 150.98 121.216 150.78L121.22 149.184C121.22 149.043 121.335 148.926 121.477 148.922H121.494C121.634 148.922 121.749 149.039 121.749 149.18L121.756 150.86C121.756 150.956 121.835 151.036 121.931 151.036H125.12C125.209 151.036 125.281 150.962 125.281 150.873V149.029C125.281 148.928 125.364 148.846 125.464 148.846H125.58C125.686 148.846 125.773 148.933 125.773 149.039C125.773 149.04 125.773 149.041 125.773 149.042L125.735 150.715C125.735 150.716 125.735 150.717 125.735 150.718C125.733 150.934 125.907 151.113 126.12 151.115C126.121 151.115 126.122 151.115 126.123 151.115H127.917C128.126 151.115 128.299 150.942 128.299 150.732V148.984C128.299 148.873 128.387 148.781 128.498 148.777L139.508 148.549C139.527 148.548 139.543 148.532 139.543 148.515V148.422C139.543 148.416 139.538 148.411 139.532 148.411L128.518 148.167C128.409 148.165 128.319 148.073 128.319 147.963V141.156C128.319 141.071 128.258 140.997 128.175 140.98L125.862 140.546C125.855 140.544 125.848 140.544 125.842 140.544C125.78 140.544 125.729 140.594 125.728 140.656V147.96C125.728 147.964 125.728 147.968 125.727 147.973C125.72 148.056 125.647 148.118 125.566 148.11C125.562 148.109 125.557 148.109 125.553 148.108L125.457 148.091C125.383 148.078 125.329 148.012 125.329 147.936V140.66C125.329 140.558 125.256 140.469 125.154 140.449L121.835 139.825C121.827 139.824 121.818 139.823 121.811 139.823C121.741 139.823 121.683 139.88 121.683 139.95C121.683 139.951 121.683 139.952 121.683 139.953L121.704 147.925C121.704 148.031 121.617 148.118 121.512 148.118C121.509 148.118 121.507 148.118 121.505 148.118H121.491C121.381 148.106 121.298 148.012 121.299 147.901L121.35 139.929C121.35 139.811 121.266 139.709 121.151 139.687L118.195 139.132C118.19 139.131 118.184 139.13 118.178 139.13C118.077 139.12 117.986 139.194 117.976 139.294C117.976 139.3 117.976 139.306 117.976 139.311V147.867C117.976 147.935 117.92 147.991 117.852 147.991C117.851 147.991 117.849 147.991 117.848 147.991H117.752C117.674 147.989 117.611 147.924 117.611 147.846V139.304C117.611 139.209 117.543 139.126 117.45 139.108L115.773 138.794C115.669 138.774 115.594 138.682 115.594 138.577V137.604C115.594 137.494 115.676 137.399 115.783 137.384L156.941 130.815C156.95 130.813 156.957 130.805 156.955 130.798L156.938 130.698C156.935 130.67 156.911 130.649 156.883 130.649C156.881 130.649 156.878 130.649 156.876 130.649ZM120.663 133.149C120.017 133.17 119.368 133.28 118.718 133.48C118.694 133.481 118.675 133.501 118.675 133.525C118.675 133.55 118.695 133.57 118.72 133.57C118.72 133.57 118.721 133.57 118.721 133.57C119.285 133.701 120.086 133.88 120.68 133.86C121.275 133.842 122.061 133.615 122.618 133.446C122.636 133.44 122.649 133.423 122.649 133.403C122.649 133.383 122.635 133.364 122.615 133.36C121.955 133.199 121.304 133.129 120.663 133.149ZM148.728 151.108C148.789 151.108 148.838 151.058 148.838 150.998V134.104C148.838 134.049 148.797 134.001 148.742 133.994L144.532 133.404C144.528 133.404 144.523 133.403 144.518 133.403C144.458 133.403 144.409 133.453 144.409 133.514C144.409 133.514 144.409 133.514 144.409 133.515V150.998C144.409 151.058 144.458 151.108 144.518 151.108H148.728ZM169.9 134.591L174.347 134.556C174.368 134.554 174.384 134.536 174.384 134.515V134.498C174.379 134.224 173.373 134.006 172.154 134.015H172.079C170.857 134.023 169.853 134.256 169.855 134.53C169.855 134.531 169.855 134.531 169.855 134.532V134.549C169.855 134.572 169.874 134.591 169.897 134.591C169.898 134.591 169.899 134.591 169.9 134.591ZM154.123 151.108C154.188 151.108 154.24 151.055 154.24 150.991V134.811C154.241 134.753 154.198 134.703 154.14 134.694L149.47 134.036C149.465 134.035 149.459 134.034 149.453 134.034C149.389 134.034 149.336 134.087 149.336 134.151C149.336 134.152 149.336 134.152 149.336 134.153V150.991C149.336 151.055 149.389 151.108 149.453 151.108H154.123ZM160.175 151.108C160.239 151.108 160.292 151.055 160.292 150.991V135.629C160.292 135.57 160.249 135.52 160.192 135.511L154.886 134.767C154.88 134.766 154.875 134.765 154.869 134.765C154.805 134.765 154.752 134.818 154.752 134.882C154.752 134.883 154.752 134.883 154.752 134.884V150.991C154.752 151.055 154.805 151.108 154.869 151.108H160.175ZM165.969 151.108H172.646C172.764 151.108 172.871 151.03 172.91 150.915C174.585 145.823 175.696 140.763 176.244 135.736C176.244 135.731 176.245 135.726 176.245 135.721C176.245 135.658 176.193 135.607 176.131 135.607C176.126 135.607 176.121 135.607 176.116 135.608L166.419 136.601C166.41 136.602 166.402 136.602 166.393 136.602C166.267 136.602 166.163 136.498 166.163 136.371C166.163 136.362 166.163 136.352 166.165 136.342C166.206 136.002 166.188 135.745 166.11 135.57C166.079 135.504 166.013 135.462 165.941 135.462C165.84 135.462 165.757 135.544 165.756 135.646V150.894C165.756 151.011 165.852 151.108 165.969 151.108Z" fill="#BB4D09"></path>
    <path d="M115.594 124.184L115.639 122.194C115.641 122.141 115.673 122.094 115.721 122.073L144.305 109.318C144.324 109.31 144.344 109.305 144.364 109.305C144.439 109.305 144.501 109.368 144.501 109.443C144.501 109.444 144.501 109.445 144.501 109.446L144.34 116.911C144.339 116.973 144.296 117.027 144.237 117.042L115.766 124.322C115.755 124.324 115.743 124.326 115.732 124.326C115.656 124.326 115.594 124.264 115.594 124.188C115.594 124.187 115.594 124.185 115.594 124.184Z" fill="#BB4D09"></path>
    <path d="M139.285 123.463L115.769 128.97C115.76 128.972 115.751 128.973 115.742 128.973C115.678 128.973 115.625 128.92 115.625 128.856V125.998C115.625 125.945 115.66 125.898 115.711 125.884L165.618 111.815C165.628 111.812 165.639 111.811 165.649 111.811C165.713 111.811 165.766 111.863 165.766 111.928V111.929V128.298C165.765 128.361 165.713 128.413 165.649 128.413C165.642 128.413 165.635 128.413 165.628 128.411L139.333 123.46C139.317 123.458 139.3 123.459 139.285 123.463Z" fill="#BB4D09"></path>
    <path d="M110.9 121.839C110.863 121.837 110.815 121.826 110.756 121.808C110.751 121.807 110.747 121.805 110.743 121.802C110.732 121.792 110.731 121.774 110.742 121.761C110.745 121.758 110.748 121.755 110.752 121.753C110.789 121.734 110.821 121.726 110.848 121.729C110.864 121.731 110.882 121.738 110.898 121.749C110.933 121.773 110.95 121.809 110.937 121.828C110.931 121.837 110.917 121.841 110.9 121.839Z" fill="#545454"></path>
    <path d="M107.866 123.642C107.873 123.638 107.881 123.635 107.89 123.635C107.915 123.635 107.935 123.655 107.935 123.68C107.935 123.689 107.932 123.697 107.927 123.704C107.898 123.757 107.882 123.785 107.879 123.787C107.867 123.803 107.848 123.813 107.827 123.813C107.792 123.813 107.762 123.783 107.762 123.747C107.762 123.746 107.762 123.744 107.762 123.742C107.765 123.712 107.799 123.679 107.866 123.642Z" fill="#545454"></path>
    <path d="M101.299 129.373V129.76C101.298 129.786 101.277 129.807 101.25 129.807C101.231 129.807 101.213 129.795 101.206 129.777C101.144 129.621 101.129 129.48 101.161 129.356C101.166 129.322 101.195 129.295 101.23 129.295C101.268 129.295 101.299 129.327 101.299 129.365C101.299 129.368 101.299 129.371 101.299 129.373Z" fill="#BB4D09"></path>
    <path d="M103.732 130.439C103.72 130.368 103.77 130.34 103.883 130.356C103.916 130.365 103.939 130.395 103.939 130.43C103.939 130.467 103.912 130.499 103.876 130.504C103.871 130.504 103.831 130.492 103.756 130.467C103.743 130.462 103.734 130.451 103.732 130.439Z" fill="#BB4D09"></path>
    <path d="M99.5288 130.832C99.4714 130.917 99.4336 130.963 99.4154 130.97C99.4064 130.974 99.3965 130.976 99.3869 130.976C99.347 130.976 99.3147 130.943 99.3147 130.903C99.3147 130.899 99.315 130.895 99.3157 130.891C99.325 130.842 99.3731 130.797 99.4601 130.753C99.4669 130.75 99.4742 130.748 99.4817 130.748C99.512 130.748 99.5367 130.773 99.5367 130.803C99.5367 130.813 99.5339 130.823 99.5288 130.832Z" fill="#BB4D09"></path>
    <path d="M127.89 163.944C127.907 167.238 125.105 169.962 121.684 169.98C118.262 169.998 115.433 167.303 115.415 164.01C115.398 160.716 118.2 157.991 121.621 157.973C125.043 157.956 127.872 160.651 127.89 163.944ZM125.33 163.973C125.33 161.949 123.67 160.284 121.653 160.284C119.635 160.284 117.976 161.949 117.976 163.973C117.976 165.998 119.635 167.663 121.653 167.663C123.67 167.663 125.33 165.998 125.33 163.973Z" fill="#545454"></path>
    <path d="M169.474 161.104C168.672 160.295 167.711 160.031 166.591 160.311C165.756 160.518 165.36 161.601 166.185 162.132C168.199 163.432 171.326 163.242 171.453 166.229C171.532 168.163 170.079 169.536 168.264 169.853C166.159 170.221 164.329 169.694 162.776 168.273C162.756 168.254 162.754 168.222 162.773 168.201L164.202 166.563C164.223 166.54 164.252 166.526 164.283 166.526C164.311 166.526 164.337 166.537 164.357 166.556C165.392 167.598 166.59 167.955 167.948 167.629C169.223 167.325 169.244 165.801 167.938 165.346C166.278 164.767 164.728 164.387 163.721 163.111C162.855 162.008 163.11 160.118 164.075 159.201C165.986 157.384 169.206 157.687 171.075 159.391C171.128 159.441 171.133 159.525 171.086 159.58L169.762 161.094C169.761 161.096 169.76 161.097 169.758 161.099C169.683 161.179 169.557 161.183 169.479 161.11C169.477 161.108 169.476 161.106 169.474 161.104Z" fill="#545454"></path>
    <path d="M97.8003 162.777C99.1999 162.777 99.9446 162.774 100.034 162.77C100.035 162.77 100.037 162.77 100.038 162.77C100.153 162.773 100.25 162.683 100.254 162.57C100.254 162.568 100.254 162.565 100.254 162.563L100.268 158.387C100.268 158.27 100.364 158.173 100.481 158.173H102.467C102.596 158.173 102.704 158.278 102.707 158.408C102.714 158.631 102.717 160.472 102.714 163.932C102.714 167.392 102.711 169.233 102.704 169.456C102.7 169.585 102.595 169.689 102.467 169.691H100.481C100.364 169.691 100.268 169.594 100.268 169.477L100.254 165.301C100.254 165.299 100.254 165.297 100.254 165.294C100.25 165.181 100.153 165.091 100.038 165.094C100.037 165.094 100.035 165.094 100.034 165.094C99.9446 165.09 99.1999 165.087 97.8003 165.087C96.4006 165.087 95.6559 165.09 95.5666 165.094C95.5652 165.094 95.5638 165.094 95.5625 165.094C95.4473 165.091 95.3501 165.181 95.3466 165.294C95.3466 165.297 95.3466 165.299 95.3466 165.301L95.3329 169.477C95.3329 169.594 95.2367 169.691 95.1198 169.691H93.1336C93.004 169.691 92.8968 169.586 92.893 169.456C92.8862 169.233 92.8838 167.392 92.8862 163.932C92.8862 160.472 92.8896 158.631 92.8965 158.408C92.9002 158.279 93.0054 158.175 93.1336 158.173H95.1198C95.2367 158.173 95.3329 158.27 95.3329 158.387L95.3466 162.563C95.3466 162.565 95.3466 162.568 95.3466 162.57C95.3501 162.683 95.4473 162.773 95.5625 162.77C95.5638 162.77 95.5652 162.77 95.5666 162.77C95.6559 162.774 96.4006 162.777 97.8003 162.777Z" fill="#545454"></path>
    <path d="M145.477 167.66C147.484 167.66 148.037 166.091 148.024 164.332C148.014 162.877 148.013 160.888 148.02 158.367C148.02 158.366 148.02 158.365 148.02 158.365C148.021 158.282 148.089 158.214 148.17 158.215C148.17 158.215 148.171 158.215 148.171 158.215L150.34 158.218H150.34C150.417 158.218 150.481 158.282 150.481 158.36C150.481 158.363 150.481 158.367 150.481 158.37C150.476 158.423 150.476 160.567 150.481 164.801C150.484 167.822 148.505 169.97 145.481 169.97C142.453 169.973 140.474 167.822 140.477 164.801C140.482 160.567 140.482 158.423 140.477 158.37C140.477 158.367 140.477 158.363 140.477 158.36C140.477 158.282 140.541 158.218 140.618 158.218H140.618L142.787 158.215C142.787 158.215 142.788 158.215 142.788 158.215C142.869 158.214 142.937 158.282 142.938 158.365C142.938 158.365 142.938 158.366 142.938 158.367C142.945 160.888 142.944 162.877 142.934 164.332C142.921 166.091 143.474 167.66 145.477 167.66Z" fill="#545454"></path>
    <path d="M190.945 164.963H186.46C186.383 164.963 186.319 165.027 186.319 165.104V167.284C186.319 167.361 186.383 167.425 186.46 167.425H192.415C192.493 167.425 192.556 167.489 192.556 167.567V169.587C192.556 169.665 192.493 169.729 192.415 169.729H184.007C183.929 169.729 183.866 169.665 183.866 169.587V158.356C183.866 158.279 183.929 158.215 184.007 158.215H192.247C192.324 158.215 192.388 158.279 192.388 158.356V160.387C192.388 160.465 192.324 160.529 192.247 160.529H186.46C186.383 160.529 186.319 160.592 186.319 160.67V162.591C186.319 162.668 186.383 162.732 186.46 162.732H190.945C191.022 162.732 191.086 162.796 191.086 162.873V164.822C191.086 164.899 191.022 164.963 190.945 164.963Z" fill="#545454"></path>
  </g>
  <defs>
    <clipPath id="clip0_6834_172">
      <rect width="300" height="170" fill="white"></rect>
    </clipPath>
  </defs>
</svg>
